<svg id='companyName' width="185" height="48" viewBox="0 0 185 48" fill="none" xmlns="http://www.w3.org/2000/svg">
<path d="M11.3535 8.368C12.0788 7.94133 13.1668 7.536 14.6175 7.152C16.1108 6.768 17.6042 6.576 19.0975 6.576C21.2308 6.576 23.1082 6.896 24.7295 7.536C26.3935 8.13333 27.4602 9.09333 27.9295 10.416C28.6975 12.6347 29.5295 15.216 30.4255 18.16C31.3215 21.104 32.2175 24.1547 33.1135 27.312C34.0095 30.4267 34.8842 33.52 35.7375 36.592C36.5908 39.6213 37.3375 42.3093 37.9775 44.656C37.4655 45.2533 36.6975 45.7227 35.6735 46.064C34.6495 46.448 33.4335 46.64 32.0255 46.64C31.0015 46.64 30.1268 46.5547 29.4015 46.384C28.7188 46.2133 28.1428 45.9573 27.6735 45.616C27.2468 45.2747 26.8842 44.8267 26.5855 44.272C26.3295 43.7173 26.0948 43.0773 25.8815 42.352L24.7295 37.936H13.1455C12.8042 39.216 12.4628 40.5387 12.1215 41.904C11.7802 43.2693 11.4388 44.592 11.0975 45.872C10.5002 46.0853 9.86017 46.256 9.1775 46.384C8.5375 46.5547 7.74817 46.64 6.8095 46.64C4.6335 46.64 3.01217 46.2773 1.9455 45.552C0.9215 44.784 0.4095 43.7387 0.4095 42.416C0.4095 41.8187 0.494833 41.2213 0.6655 40.624C0.836167 40.0267 1.02817 39.3227 1.2415 38.512C1.54017 37.36 1.9455 35.9307 2.4575 34.224C3.01217 32.5173 3.6095 30.6827 4.2495 28.72C4.8895 26.7147 5.57217 24.6667 6.2975 22.576C7.02283 20.4853 7.7055 18.5227 8.3455 16.688C8.9855 14.8107 9.5615 13.1467 10.0735 11.696C10.6282 10.2453 11.0548 9.136 11.3535 8.368ZM19.0335 16.624C18.4362 18.416 17.7535 20.4213 16.9855 22.64C16.2602 24.816 15.5988 27.0347 15.0015 29.296H22.9375C22.3402 26.992 21.7215 24.752 21.0815 22.576C20.4842 20.3573 19.9295 18.3733 19.4175 16.624H19.0335ZM62.1025 26.288C62.1025 24.9653 61.7185 24.0053 60.9505 23.408C60.2252 22.768 59.2225 22.448 57.9425 22.448C57.0892 22.448 56.2358 22.5547 55.3825 22.768C54.5718 22.9813 53.8678 23.3013 53.2705 23.728V45.936C52.8438 46.064 52.1612 46.192 51.2225 46.32C50.3265 46.448 49.3878 46.512 48.4065 46.512C47.4678 46.512 46.6145 46.448 45.8465 46.32C45.1212 46.192 44.5025 45.936 43.9905 45.552C43.4785 45.168 43.0732 44.656 42.7745 44.016C42.5185 43.3333 42.3905 42.4587 42.3905 41.392V22.192C42.3905 21.04 42.6252 20.1013 43.0945 19.376C43.6065 18.6507 44.2892 17.9893 45.1425 17.392C46.5932 16.368 48.4065 15.536 50.5825 14.896C52.8012 14.256 55.2545 13.936 57.9425 13.936C62.7638 13.936 66.4758 15.0027 69.0785 17.136C71.6812 19.2267 72.9825 22.1493 72.9825 25.904V45.936C72.5558 46.064 71.8732 46.192 70.9345 46.32C70.0385 46.448 69.0998 46.512 68.1185 46.512C67.1798 46.512 66.3265 46.448 65.5585 46.32C64.8332 46.192 64.2145 45.936 63.7025 45.552C63.1905 45.168 62.7852 44.656 62.4865 44.016C62.2305 43.3333 62.1025 42.4587 62.1025 41.392V26.288ZM79.447 6.256C79.447 4.63466 79.9803 3.26933 81.047 2.16C82.1563 1.05066 83.607 0.495998 85.399 0.495998C87.191 0.495998 88.6203 1.05066 89.687 2.16C90.7963 3.26933 91.351 4.63466 91.351 6.256C91.351 7.87733 90.7963 9.24267 89.687 10.352C88.6203 11.4613 87.191 12.016 85.399 12.016C83.607 12.016 82.1563 11.4613 81.047 10.352C79.9803 9.24267 79.447 7.87733 79.447 6.256ZM90.839 45.936C90.3697 46.0213 89.6657 46.128 88.727 46.256C87.831 46.4267 86.9137 46.512 85.975 46.512C85.0363 46.512 84.183 46.448 83.415 46.32C82.6897 46.192 82.071 45.936 81.559 45.552C81.047 45.168 80.6417 44.656 80.343 44.016C80.087 43.3333 79.959 42.4587 79.959 41.392V15.344C80.4283 15.2587 81.111 15.152 82.007 15.024C82.9457 14.8533 83.8843 14.768 84.823 14.768C85.7617 14.768 86.5937 14.832 87.319 14.96C88.087 15.088 88.727 15.344 89.239 15.728C89.751 16.112 90.135 16.6453 90.391 17.328C90.6897 17.968 90.839 18.8213 90.839 19.888V45.936ZM112.678 13.936C114.427 13.936 116.134 14.192 117.798 14.704C119.504 15.1733 120.976 15.8987 122.214 16.88C123.494 16.0267 124.923 15.3227 126.502 14.768C128.123 14.2133 130.064 13.936 132.326 13.936C133.947 13.936 135.526 14.1493 137.062 14.576C138.64 15.0027 140.027 15.6853 141.222 16.624C142.459 17.52 143.44 18.736 144.166 20.272C144.891 21.7653 145.254 23.6 145.254 25.776V45.936C144.827 46.064 144.144 46.192 143.206 46.32C142.31 46.448 141.371 46.512 140.39 46.512C139.451 46.512 138.598 46.448 137.83 46.32C137.104 46.192 136.486 45.936 135.974 45.552C135.462 45.168 135.056 44.656 134.758 44.016C134.502 43.3333 134.374 42.4587 134.374 41.392V26.096C134.374 24.816 134.011 23.8987 133.286 23.344C132.56 22.7467 131.579 22.448 130.342 22.448C129.744 22.448 129.104 22.5973 128.422 22.896C127.739 23.152 127.227 23.4293 126.886 23.728C126.928 23.8987 126.95 24.0693 126.95 24.24C126.95 24.368 126.95 24.496 126.95 24.624V45.936C126.48 46.064 125.776 46.192 124.838 46.32C123.942 46.448 123.024 46.512 122.086 46.512C121.147 46.512 120.294 46.448 119.526 46.32C118.8 46.192 118.182 45.936 117.67 45.552C117.158 45.168 116.752 44.656 116.454 44.016C116.198 43.3333 116.07 42.4587 116.07 41.392V26.096C116.07 24.816 115.664 23.8987 114.854 23.344C114.086 22.7467 113.147 22.448 112.038 22.448C111.27 22.448 110.608 22.576 110.054 22.832C109.499 23.0453 109.03 23.2587 108.646 23.472V45.936C108.219 46.064 107.536 46.192 106.598 46.32C105.702 46.448 104.763 46.512 103.782 46.512C102.843 46.512 101.99 46.448 101.222 46.32C100.496 46.192 99.8775 45.936 99.3655 45.552C98.8535 45.168 98.4482 44.656 98.1495 44.016C97.8935 43.3333 97.7655 42.4587 97.7655 41.392V22.064C97.7655 20.912 98.0002 19.9947 98.4695 19.312C98.9815 18.6293 99.6642 17.9893 100.518 17.392C101.968 16.368 103.76 15.536 105.894 14.896C108.07 14.256 110.331 13.936 112.678 13.936ZM184.083 30.448C184.083 33.0933 183.677 35.4613 182.867 37.552C182.056 39.6 180.904 41.328 179.411 42.736C177.96 44.144 176.211 45.2107 174.163 45.936C172.115 46.6613 169.832 47.024 167.315 47.024C164.797 47.024 162.515 46.64 160.467 45.872C158.419 45.104 156.648 44.016 155.155 42.608C153.704 41.1573 152.573 39.408 151.763 37.36C150.952 35.312 150.547 33.008 150.547 30.448C150.547 27.9307 150.952 25.648 151.763 23.6C152.573 21.552 153.704 19.824 155.155 18.416C156.648 16.9653 158.419 15.856 160.467 15.088C162.515 14.32 164.797 13.936 167.315 13.936C169.832 13.936 172.115 14.3413 174.163 15.152C176.211 15.92 177.96 17.0293 179.411 18.48C180.904 19.888 182.056 21.616 182.867 23.664C183.677 25.712 184.083 27.9733 184.083 30.448ZM161.683 30.448C161.683 33.0507 162.173 35.056 163.155 36.464C164.179 37.8293 165.587 38.512 167.378 38.512C169.171 38.512 170.536 37.808 171.475 36.4C172.456 34.992 172.947 33.008 172.947 30.448C172.947 27.888 172.456 25.9253 171.475 24.56C170.493 23.152 169.107 22.448 167.315 22.448C165.523 22.448 164.136 23.152 163.155 24.56C162.173 25.9253 161.683 27.888 161.683 30.448Z" fill="rgba(0, 0, 0, 0.7)"/>
</svg>
