<svg width="100%" height="100%" viewBox="0 0 600 424" fill="none" xmlns="http://www.w3.org/2000/svg">
<path d="M300 424C465.685 424 600 392.212 600 353C600 313.788 465.685 282 300 282C134.315 282 0 313.788 0 353C0 392.212 134.315 424 300 424Z" fill="#EEEEEE"/>
<path d="M356.66 325.191C356.66 325.191 380.929 323.269 387.914 331.606C394.899 339.944 419.836 359.059 409.543 363.316C399.251 367.573 344 350.574 344 350.574L356.66 325.191Z" fill="#FFB9B9"/>
<path d="M257.51 35.0813C257.304 32.2689 256.18 29.6048 254.315 27.5054C252.45 25.406 249.949 23.9895 247.202 23.4774C243.511 22.8821 239.389 23.9359 236.217 21.9294C234.784 21.0185 233.758 19.5956 232.602 18.3572C228.073 13.4692 221.274 11.2127 214.646 11.0162C208.018 10.8197 201.485 12.4392 195.116 14.2908C182.403 17.9881 168.97 23.4119 162.206 34.8908C151.922 52.3651 161.41 75.9182 153.279 94.5117C149.74 102.633 142.995 109.265 140.801 117.862C137.853 129.347 143.667 140.999 148.142 151.966C152.157 161.802 155.207 172.011 157.247 182.449C159.046 191.665 160.048 201.245 158.02 210.431C157.129 214.45 155.661 218.54 156.451 222.577C157.63 228.686 163.48 232.538 168.799 235.675L170.185 236.497C177.85 241.022 185.734 245.642 194.515 246.761C199.969 247.452 205.719 246.69 210.436 243.874C215.153 241.058 218.745 236.033 219.146 230.502C219.594 224.244 216.144 218.386 215.401 212.152C215.231 211.213 215.302 210.245 215.607 209.342C216.097 208.151 217.235 207.383 218.285 206.645C233.404 196 241.512 176.078 238.169 157.776C235.892 145.309 228.816 132.914 232.242 120.714C234.135 113.975 239.012 108.515 241.748 102.079C244.639 95.2051 244.998 87.5138 242.762 80.3954C241.2 75.4776 238.369 70.5657 239.342 65.511C241.058 56.5327 252.905 53.6689 257.38 45.7147C260.7 39.7967 258.737 31.4257 253.135 27.6629" fill="#B96B6B"/>
<path opacity="0.1" d="M257.51 35.0813C257.304 32.2689 256.18 29.6048 254.315 27.5054C252.45 25.406 249.949 23.9895 247.202 23.4774C243.511 22.8821 239.389 23.9359 236.217 21.9294C234.784 21.0185 233.758 19.5956 232.602 18.3572C228.073 13.4692 221.274 11.2127 214.646 11.0162C208.018 10.8197 201.485 12.4392 195.116 14.2908C182.403 17.9881 168.97 23.4119 162.206 34.8908C151.922 52.3651 161.41 75.9182 153.279 94.5117C149.74 102.633 142.995 109.265 140.801 117.862C137.853 129.347 143.667 140.999 148.142 151.966C152.157 161.802 155.207 172.011 157.247 182.449C159.046 191.665 160.048 201.245 158.02 210.431C157.129 214.45 155.661 218.54 156.451 222.577C157.63 228.686 163.48 232.538 168.799 235.675L170.185 236.497C177.85 241.022 185.734 245.642 194.515 246.761C199.969 247.452 205.719 246.69 210.436 243.874C215.153 241.058 218.745 236.033 219.146 230.502C219.594 224.244 216.144 218.386 215.401 212.152C215.231 211.213 215.302 210.245 215.607 209.342C216.097 208.151 217.235 207.383 218.285 206.645C233.404 196 241.512 176.078 238.169 157.776C235.892 145.309 228.816 132.914 232.242 120.714C234.135 113.975 239.012 108.515 241.748 102.079C244.639 95.2051 244.998 87.5138 242.762 80.3954C241.2 75.4776 238.369 70.5657 239.342 65.511C241.058 56.5327 252.905 53.6689 257.38 45.7147C260.7 39.7967 258.737 31.4257 253.135 27.6629" fill="black"/>
<path d="M282 344H154V276L225.442 303.2L282 276V344Z" fill="#777B9B"/>
<path opacity="0.1" d="M282 344H154V276L225.442 303.2L282 276V344Z" fill="black"/>
<path d="M266.264 351.125C266.264 351.125 243.564 356.872 241.235 367.402C238.907 377.933 254.623 376.977 254.623 376.977C254.623 376.977 276.742 372.187 279.652 353.037C282.562 333.886 266.264 351.125 266.264 351.125Z" fill="#FFB9B9"/>
<path opacity="0.1" d="M266.264 351.125C266.264 351.125 243.564 356.872 241.235 367.402C238.907 377.933 254.623 376.977 254.623 376.977C254.623 376.977 276.742 372.187 279.652 353.037C282.562 333.886 266.264 351.125 266.264 351.125Z" fill="black"/>
<path d="M203.221 382.028C203.221 382.028 181.298 383.414 181 400.712C180.958 403.031 203.836 403.704 230.994 389.503C258.152 375.302 260 373.806 260 373.806C260 373.806 249.506 357.361 242.113 355.123C234.72 352.884 203.221 382.028 203.221 382.028Z" fill="#CBCDDA"/>
<path d="M76.6903 314.948C76.6903 314.948 51.8065 335.179 98.0193 363.503C144.232 391.827 188.667 386.625 188.667 386.625C188.667 386.625 236.871 381.058 244.17 358.983C251.469 336.908 208.219 318.416 208.219 318.416C208.219 318.416 160.821 318.416 139.492 305.122C118.163 291.827 76.6903 314.948 76.6903 314.948Z" fill="#777B9B"/>
<path d="M211.063 280.09C211.063 280.09 232.215 292.277 261.005 280.09C283.156 270.711 331.747 274.391 352.975 276.608C362.928 277.635 371.454 284.408 374.174 293.92C376.395 301.679 374.762 311.214 361.471 320.152C332.093 339.884 311.529 345.687 303.891 353.812C296.253 361.937 274.513 366 274.513 366C274.513 366 246.898 361.937 246.898 356.134C246.898 350.33 272.163 321.893 272.163 321.893C272.163 321.893 235.147 355.554 196.956 310.286C158.765 265.018 211.063 280.09 211.063 280.09Z" fill="#777B9B"/>
<path d="M201.25 195L126 143.768C126 143.768 162.096 119.441 165.195 97.6999C165.899 93.4614 165.025 89.1132 162.736 85.4689C147.923 61.9138 214.878 85.4689 214.878 85.4689C215.311 91.6026 216.152 97.701 217.397 103.724C220.306 118.063 226.444 137.161 239.172 146.712C261.095 163.201 201.25 195 201.25 195Z" fill="#FFB9B9"/>
<path opacity="0.1" d="M217 104.021C208.784 108.807 199.242 110.802 189.8 109.708C180.358 108.614 171.523 104.491 164.615 97.9535C165.321 93.6676 164.444 89.2708 162.147 85.5859C147.282 61.7677 214.473 85.5859 214.473 85.5859C214.908 91.7801 215.752 97.9387 217 104.021V104.021Z" fill="black"/>
<path d="M195 110C218.748 110 238 90.3005 238 66C238 41.6995 218.748 22 195 22C171.252 22 152 41.6995 152 66C152 90.3005 171.252 110 195 110Z" fill="#FFB9B9"/>
<path opacity="0.1" d="M222.919 122.887C222.919 122.887 213.959 174.696 199.025 171.752C184.092 168.808 137.499 117 137.499 117C137.499 117 89.1148 132.896 96.8803 171.752C104.646 210.608 112.411 243.577 96.2829 255.941C80.1548 268.304 70 326 70 326C70 326 121.371 304.806 148.251 313.048C175.132 321.29 202.609 317.169 209.18 309.516C215.751 301.862 225.308 285.377 225.308 285.377C225.308 285.377 211.569 265.361 218.14 255.352C224.711 245.344 233.074 244.755 237.852 216.496C242.631 188.237 280.263 178.228 273.095 162.332C265.927 146.437 252.188 122.887 222.919 122.887Z" fill="black"/>
<path d="M222.919 120.887C222.919 120.887 213.959 172.696 199.025 169.752C184.092 166.808 137.499 115 137.499 115C137.499 115 89.1148 130.896 96.8803 169.752C104.646 208.608 112.411 241.577 96.2829 253.941C80.1548 266.304 70 324 70 324C70 324 121.371 302.806 148.251 311.048C175.132 319.29 202.609 315.169 209.18 307.516C215.751 299.862 225.308 283.377 225.308 283.377C225.308 283.377 211.569 263.361 218.14 253.352C224.711 243.344 233.074 242.755 237.852 214.496C242.631 186.237 280.263 176.228 273.095 160.332C265.927 144.437 252.188 120.887 222.919 120.887Z" fill="#CBCDDA"/>
<path d="M257.308 334.205C257.308 334.205 281.043 328.56 289.351 335.334C297.658 342.108 325.548 356.221 316.054 361.866C306.559 367.511 249 360.172 249 360.172L257.308 334.205Z" fill="#FFB9B9"/>
<g opacity="0.05">
<path opacity="0.05" d="M192.426 170.043C193.806 170.303 195.233 170.095 196.481 169.452C180.084 163.125 137.532 115.149 137.532 115.149C137.532 115.149 135.856 115.709 133.176 116.872C141.31 125.909 179.281 167.416 192.426 170.043Z" fill="black"/>
<path opacity="0.05" d="M265.618 160.599C281.898 154.336 235.515 186.57 230.793 214.902C226.071 243.235 217.807 243.825 211.314 253.86C204.822 263.894 218.398 283.963 218.398 283.963C218.398 283.963 208.953 300.49 202.461 308.163C198.742 312.561 188.241 315.784 174.96 316.191C190.98 316.698 204.107 313.186 208.363 308.163C214.856 300.49 224.3 283.963 224.3 283.963C224.3 283.963 210.724 263.894 217.217 253.86C223.71 243.825 231.973 243.235 236.696 214.902C241.418 186.57 261.782 162.074 265.618 160.599Z" fill="black"/>
<path opacity="0.05" d="M71.2873 322.229C70.9863 323.805 70.8329 324.696 70.8329 324.696C70.8329 324.696 103.84 310.879 130.555 309.863C109.938 309.007 83.2932 317.779 71.2873 322.229Z" fill="black"/>
</g>
<path d="M267.439 157C267.439 157 272.711 157.596 277.983 185.591C283.255 213.587 303.757 240.392 303.757 240.392C311.861 251.416 318.188 263.681 322.502 276.726C329.531 298.17 360.87 326.463 372 327.655C372 327.655 350.619 349.396 352.962 355.353C355.305 361.309 350.619 355.353 350.619 355.353C350.619 355.353 321.33 344.035 314.887 325.57C308.443 307.105 280.326 277.322 280.326 277.322C280.326 277.322 242.836 203.461 241.079 191.548C239.322 179.635 267.439 157 267.439 157Z" fill="#CBCDDA"/>
<path opacity="0.1" d="M106 257C106 257 151.043 262.054 160.988 275.531C170.933 289.009 217 267.703 217 267.703" fill="black"/>
<path opacity="0.1" d="M149.322 176.965C149.322 176.965 168.829 247.935 175.923 256.733C183.016 265.531 237.991 337.674 264 332.981C264 332.981 256.315 365.827 250.995 367C250.995 367 197.203 314.212 178.878 314.799C178.878 314.799 145.184 287.232 141.637 273.742C138.091 260.252 109.717 216.262 109.717 216.262C109.717 216.262 95.5297 185.176 101.441 171.686C107.352 158.196 138.682 164.061 149.322 176.965Z" fill="black"/>
<path d="M149.322 175.965C149.322 175.965 168.829 246.935 175.923 255.733C183.016 264.531 237.991 336.674 264 331.981C264 331.981 256.315 364.827 250.995 366C250.995 366 197.203 313.212 178.878 313.799C178.878 313.799 145.184 286.232 141.637 272.742C138.091 259.252 109.717 215.262 109.717 215.262C109.717 215.262 95.5297 184.176 101.441 170.686C107.352 157.196 138.682 163.061 149.322 175.965Z" fill="#CBCDDA"/>
<path opacity="0.1" d="M226.523 23.8772C226.318 21.0887 225.204 18.4472 223.355 16.3655C221.505 14.2839 219.025 12.8794 216.302 12.3717C212.641 11.7814 208.554 12.8262 205.408 10.8368C203.987 9.93362 202.97 8.52273 201.824 7.29484C197.333 2.44823 190.591 0.210875 184.019 0.0160661C177.447 -0.178743 170.968 1.42696 164.653 3.26288C152.046 6.92884 138.726 12.3067 132.02 23.6883C121.822 41.0145 131.23 64.368 123.167 82.804C119.659 90.8561 112.969 97.4324 110.794 105.957C107.871 117.344 113.636 128.897 118.074 139.771C122.055 149.524 125.079 159.647 127.102 169.996C128.886 179.134 129.88 188.633 127.868 197.741C126.985 201.726 125.529 205.782 126.313 209.784C127.482 215.841 133.283 219.66 138.557 222.771L139.931 223.586C147.532 228.073 155.35 232.653 164.057 233.763C169.465 234.448 175.166 233.692 179.844 230.9C184.522 228.108 188.083 223.126 188.48 217.641C188.925 211.437 185.504 205.628 184.767 199.447C184.598 198.516 184.669 197.557 184.972 196.661C185.457 195.48 186.586 194.719 187.627 193.987C202.619 183.432 210.659 163.679 207.344 145.533C205.087 133.171 198.07 120.88 201.467 108.784C203.344 102.102 208.18 96.6886 210.893 90.3071C213.759 83.4915 214.116 75.8653 211.899 68.8073C210.349 63.9311 207.542 59.0609 208.507 54.049C210.209 45.1468 221.956 42.3073 226.394 34.4205C229.686 28.5526 227.739 20.2526 222.184 16.5217" fill="black"/>
<path d="M224.523 23.7752C224.318 20.9985 223.204 18.3683 221.355 16.2956C219.505 14.2228 217.025 12.8244 214.302 12.3188C210.641 11.731 206.554 12.7714 203.408 10.7905C201.987 9.89117 200.97 8.48631 199.824 7.26367C195.333 2.43777 188.591 0.209974 182.019 0.0159975C175.447 -0.177979 168.968 1.42086 162.653 3.24894C150.046 6.89923 136.726 12.2542 130.02 23.5871C119.822 40.8392 129.23 64.0929 121.167 82.4501C117.659 90.4678 110.969 97.016 108.794 105.504C105.871 116.843 111.636 128.346 116.074 139.174C120.055 148.885 123.079 158.965 125.102 169.269C126.886 178.369 127.88 187.826 125.868 196.896C124.985 200.864 123.529 204.902 124.313 208.888C125.482 214.918 131.283 218.722 136.557 221.819L137.931 222.63C145.532 227.098 153.35 231.659 162.057 232.764C167.465 233.446 173.166 232.694 177.844 229.913C182.522 227.133 186.083 222.172 186.48 216.711C186.925 210.533 183.504 204.749 182.767 198.595C182.598 197.668 182.669 196.713 182.972 195.821C183.457 194.645 184.586 193.887 185.627 193.158C200.619 182.648 208.659 162.98 205.344 144.911C203.087 132.602 196.07 120.364 199.467 108.32C201.344 101.666 206.18 96.2754 208.893 89.9212C211.759 83.1347 212.116 75.5411 209.899 68.5132C208.349 63.6579 205.542 58.8085 206.507 53.818C208.209 44.9539 219.956 42.1265 224.394 34.2734C227.686 28.4306 225.739 20.166 220.184 16.4511" fill="#B96B6B"/>
<path d="M341.181 367H279.819C277.71 367 276 368.93 276 371.31V373.69C276 376.07 277.71 378 279.819 378H341.181C343.29 378 345 376.07 345 373.69V371.31C345 368.93 343.29 367 341.181 367Z" fill="#535461"/>
<g opacity="0.7">
<path opacity="0.7" d="M473.307 258.918H334.354C325.154 258.918 317.697 266.376 317.697 275.575V361.375C317.697 370.575 325.154 378.032 334.354 378.032H473.307C482.506 378.032 489.964 370.575 489.964 361.375V275.575C489.964 266.376 482.506 258.918 473.307 258.918Z" fill="url(#paint0_linear)"/>
</g>
<path d="M469.079 260H336.921C328.128 260 321 267.159 321 275.99V362.01C321 370.841 328.128 378 336.921 378H469.079C477.872 378 485 370.841 485 362.01V275.99C485 267.159 477.872 260 469.079 260Z" fill="#3E3F49"/>
<path d="M470.273 260H339.727C331.041 260 324 267.159 324 275.99V362.01C324 370.841 331.041 378 339.727 378H470.273C478.959 378 486 370.841 486 362.01V275.99C486 267.159 478.959 260 470.273 260Z" fill="#535461"/>
<path d="M412.5 324C414.985 324 417 321.761 417 319C417 316.239 414.985 314 412.5 314C410.015 314 408 316.239 408 319C408 321.761 410.015 324 412.5 324Z" fill="#E0E0E0"/>
<path d="M130.768 371.055C130.768 371.055 121.321 367.917 116.775 376.078C115.576 378.291 114.966 380.765 115.001 383.27C115.037 385.776 115.717 388.232 116.978 390.411C119.952 395.702 126.116 402.574 137.8 401.962C147.688 401.443 150.978 394.046 151.871 387.162C152.213 384.581 151.873 381.957 150.885 379.542C149.897 377.126 148.293 375 146.226 373.367C144.16 371.733 141.7 370.648 139.083 370.213C136.466 369.779 133.779 370.011 131.28 370.886L130.768 371.055Z" fill="#FC5151"/>
<path opacity="0.1" d="M118.919 391.279C117.672 388.909 117.001 386.237 116.966 383.512C116.931 380.786 117.534 378.096 118.719 375.689C123.212 366.806 132.55 370.226 132.55 370.226L133.027 370.042C136.587 368.652 140.501 368.747 144 370.308C142.069 369.068 139.907 368.305 137.67 368.074C135.433 367.844 133.176 368.152 131.063 368.976L130.586 369.16C130.586 369.16 121.248 365.746 116.755 374.623C115.57 377.03 114.966 379.72 115.001 382.446C115.036 385.171 115.708 387.843 116.955 390.213C118.901 394.02 122.2 398.532 127.54 401C123.896 398.672 120.914 395.31 118.919 391.279Z" fill="white"/>
<path opacity="0.2" d="M126 375C126 375 129.211 379.5 137 375Z" fill="black"/>
<path d="M126 355C126 355 131.264 370.853 130.826 375L135 374.513C135 374.513 127.977 360.592 129.736 355H126Z" fill="#6A4102"/>
<path opacity="0.2" d="M126 355C126 355 131.264 370.853 130.826 375L135 374.513C135 374.513 127.977 360.592 129.736 355H126Z" fill="black"/>
<path d="M150 357.286C150 357.286 140.329 352.721 135.994 356.493C131.658 360.266 131 369.908 131 369.908C131 369.908 146.779 371.909 150 357.286Z" fill="#04CD00"/>
<path opacity="0.1" d="M150 357.286C150 357.286 140.329 352.721 135.994 356.493C131.658 360.266 131 369.908 131 369.908C131 369.908 146.779 371.909 150 357.286Z" fill="white"/>
<path d="M131 368C131 368 133.54 357.358 150 356" stroke="#007913" stroke-miterlimit="10"/>
<defs>
<linearGradient id="paint0_linear" x1="403.833" y1="378.026" x2="403.833" y2="258.918" gradientUnits="userSpaceOnUse">
<stop stop-color="#808080" stop-opacity="0.25"/>
<stop offset="0.54" stop-color="#808080" stop-opacity="0.12"/>
<stop offset="1" stop-color="#808080" stop-opacity="0.1"/>
</linearGradient>
</defs>
</svg>
