<svg className='loadingImage' width="113" height="198" viewBox="0 0 113 198" fill="none" xmlns="http://www.w3.org/2000/svg">
<path className='heart1' d="M49.0219 162.926C47.9351 162 46.6434 161.265 45.2207 160.763C43.7981 160.261 42.2724 160.002 40.7313 160C39.1901 159.998 37.6637 160.254 36.2394 160.753C34.8152 161.252 33.5211 161.984 32.4314 162.907C31.3416 163.83 30.4776 164.927 29.8888 166.133C29.3 167.34 28.9979 168.633 29 169.939C29.0021 171.245 29.3082 172.537 29.9009 173.743C30.4935 174.948 31.3611 176.042 32.4538 176.963L49.0219 191L65.59 176.963C67.7777 175.1 69.004 172.578 69 169.95C68.996 167.322 67.762 164.803 65.5686 162.944C63.3753 161.086 60.4016 160.041 57.2997 160.037C54.1978 160.034 51.2209 161.073 49.0219 162.926V162.926Z" fill="#FF6584"/>
<path className='heart2' d="M93.0219 111.115C91.9351 110.129 90.6434 109.347 89.2207 108.813C87.7981 108.278 86.2724 108.002 84.7313 108C83.1901 107.998 81.6637 108.271 80.2394 108.802C78.8152 109.333 77.5211 110.112 76.4314 111.095C75.3416 112.078 74.4776 113.245 73.8888 114.529C73.3 115.814 72.9979 117.19 73 118.58C73.0021 119.97 73.3082 121.346 73.9009 122.629C74.4935 123.912 75.3611 125.077 76.4538 126.057L93.0219 141L109.59 126.057C111.778 124.074 113.004 121.389 113 118.592C112.996 115.794 111.762 113.112 109.569 111.134C107.375 109.156 104.402 108.043 101.3 108.04C98.1978 108.036 95.2209 109.142 93.0219 111.115V111.115Z" fill="#FF6584"/>
<path className='heart3' d="M29.5 63.4162C27.8961 62.0167 25.9914 60.9064 23.895 60.1487C21.7985 59.3909 19.5513 59.0006 17.2816 59C15.012 58.9994 12.7644 59.3885 10.6674 60.1452C8.57037 60.9018 6.66499 62.0111 5.06011 63.4097C3.45523 64.8083 2.18232 66.4688 1.31408 68.2962C0.445845 70.1237 -0.000687619 72.0823 7.94774e-07 74.0602C0.000689208 76.0381 0.448557 77.9965 1.31807 79.8235C2.18758 81.6505 3.46169 83.3103 5.06754 84.7081L29.5 106L53.9325 84.7081C55.5383 83.3103 56.8124 81.6505 57.6819 79.8235C58.5514 77.9965 58.9993 76.0381 59 74.0602C59.0007 72.0823 58.5542 70.1237 57.6859 68.2962C56.8177 66.4688 55.5448 64.8083 53.9399 63.4097C52.335 62.0111 50.4296 60.9018 48.3326 60.1452C46.2356 59.3885 43.988 58.9994 41.7184 59C39.4487 59.0006 37.2015 59.3909 35.105 60.1487C33.0085 60.9064 31.1039 62.0167 29.5 63.4162Z" fill="#FF6584"/>
</svg>
