<svg width="600" height="500" viewBox="0 0 298 193" fill="none" xmlns="http://www.w3.org/2000/svg">
<path d="M82.7687 193C128.189 193 165.01 191.201 165.01 188.983C165.01 186.764 128.189 184.965 82.7687 184.965C37.3484 184.965 0.527908 186.764 0.527908 188.983C0.527908 191.201 37.3484 193 82.7687 193Z" fill="#D0CDE1"/>
<path d="M125.564 26.5655L127.052 23.8872L119.61 22.3568L118.865 26.1829L119.982 29.2438L125.564 26.5655Z" fill="#0D6FB4"/>
<path opacity="0.2" d="M125.564 26.5655L127.052 23.8872L119.61 22.3568L118.865 26.1829L119.982 29.2438L125.564 26.5655Z" fill="black"/>
<path d="M121.284 24.8436C126.628 24.8436 130.96 20.3898 130.96 14.8958C130.96 9.40176 126.628 4.94797 121.284 4.94797C115.941 4.94797 111.609 9.40176 111.609 14.8958C111.609 20.3898 115.941 24.8436 121.284 24.8436Z" fill="#FFB8B8"/>
<path d="M113.097 14.896L105.283 28.2873L116.819 35.1742L122.773 21.0177L113.097 14.896Z" fill="#FFB8B8"/>
<path d="M112.353 30.5827L102.306 26.374C102.306 26.374 87.0482 29.0523 85.5597 34.0262C84.0712 39.0001 84.0712 79.174 84.0712 79.174C84.0712 79.174 80.3499 89.1218 85.5597 89.5044C85.5597 89.5044 84.0712 91.8001 85.5597 92.1827C87.0482 92.5653 102.306 92.1827 108.26 94.0957C114.214 96.0088 126.122 97.5392 126.122 95.6261V92.1827C126.122 92.1827 128.727 89.5044 127.238 84.9131C125.75 80.3218 123.889 70.374 123.889 70.374C123.889 70.374 135.053 45.1218 133.937 42.061C132.82 39.0001 119.19 29.5353 119.19 29.5353L112.353 30.5827Z" fill="#0D6FB4"/>
<path d="M89.281 79.1742L89.6532 82.235L94.863 75.7307H93.0023L89.281 79.1742Z" fill="#FFB8B8"/>
<path d="M112.353 30.5827L101.561 27.9045C101.561 27.9045 99.3285 25.9914 99.3285 23.6958C99.3285 21.4001 102.678 17.9567 104.91 15.661C105.105 15.4561 105.338 15.2938 105.595 15.184C105.852 15.0741 106.128 15.019 106.406 15.022C108.617 15.0029 111.296 17.9834 111.296 17.9834L108.323 23.0836L108.189 23.3093L112.353 30.5827Z" fill="#0D6FB4"/>
<path d="M120.671 26.0139L127.052 23.8871C127.052 23.8871 129.099 32.1132 126.866 32.4958C124.633 32.8784 112.353 31.7306 112.353 31.7306L120.671 26.0139Z" fill="#0D6FB4"/>
<path d="M86.304 90.2696L81.4663 118.583C81.4663 118.583 79.6056 122.026 80.3499 123.557C81.0941 125.087 81.4663 125.087 80.3499 125.852C79.2335 126.617 77.745 125.852 78.1171 127.765C78.3401 128.9 78.4646 130.052 78.4892 131.209L68.0696 167.939C68.0696 167.939 61.3712 171 66.2089 172.913C71.0466 174.826 75.8843 176.357 77.0007 174.444C78.1171 172.53 77.0007 170.235 77.0007 170.235L94.1187 128.148C94.1187 128.148 96.7236 124.322 96.7236 122.026C96.7236 119.731 105.283 103.278 105.283 103.278C105.283 103.278 105.655 119.731 106.027 120.878C106.399 122.026 105.283 124.322 105.283 125.852C105.283 127.383 104.538 127.383 105.283 128.148C106.027 128.913 106.027 137.713 106.027 137.713C106.027 137.713 101.561 171.765 104.166 172.148C106.771 172.53 114.214 171.765 114.214 170.235C114.214 168.704 113.097 168.322 113.097 168.322L117.935 139.244C117.935 139.244 117.563 137.33 118.307 135.8C119.051 134.27 119.051 134.27 119.051 133.504C119.051 132.739 118.679 132.357 119.051 131.974C119.295 131.644 119.425 131.24 119.424 130.826C119.424 130.826 118.679 128.531 119.051 128.148C119.424 127.765 127.61 99.0696 125.006 95.6262C122.401 92.1827 86.304 90.2696 86.304 90.2696Z" fill="#2F2E41"/>
<path d="M104.538 171L101.933 177.122C101.933 177.122 95.9793 184.009 100.445 185.539C104.91 187.07 106.399 186.687 106.399 186.687C106.399 186.687 108.26 187.07 108.26 187.835C108.26 188.6 123.145 194.339 124.261 189.365C125.378 184.391 112.725 175.209 112.725 175.209V170.617L104.538 171Z" fill="#2F2E41"/>
<path d="M75.8342 173.834L76.3976 180.49C76.3976 180.49 79.8963 188.974 75.1892 188.955C70.4821 188.937 69.1908 188.085 69.1908 188.085C69.1908 188.085 67.3089 187.835 67.0708 188.56C66.8328 189.285 50.9441 189.827 51.4339 184.748C51.9236 179.668 66.7681 175.129 66.7681 175.129L68.1965 170.779L75.8342 173.834Z" fill="#2F2E41"/>
<path d="M111.86 17.619C112.458 17.5778 112.857 16.908 113.022 16.2708C113.187 15.6335 113.229 14.9353 113.567 14.3877C114.492 12.8872 116.898 13.4933 117.875 12.0335C118.475 11.1358 118.35 9.67391 119.217 9.10268C119.765 8.74196 120.463 8.92774 121.066 9.15436C123.405 10.0395 125.564 11.3619 127.435 13.0546L128.213 12.4041L129.183 14.3992C129.559 13.9326 130.285 14.2943 130.601 14.813C130.917 15.3317 131.07 15.9946 131.52 16.3724C132.238 16.9745 133.359 16.4645 133.794 15.5914C134.229 14.7182 134.157 13.6508 134.006 12.6678C133.631 10.2051 132.831 7.8312 131.644 5.65768L132.532 5.10987L131.384 4.94129L131.823 3.91637L130.62 3.90193L131.095 3.02581C129.479 3.59622 127.808 2.55147 126.264 1.77259C123.681 0.469761 120.775 -0.155468 117.971 0.328528C116.534 0.568391 115.162 1.11333 113.941 1.92863C112.72 2.74394 111.678 3.81173 110.881 5.06397C109.658 7.04053 108.952 9.91065 109.563 12.2777C110.119 14.4292 112.544 14.7641 111.86 17.619Z" fill="#2F2E41"/>
<path d="M87.7925 32.4957C87.7925 32.4957 85.5597 32.1131 84.0712 35.174C82.5827 38.2349 71.4188 62.7218 77.0007 70.374C82.5827 78.0262 87.7925 80.3218 87.7925 80.3218L88.9089 80.7045L94.4909 74.5827L92.6302 71.9044C92.6302 71.9044 92.6302 69.2262 91.1417 68.8436C89.6532 68.461 89.6532 69.6088 89.281 68.0784C88.9089 66.5479 90.7696 67.6958 88.9089 66.1653C87.0482 64.6349 88.5368 63.8697 88.5368 63.8697L87.7925 32.4957Z" fill="#0D6FB4"/>
<path d="M127.238 83.5742L126.866 86.635L121.656 80.1307H123.517L127.238 83.5742Z" fill="#FFB8B8"/>
<path d="M126.68 40.7218C126.68 40.7218 131.89 38.0436 133.378 41.1044C134.867 44.1653 145.101 67.1218 139.519 74.774C133.937 82.4262 128.727 84.7218 128.727 84.7218L127.61 85.1044L122.028 78.9827L123.889 76.3044C123.889 76.3044 123.889 73.6262 125.378 73.2436C126.866 72.861 126.866 74.0088 127.238 72.4784C127.61 70.9479 125.75 72.0958 127.61 70.5653C129.471 69.0349 127.983 68.2697 127.983 68.2697L126.68 40.7218Z" fill="#0D6FB4"/>
<path opacity="0.2" d="M91.3277 47.609L87.2343 64.4437L92.072 70.5655L89.8392 62.9133L91.3277 47.609Z" fill="black"/>
<path opacity="0.2" d="M111.296 17.9834L108.323 23.0836C106.455 22.4179 106.299 17.9605 106.406 15.022C108.617 15.0029 111.296 17.9834 111.296 17.9834Z" fill="black"/>
<path d="M298 50.0579H150.357V127.345H298V50.0579Z" fill="#3F3D56"/>
<path d="M192.094 76.0822H177.141V77.3633H192.094V76.0822Z" fill="#0D6FB4"/>
<path d="M212.03 76.0822H197.078V77.3633H212.03V76.0822Z" fill="#0D6FB4"/>
<path d="M240.999 87.9324H226.047V89.2134H240.999V87.9324Z" fill="#0D6FB4"/>
<path d="M261.247 87.9324H246.295V89.2134H261.247V87.9324Z" fill="#0D6FB4"/>
<path d="M261.247 76.0822H217.325V77.3633H261.247V76.0822Z" fill="#0D6FB4"/>
<path d="M221.063 87.9324H177.141V89.2134H221.063V87.9324Z" fill="#0D6FB4"/>
<path d="M221.063 99.7825H177.141V101.064H221.063V99.7825Z" fill="#0D6FB4"/>
<path d="M261.247 99.7825H230.72V101.064H261.247V99.7825Z" fill="#0D6FB4"/>
<path d="M172.939 81.4905L167.678 76.0823L172.939 70.6738L173.991 71.7558L169.783 76.0823L173.991 80.4084L172.939 81.4905Z" fill="#0D6FB4"/>
<path d="M275.418 106.472L274.365 105.39L278.573 101.063L274.365 96.737L275.418 95.655L280.678 101.063L275.418 106.472Z" fill="#0D6FB4"/>
<path d="M269.88 95.3971L266.765 105.966L268.189 106.41L271.304 95.841L269.88 95.3971Z" fill="#0D6FB4"/>
</svg>
