<svg width="538" height="449" viewBox="0 0 538 449" fill="none" xmlns="http://www.w3.org/2000/svg">
<path opacity="0.1" d="M382 449C412.376 449 437 446.538 437 443.5C437 440.462 412.376 438 382 438C351.624 438 327 440.462 327 443.5C327 446.538 351.624 449 382 449Z" fill="#2F409C"/>
<path opacity="0.1" d="M235.55 6.93852C259.758 -2.06382 289.228 5.67851 314.395 16.9703C393.438 52.4435 451.022 119.781 496.774 188.385C513.339 213.226 529.074 239.16 535.301 266.891C547.981 323.334 514.909 381.766 458.664 402.243C439.537 409.213 418.524 412.071 397.478 413.663C360.055 416.5 321.308 415.374 284.185 404.87C257.711 397.364 232.667 385.289 208.647 371.949C141.566 334.674 80.3052 286.269 36.1937 227.139C16.847 201.205 0.479977 171.967 0.00836824 142.043C-0.463241 112.12 19.0282 82.051 51.0976 76.9627C64.3562 74.8609 78.3812 77.0485 92.0633 79.3004C112.208 82.6193 132.627 86.1098 152.542 84.6621C173.116 83.1555 199.874 75.1129 203.626 55.4622C207.597 34.3638 211.375 15.9301 235.55 6.93852Z" fill="#2F409C"/>
<path d="M436.995 279.752C436.658 277.866 436.464 275.957 436.413 274.042C436.413 271.744 433.299 269.708 433.299 269.708C433.299 269.708 431.376 265.246 430.094 264.587C428.812 263.928 424.854 258.089 424.854 258.089C424.809 256.937 424.391 255.831 423.663 254.939C422.478 253.376 421.395 251.737 420.421 250.032C419.887 249.379 420.154 248.918 419.353 245.109C419.31 244.911 419.262 244.718 419.203 244.536C419.203 244.45 419.15 244.375 419.118 244.29C419.968 243.434 420.561 242.356 420.828 241.178C421.096 240.001 421.027 238.771 420.63 237.631C420.486 237.178 420.224 236.771 419.871 236.452C418.968 235.713 417.526 236.019 416.597 235.317L417.585 230.935C417.82 229.864 417.943 228.508 417.008 227.93C416.658 227.763 416.288 227.639 415.908 227.56C414.306 227.024 413.376 225.326 412.96 223.692C412.559 222.119 412.451 220.484 412.639 218.871C412.821 217.318 413.275 215.807 413.44 214.248C413.742 211.365 413.05 208.465 411.48 206.031C410.87 204.98 409.97 204.129 408.89 203.577C407.902 203.133 406.753 203.042 405.829 202.506C403.842 201.236 403.944 198.221 402.358 196.49C400.771 194.76 397.962 194.765 395.649 195.36C393.336 195.955 391.034 196.967 388.663 196.715C387.135 196.544 385.704 195.847 384.171 195.687C383.732 195.645 383.29 195.665 382.857 195.746V195.697C381.725 195.901 380.683 196.533 380.416 197.61C380.356 197.866 380.331 198.129 380.341 198.392C380.341 199.019 380.491 199.672 380.502 200.272C380.521 200.511 380.493 200.75 380.419 200.978C380.345 201.205 380.226 201.415 380.069 201.595C379.765 201.922 379.316 202.094 379.001 202.431C378.872 202.56 378.771 202.714 378.704 202.884C378.637 203.053 378.605 203.234 378.611 203.417C378.611 204.37 379.797 205.211 380.592 205.597H380.624C380.411 205.811 380.197 206.036 380 206.267C377.718 208.851 376.46 212.184 376.464 215.636C376.483 218.424 377.314 221.145 378.855 223.465C380.396 225.786 382.58 227.604 385.138 228.696L385.026 229.044C384.801 229.733 384.539 230.409 384.24 231.069C383.688 230.882 383.101 230.819 382.522 230.884C381.942 230.949 381.384 231.14 380.886 231.444C379.359 232.515 376.373 232.429 375.577 232.231C374.781 232.033 366.497 230.983 365.829 231.246C365.162 231.508 363.843 230.33 362.983 231.905C362.123 233.479 361.722 234.331 360.846 234.728C359.97 235.124 358.459 236.367 358.662 236.629C358.865 236.892 356.472 238.467 356.472 238.467C356.472 238.467 354.415 240.609 353.224 240.893C352.033 241.177 349.512 242.8 349.512 242.8L346.591 245.093C346.591 245.093 344.406 245.425 345.068 243.915C345.731 242.404 343.872 240.502 343.872 240.502C343.872 240.502 340.16 232.954 340.16 231.396C340.16 229.837 337.11 223.189 337.11 223.189L336.736 223.151L336.565 222.664C336.005 221.084 335.278 219.144 334.723 218.009C333.654 215.839 332.997 215.614 332.997 215.614C332.997 215.614 320.136 205.929 311.782 208.881C303.429 211.832 327.031 220.628 329.152 221.55C329.894 221.871 330.428 222.91 330.802 224.126C328.921 225.036 327.337 226.465 326.236 228.246C326.236 228.246 331.342 239.597 331.475 242.42C331.609 245.243 334.99 253.134 334.99 253.134C334.99 253.134 336.25 258.978 343.076 258.646C343.076 258.646 352.493 260.382 354.549 258.646C356.605 256.91 358.459 255.55 359.457 255.352C360.192 255.109 360.838 254.652 361.311 254.039C361.311 254.039 358.197 273.726 356.669 275.434C355.142 277.143 341.645 299.246 346.489 303.199C350.326 306.179 354.381 308.865 358.619 311.234C359.03 311.438 360.264 309.376 362.027 307.913C362.027 308.283 362.027 308.658 362.027 309.054C362.059 316.918 363.095 328.875 364.526 331.553C366.663 335.49 365.787 343.102 365.787 343.102C366.91 343.633 368.13 343.926 369.371 343.965C369.435 344.222 369.51 344.501 369.579 344.768C370.749 349.199 372.645 356.05 373.611 357.871C375.07 360.63 376.127 369.362 376.127 369.362C376.127 369.362 376.992 377.933 376.661 379.138C376.533 379.593 377.094 383.161 377.975 387.709C377.441 393.864 376.426 405.73 376.255 410.02C376.255 410.101 376.255 410.181 376.255 410.256V410.331C376.258 410.379 376.258 410.428 376.255 410.476C376.255 410.572 376.255 410.658 376.255 410.738C376.239 411.008 376.25 411.279 376.287 411.547C376.354 411.956 376.322 412.374 376.197 412.769C375.819 413.955 375.338 415.106 374.76 416.208C374.516 416.749 374.302 417.303 374.119 417.868C373.585 418.104 372.933 418.677 372.57 420.075C371.908 422.636 370.914 429.718 370.914 429.718C370.914 429.718 370.514 434.051 369.723 435.037C368.933 436.023 368.121 442.188 373.766 442.976C379.412 443.763 381.853 439.976 381.853 439.976L381.655 422.791V422.759C381.769 422.615 381.868 422.458 381.949 422.293V422.25C381.986 422.17 382.029 422.084 382.067 421.988L382.115 421.859L382.2 421.65C382.197 421.625 382.197 421.6 382.2 421.575C382.748 419.929 382.912 418.179 382.681 416.459V416.374V416.24C382.681 416.197 382.681 416.149 382.681 416.106V415.838C382.681 415.806 382.681 415.768 382.681 415.736C382.681 415.622 382.691 415.504 382.713 415.383C382.713 415.383 382.713 415.34 382.713 415.318L382.745 415.109V415.018C382.745 414.949 382.745 414.879 382.788 414.804C382.786 414.786 382.786 414.768 382.788 414.751C382.841 414.504 382.905 414.215 382.975 413.979V413.92L383.055 413.663C383.135 413.39 383.226 413.127 383.322 412.838V412.785C383.322 412.699 383.38 412.613 383.413 412.533V412.501C383.509 412.238 383.61 411.965 383.706 411.74L383.733 411.67L383.818 411.456L383.845 411.392L384.048 410.915L385.613 415.763C385.613 415.763 386.478 419.374 386.014 420.225C385.549 421.077 386.548 424.623 387.205 424.688L386.59 429.15C386.258 431.61 386.061 434.087 385.998 436.569C385.955 436.853 385.912 437.105 385.88 437.276C385.453 439.564 386.478 443.11 386.478 443.11C391.713 449.318 397.951 443.592 397.951 443.592C397.951 443.592 398.677 440.308 397.951 439.655C397.225 439.001 397.55 436.633 397.55 436.633C397.55 436.633 397.882 430.789 397.946 426.525C398.01 422.261 394.469 418.49 394.469 418.49L394.271 418.666C393.625 416.995 392.888 415.045 393.043 414.172C393.31 412.661 392.311 396.714 392.311 396.714C392.68 392.439 392.758 388.143 392.546 383.858V383.858C392.631 383.134 392.711 382.422 392.792 381.715C393.192 378.286 393.518 375.356 393.646 373.819V373.637C393.678 373.224 393.694 372.929 393.689 372.79C393.689 372.255 393.689 371.644 393.742 370.974C393.865 369.131 394.154 367.08 394.154 367.08L395.542 358.611C395.542 358.611 396.61 354.475 398.133 352.182L398.314 351.893C398.373 351.791 398.432 351.679 398.496 351.561L398.523 351.513C398.581 351.4 398.645 351.282 398.704 351.159L398.731 351.111C398.945 350.688 399.174 350.2 399.415 349.665C399.415 349.622 399.452 349.584 399.468 349.541L399.65 349.134C399.65 349.081 399.692 349.027 399.719 348.974C399.746 348.92 399.831 348.7 399.89 348.566C399.916 348.512 399.939 348.457 399.959 348.4C400.029 348.24 400.104 348.074 400.173 347.902L400.274 347.656C400.323 347.533 400.376 347.409 400.429 347.286L400.558 346.959C400.595 346.879 400.627 346.799 400.659 346.718L400.803 346.349C400.803 346.295 400.851 346.236 400.873 346.183C401.252 345.234 401.615 344.297 401.941 343.445C402.042 343.177 402.144 342.91 402.235 342.674C405.632 342.883 407.939 343.07 407.939 343.07C407.939 343.07 409.007 335.394 408.665 330.342C408.441 326.893 409.082 322.553 409.504 320.164C409.552 319.902 409.595 319.666 409.637 319.452L409.728 319.527C411.389 320.839 412.58 316.506 412.58 316.506C412.58 316.506 412.132 312.461 411.512 307.56L411.448 307.072C412.405 307.277 413.374 307.425 414.348 307.517C414.348 307.517 414.882 307.469 415.614 307.377C417.638 308.553 419.775 309.522 421.992 310.27L425.522 303.735C426.186 302.38 426.963 301.084 427.845 299.862C428.914 298.549 432.685 294.35 432.62 293.562C432.556 292.775 433.881 288.243 435.206 286.207C436.53 284.172 437.059 280.079 436.995 279.752ZM422.275 284.739C420.881 285.329 419.556 288.612 419.492 289.598C419.428 290.584 417.964 294.912 416.442 295.437C415.037 295.919 412.356 298.394 411.929 298.79C411.491 298.828 410.994 298.887 410.476 298.973C409.894 294.832 409.317 291.403 408.949 290.712C407.88 288.741 410.118 282.441 410.118 282.441C410.118 282.441 410.337 276.077 411.721 274.567C413.104 273.056 412.789 269.247 412.789 269.247C412.789 269.247 413.12 267.672 413.253 266.955C413.387 266.237 415.224 266.955 415.24 266.955C415.24 266.955 418.819 268.92 419.353 271.872C419.887 274.824 423.797 279.945 423.797 279.945C423.797 279.945 423.199 281.718 423.797 282.623C424.395 283.529 423.669 284.15 422.275 284.739V284.739Z" fill="url(#paint0_linear)"/>
<path d="M326 228.643C327.121 227.022 328.763 225.727 330.719 224.919C332.676 224.111 334.86 223.827 337 224.102V231H332.22L328.481 230.171L326 228.643Z" fill="#4C4981"/>
<path opacity="0.1" d="M326 228.643C327.121 227.022 328.763 225.727 330.719 224.919C332.676 224.111 334.86 223.827 337 224.102V231H332.22L328.481 230.171L326 228.643Z" fill="black"/>
<path d="M337 225.979L331.317 230C331.317 230 331.269 229.197 331.125 228.097C330.842 226.016 330.207 222.895 328.836 222.291C326.75 221.364 303.522 212.534 311.761 209.564C320 206.593 332.641 216.329 332.641 216.329C332.641 216.329 333.292 216.555 334.332 218.728C334.866 219.871 335.597 221.817 336.146 223.407C336.653 224.841 337 225.979 337 225.979Z" fill="#AE6E79"/>
<path d="M382.548 232.291L383.191 232L385 233.978L383.521 237L381 236.032L381.585 233.616L382.548 232.291Z" fill="#4C4981"/>
<path d="M374.419 418.003C374.419 418.003 372.85 417.813 372.225 420.333C371.6 422.854 370.657 429.844 370.657 429.844C370.657 429.844 370.283 434.108 369.529 435.08C368.776 436.052 368.027 442.123 373.353 442.895C378.678 443.666 381 439.941 381 439.941L380.81 422.996L374.419 418.003Z" fill="#444053"/>
<path d="M393.347 419C393.347 419 396.752 422.69 396.69 426.874C396.627 431.059 396.305 436.799 396.305 436.799C396.305 436.799 395.992 439.124 396.69 439.767C397.388 440.41 396.69 443.635 396.69 443.635C396.69 443.635 390.702 449.259 385.671 443.161C385.671 443.161 384.693 439.677 385.099 437.432C385.505 435.186 386.64 425.093 386.64 425.093L393.347 419Z" fill="#444053"/>
<path d="M402 340.616C402 340.616 398.51 350.534 397.018 352.834C395.527 355.134 394.501 359.282 394.501 359.282L393.142 367.755C392.877 369.649 392.725 371.558 392.687 373.472C392.751 375.379 389.324 403.168 389.324 403.168L383.892 410.201C383.892 410.201 381.502 415.128 381.888 417.186C382.274 419.244 381.629 422.511 380.83 423.494C380.83 423.494 380.704 429.941 380.508 431.376C380.312 432.811 381.222 436.899 380.508 437.619C379.794 438.339 370.291 438.017 370.032 436.83C369.772 435.642 371.195 429.931 371.195 429.931L372.036 424.413C372.036 424.413 373.718 421.393 373.332 420.404C372.945 419.416 374.04 417.122 374.104 416.923C374.167 416.724 375.918 413.506 375.595 412.259C375.272 411.012 377.631 384.502 377.631 384.502L384.289 337L402 340.616Z" fill="#AE6E79"/>
<path opacity="0.1" d="M402 340.606C402 340.606 401.471 342.1 400.747 344.062C399.594 347.157 397.933 351.419 397.018 352.827C395.532 355.127 394.496 359.276 394.496 359.276L393.137 367.757C392.874 369.652 392.724 371.562 392.687 373.475C392.687 374.227 392.19 379.027 391.555 384.557C390.577 393.01 389.324 403.178 389.324 403.178L383.892 410.213C383.892 410.213 383.617 410.751 383.274 411.6C382.592 413.212 381.629 415.829 381.888 417.178C382.274 419.215 381.629 422.499 380.83 423.488C380.83 423.488 380.698 429.937 380.508 431.372C380.318 432.807 381.222 436.891 380.508 437.617C379.794 438.342 370.291 438.014 370.032 436.832C369.772 435.65 371.195 429.931 371.195 429.931L372.036 424.407C372.036 424.407 373.718 421.386 373.326 420.398C372.935 419.409 374.04 417.114 374.104 416.915C374.167 416.716 375.918 413.497 375.595 412.25C375.346 411.299 376.653 395.73 377.261 388.346C377.467 386.024 377.599 384.514 377.599 384.514L383.327 343.637L383.792 340.343L384.257 337L402 340.606Z" fill="black"/>
<path d="M397 438.736C397.06 439.458 387.579 440.507 386.224 439.72C384.87 438.934 386.224 429.187 386.224 429.187L386.842 424.741C386.181 424.672 385.176 421.141 385.64 420.29C386.104 419.44 385.241 415.845 385.241 415.845L383.669 411.03L382.707 408.082C381.145 404.707 378.884 395.077 377.481 387.887C376.596 383.372 376.034 379.814 376.159 379.36C376.492 378.183 375.613 369.612 375.613 369.612C375.613 369.612 374.521 360.908 373.079 358.164C372.101 356.345 370.195 349.513 369.016 345.105C368.415 342.842 368 341.216 368 341.216C368 341.216 378.093 340.387 384.215 340.098C387.027 339.964 389.004 339.948 388.775 340.173C388.546 340.397 388.485 341.596 388.496 343.329C388.524 347.818 389.163 355.714 389.84 357.838C390.774 360.78 391.708 369.607 391.309 370.463C390.91 371.319 391.041 377.006 391.041 377.006C391.729 379.316 392.126 381.7 392.221 384.105C392.435 388.365 392.358 392.635 391.992 396.885C391.992 396.885 392.991 412.785 392.723 414.288C392.456 415.791 394.859 420.504 394.859 421.419C394.859 422.334 395.525 428.55 395.525 428.55C395.525 428.55 396.956 438.019 397 438.736Z" fill="#AE6E79"/>
<path d="M402 247.267L400.855 248.463L400.108 249.243L395.747 253.773L384.479 255L378.483 253.451L377 253.067C377 253.067 377 250.159 377.267 246.672C377.649 242.2 378.559 236.769 380.734 235.289C381.823 234.466 382.693 233.402 383.269 232.187C383.704 231.349 384.069 230.479 384.359 229.585C384.403 229.469 384.436 229.358 384.474 229.242C384.964 227.681 385.318 226.083 385.531 224.465C385.531 224.465 386.971 223.696 388.971 222.8C394.188 220.446 403.199 217.196 400.065 224.465C399.604 225.529 399.211 226.62 398.887 227.731C398.838 227.894 398.795 228.057 398.756 228.215C397.71 232.261 398.402 234.715 399.182 236.069C399.313 236.303 399.465 236.527 399.634 236.738C399.847 237.021 400.102 237.271 400.392 237.481L401.689 245.44L401.798 246.098L402 247.267Z" fill="#AE6E79"/>
<path opacity="0.1" d="M399.367 224.57C398.786 225.982 399.65 223.417 399.367 224.57C397.042 226.241 391.564 231 388.486 231C386.406 231 385.782 230.617 384 229.804C384.539 228.098 384.923 226.346 385.147 224.57C385.147 224.57 403.608 214.287 399.367 224.57Z" fill="black"/>
<path d="M405 216C404.997 219.458 403.67 222.794 401.273 225.364C398.876 227.934 395.579 229.557 392.017 229.921C391.517 229.968 391.011 230 390.5 230C387.632 230 384.829 229.179 382.444 227.641C380.06 226.102 378.201 223.916 377.104 221.358C376.006 218.799 375.719 215.984 376.279 213.269C376.838 210.553 378.219 208.058 380.247 206.101C382.275 204.143 384.858 202.809 387.671 202.269C390.484 201.729 393.399 202.006 396.049 203.066C398.698 204.125 400.963 205.92 402.556 208.222C404.15 210.524 405 213.231 405 216V216Z" fill="#AE6E79"/>
<path opacity="0.1" d="M407 279.334L404.927 284.644C404.927 284.644 403.242 284.714 400.613 284.794C391.738 285.073 372.184 285.427 371.311 283.187C371.116 282.619 371.012 282.024 371.006 281.424C370.891 278.01 372.511 272.77 372.511 272.77C372.511 272.77 373.444 262.283 373.444 261.828C373.444 261.372 372.642 254.026 372.642 254.026L374.246 248.131L378.713 245.05C378.713 245.05 380.715 248.067 381.915 248.324C383.115 248.582 384.718 250.034 384.718 250.034C384.718 250.034 388.651 252.391 389.922 251.079C391.193 249.766 401.06 244 401.06 244L406.264 249.637L407 279.334Z" fill="black"/>
<path d="M407 280.34L404.926 285.646C404.926 285.646 403.24 285.721 400.61 285.801H400.353C399.218 285.839 397.92 285.876 396.534 285.903C389.478 286.064 379.759 286.107 374.678 285.367C372.768 285.099 371.519 284.713 371.311 284.188C371.196 283.872 371.116 283.545 371.071 283.213C371.039 282.966 371.017 282.677 371.006 282.425C370.891 279.011 372.512 273.769 372.512 273.769C372.512 273.769 373.445 263.281 373.445 262.825C373.445 262.37 372.643 255.022 372.643 255.022L374.247 249.127L377.32 247.015L378.717 246.05C379.186 246.741 379.698 247.403 380.25 248.033C380.681 248.601 381.257 249.047 381.92 249.325C383.126 249.588 384.725 251.035 384.725 251.035C384.725 251.035 388.659 253.393 389.931 252.08C390.896 251.078 396.899 247.471 399.671 245.825C400.523 245.316 401.074 245 401.074 245L401.772 245.761L406.28 250.638L407 280.34Z" fill="white"/>
<path opacity="0.1" d="M337 225.73L331.196 230C331.196 230 331.147 229.147 331 227.98C333.866 226.709 335.61 223.899 336.112 223C336.646 224.522 337 225.73 337 225.73Z" fill="black"/>
<path d="M357.475 239.531L356.219 239.2C356.219 239.2 354.161 241.334 352.97 241.617C351.779 241.9 349.267 243.506 349.267 243.506L346.348 245.789C346.348 245.789 344.182 246.12 344.827 244.615C345.471 243.111 343.635 241.222 343.635 241.222C343.635 241.222 339.926 233.721 339.926 232.152C339.926 230.584 336.862 224 336.862 224C336.862 224 333.017 231.373 326 229.026C326 229.026 331.101 240.31 331.23 243.116C331.36 245.923 334.739 253.749 334.739 253.749C334.739 253.749 336.001 259.56 342.818 259.234C342.818 259.234 352.223 260.957 354.275 259.234C356.327 257.511 358.179 256.156 359.148 255.958C360.117 255.761 361 254.656 361 254.656V246.899L357.475 239.531Z" fill="#4C4981"/>
<path opacity="0.1" d="M346 247C346 247 347.743 252.419 346.627 253L346 247Z" fill="black"/>
<path opacity="0.1" d="M400 285.771C391.307 286.083 372.154 286.473 371.299 283.973C371.108 283.337 371.007 282.671 371 282L399.396 283.679L400 285.771Z" fill="black"/>
<path opacity="0.1" d="M402 340.448C402 340.448 401.469 341.873 400.743 343.743C397.161 343.533 392.418 343.313 387.913 343.282C386.321 343.282 384.761 343.282 383.286 343.333C380.156 343.425 377.45 343.671 375.725 344.143C373.545 344.791 371.266 345.075 368.987 344.983C368.403 342.816 368 341.258 368 341.258C368 341.258 377.805 340.464 383.753 340.187L384.22 337L402 340.448Z" fill="black"/>
<path d="M410 316.185L408.896 318.53C408.896 318.53 408.742 319.228 408.546 320.336C408.132 322.724 407.485 327.03 407.729 330.462C408.053 335.482 407.013 343.102 407.013 343.102C407.013 343.102 383.135 341.083 376.13 343.102C369.126 345.122 365.677 343.102 365.677 343.102C365.677 343.102 366.526 335.546 364.446 331.634C363.029 328.969 362.032 317.075 362 309.251C362 305.644 362.18 302.91 362.631 302.356C364.059 300.597 370.156 283 370.156 283L371.546 283.075L375.26 283.272L396.379 284.391L399.695 284.567L400.046 285.633L410 316.185Z" fill="#444053"/>
<path d="M420.803 308.796L421 311C421 311 410.486 307.39 411.02 302.953C411.553 298.516 411.02 299.017 411.02 299.017L419.469 299.77L420.803 308.796Z" fill="#4C4981"/>
<path opacity="0.1" d="M420.803 308.796L421 311C421 311 410.486 307.39 411.02 302.953C411.553 298.516 411.02 299.017 411.02 299.017L419.469 299.77L420.803 308.796Z" fill="black"/>
<path opacity="0.1" d="M352.506 248.405C353.519 249.16 354.713 249.706 356 250C355.627 249.929 355.281 249.777 354.993 249.558C354.283 249.116 353.608 248.635 352.923 248.166C352.37 247.786 351.68 247.155 351 247C351.445 247.513 351.95 247.984 352.506 248.405V248.405Z" fill="black"/>
<path opacity="0.1" d="M352.936 251.629C353.279 252.015 353.557 252.453 353.758 252.926C354.1 254.266 354.079 255.671 353.699 257L351.989 252.899C351.692 252.2 351.394 251.5 351.037 250.833C350.88 250.548 349.895 249.358 350.009 249.111C350.312 248.411 352.617 251.237 352.936 251.629Z" fill="black"/>
<path opacity="0.1" d="M399.877 273.728C401.047 273.561 402.141 272.955 403 272C401.235 272.263 399.562 273.086 397.823 273.516C396.21 273.96 394.518 273.775 393 272.989C394.999 274.146 397.747 274.185 399.877 273.728Z" fill="black"/>
<path opacity="0.1" d="M395 261.988C394.708 262.032 394.41 261.956 394.172 261.776C392.947 261.054 391.739 260.301 390.548 259.517C389.389 258.748 387.989 257.97 387 257C389.434 259.259 391.703 261.167 395 261.988Z" fill="black"/>
<path opacity="0.1" d="M398.909 275.987C399.662 276.035 400.417 275.949 401.154 275.732C401.901 275.515 402.56 274.909 403 274.038C402.733 273.952 402.453 274.014 402.218 274.211C399.941 275.552 397.44 275.971 395 275.42C396.17 276.119 397.669 275.979 398.909 275.987Z" fill="black"/>
<path opacity="0.1" d="M386 306.401C384.691 306.692 383.346 306.886 381.985 306.981C380.926 307.017 379.865 307.002 378.809 306.936L373.668 306.697L371.098 306.576C370.795 306.576 369.556 306.576 370.167 306.125C370.476 305.905 372.193 306.045 372.635 306.034C373.488 306.014 374.345 306.003 375.205 306C376.907 306 378.613 306 380.315 306.076C382.222 306.144 384.098 306.25 386 306.401Z" fill="black"/>
<path opacity="0.1" d="M380 308.792C379.11 308.732 377.962 309.592 377.046 309.779C376.02 309.976 374.987 310.041 373.955 309.975C371.914 309.895 369.897 309.226 368 308C371.997 308.332 376.003 308.528 380 308.792Z" fill="black"/>
<path opacity="0.1" d="M368.866 311.186C369.262 311.273 369.652 311.39 370.034 311.535C372.295 312.233 374.701 311.616 377 311C376.427 311.936 375.392 312.337 374.358 312.593C372.676 313.055 370.923 313.125 369.214 312.796C368.678 312.68 367.333 312.471 367.071 311.866C366.631 310.977 368.362 311.099 368.866 311.186Z" fill="black"/>
<path opacity="0.1" d="M381.447 315.905C382.14 316.011 382.825 316.148 383.497 316.316C386.1 316.801 388.801 316.135 391.415 315.687C394.558 315.151 397.78 314.927 401 315.021C400.425 315.021 399.509 315.399 398.945 315.526C398.205 315.695 397.454 315.851 396.704 315.991C395.229 316.262 393.733 316.484 392.226 316.645C389.184 316.975 386.105 317.075 383.036 316.945C381.633 316.887 379.2 316.994 378 316.464C379.037 316.001 380.248 315.805 381.447 315.905Z" fill="black"/>
<path opacity="0.1" d="M382.057 235.066C382.057 235.066 382.181 241.134 381.236 243.903C380.937 244.766 380.473 246.355 379.967 248.139C379.414 250.116 378.811 252.331 378.346 254.066C377.882 255.801 377.572 256.965 377.572 256.965C377.572 256.965 375.44 275.093 374.888 283.731C374.888 283.881 374.888 284.038 374.857 284.183C374.826 284.668 374.774 285.175 374.697 285.697C373.469 294.276 366.382 307.505 364.003 308.561C363.261 308.917 362.583 309.403 362 310C362 306.352 362.175 303.588 362.614 303.027C364.003 301.249 369.933 283.456 369.933 283.456L371.285 283.531C371.254 283.283 371.234 282.992 371.223 282.739C371.115 279.307 372.648 274.036 372.648 274.036C372.648 274.036 373.531 263.491 373.531 263.033C373.531 262.575 372.772 255.187 372.772 255.187L374.289 249.26L377.195 247.137C377.556 242.562 378.418 237.006 380.478 235.492C381.509 234.649 382.332 233.561 382.878 232.318C383.286 232.377 382.542 232 382.542 232L382.057 235.066Z" fill="black"/>
<path d="M384 231.212C383.444 231.023 382.853 230.959 382.27 231.025C381.686 231.09 381.125 231.283 380.626 231.59C379.088 232.672 376.09 232.58 375.289 232.385C374.487 232.191 366.157 231.125 365.476 231.39C364.795 231.655 363.475 230.466 362.609 232.055C361.742 233.645 361.344 234.5 360.477 234.894C359.61 235.289 358.073 236.549 358.296 236.814C358.52 237.079 356.116 238.664 356.116 238.664L360.979 254.346C360.979 254.346 357.844 274.181 356.312 275.901C354.78 277.62 341.179 299.905 346.047 303.875C349.901 306.881 353.98 309.592 358.247 311.986C358.793 312.251 360.711 308.682 363.377 307.557C366.043 306.432 374.313 291.55 374.825 283.087C375.338 274.624 377.693 255.779 377.693 255.779C377.693 255.779 380.56 245.461 381.558 242.681C382.555 239.902 382.425 233.813 382.425 233.813L384 231.212Z" fill="#4C4981"/>
<path opacity="0.1" d="M410 316.826L408.88 319.184C408.88 319.184 408.724 319.886 408.525 321C408.326 320.975 408.138 320.891 407.987 320.759C406.34 319.446 396.683 309.555 396.204 300.773C395.865 294.295 396.027 288.712 396.134 286.226C396.167 285.443 396.199 284.972 396.199 284.87C396.199 284.87 403.702 275.825 402.846 272.621C401.991 269.417 400.015 252.26 400.015 252.26L399.724 250.01L399.224 246.205L398.029 237L399.267 237.289C399.477 237.577 399.729 237.831 400.015 238.045L401.296 246.141L405.742 251.017L406.469 280.701L404.424 286.006C404.424 286.006 402.76 286.081 400.166 286.161H399.913L410 316.826Z" fill="black"/>
<path d="M413.969 267.214C413.969 267.214 412.176 266.491 412.051 267.214C411.925 267.937 411.6 269.502 411.6 269.502C411.6 269.502 411.919 273.306 410.551 274.811C409.183 276.317 408.979 282.671 408.979 282.671C408.979 282.671 406.819 288.961 407.841 290.927C408.213 291.64 408.79 295.214 409.367 299.5C409.734 302.179 410.095 305.12 410.415 307.81C410.997 312.696 411.432 316.741 411.432 316.741C411.432 316.741 410.273 321.065 408.669 319.752C407.065 318.439 397.661 308.549 397.2 299.768C396.885 293.601 397.011 288.243 397.116 285.602C397.158 284.482 397.2 283.85 397.2 283.85C397.2 283.85 404.507 274.806 403.674 271.597C402.84 268.387 400.916 251.237 400.916 251.237L400.581 248.585L400.219 245.735L400.135 245.108L398.977 236C399.181 236.048 406.373 237.709 407.322 238.679C408.271 239.649 414.137 241.036 414.137 241.036C415.022 241.282 415.826 241.765 416.466 242.436C417.105 243.107 417.558 243.941 417.775 244.851C417.833 245.033 417.875 245.226 417.916 245.424C418.687 249.228 418.441 249.684 418.965 250.343C419.489 251.002 413.969 267.214 413.969 267.214Z" fill="#4C4981"/>
<path opacity="0.1" d="M411 308C408.144 307.484 403.905 306.293 404.002 303.662C404.087 301.202 407.367 300.315 409.852 300C410.252 302.569 410.646 305.411 411 308Z" fill="black"/>
<path d="M418.983 306.659C418.872 306.893 418.429 307.095 417.797 307.275C416.315 307.622 414.809 307.864 413.291 308C413.291 308 403.868 307.264 404.001 303.062C404.101 300.047 408.358 299.246 410.747 299.066C411.276 299.018 411.807 298.996 412.338 299.001C412.338 299.001 419.388 305.798 418.983 306.659Z" fill="#AE6E79"/>
<path opacity="0.1" d="M418.983 306.405C418.869 306.631 418.414 306.826 417.765 307C415.243 303.875 411.725 299.865 410 299.512L410.524 299.064C411.067 299.017 411.612 298.996 412.157 299.001C412.157 299.001 419.398 305.572 418.983 306.405Z" fill="black"/>
<path d="M416.804 250L419.5 250.399C420.474 252.116 421.555 253.769 422.736 255.35C423.461 256.251 423.877 257.362 423.923 258.518C423.923 258.518 427.882 264.392 429.133 265.05C430.385 265.709 432.299 270.2 432.299 270.2C432.299 270.2 435.401 272.246 435.401 274.557C435.456 276.483 435.654 278.403 435.994 280.3C436.064 280.63 435.535 284.727 434.214 286.778C432.893 288.829 431.571 293.353 431.641 294.163C431.711 294.973 427.947 299.183 426.895 300.5C426.017 301.732 425.245 303.036 424.586 304.398L421.091 311C421.091 311 413.702 300.106 411 299.513C411 299.513 414.031 296.608 415.547 296.079C417.062 295.55 418.519 291.221 418.583 290.206C418.648 289.191 419.97 285.914 421.35 285.348C422.731 284.781 423.465 284.16 422.871 283.232C422.278 282.303 422.871 280.532 422.871 280.532C422.871 280.532 418.977 275.382 418.449 272.435C417.92 269.488 414.36 267.485 414.36 267.485L412.316 262.465L416.804 250Z" fill="#4C4981"/>
<path opacity="0.1" d="M426.532 274.733C428.065 273.65 429.994 273.039 432 273C430.715 273.185 429.363 273.422 428.421 274.172C428.051 274.497 427.719 274.851 427.429 275.229C427.108 275.613 424.493 278.393 424.105 277.953C423.457 277.309 426.005 275.108 426.532 274.733Z" fill="black"/>
<path opacity="0.1" d="M420 272C420.472 271.963 420.926 271.815 421.313 271.569C421.7 271.324 422.007 270.991 422.202 270.604C422.579 269.825 422.811 268.996 422.89 268.151C423.116 266.735 423.434 265.333 423.843 263.951C423.966 263.677 424.018 263.383 423.995 263.089C423.972 262.795 423.875 262.51 423.711 262.255C423.541 261.813 423.312 261.392 423.029 261C422.461 261.565 422.297 262.882 422.064 263.64C421.773 264.578 421.508 265.522 421.256 266.466C421.123 266.918 420.076 272 420 272Z" fill="black"/>
<path opacity="0.1" d="M418 245.341C417.734 245.688 417.428 246.002 417.088 246.278C416.01 247.134 414.58 247.855 414.445 249.206C414.483 249.645 414.428 250.087 414.283 250.503C413.938 251.095 413.091 251.041 412.417 250.928C411.848 250.877 411.303 250.676 410.837 250.347C410.13 249.744 410.065 248.668 409.526 247.909C409.198 247.517 408.784 247.206 408.316 247C407.849 246.793 407.34 246.697 406.829 246.719C405.82 246.687 404.817 246.913 403.808 246.956C403.16 246.989 402.51 246.945 401.871 246.827C401.661 246.795 401.452 246.751 401.246 246.698C400.795 246.587 400.354 246.437 399.929 246.251C399.71 246.164 399.495 246.063 399.288 245.949C398.612 245.603 397.986 245.169 397.427 244.658C396.439 243.753 395.62 242.505 395.7 241.164C395.749 240.341 396.121 239.582 396.24 238.769C396.644 236.444 395.096 234.248 393.419 232.585C392.75 231.923 392.038 231.282 391.369 230.609C390.327 229.651 389.505 228.479 388.958 227.175C388.508 225.787 388.361 224.319 388.526 222.869C388.678 221.4 388.719 219.921 388.65 218.445C388.154 213.213 383.677 209.203 379.2 207.023L379 206.921C380.328 205.4 381.963 204.176 383.798 203.328C385.632 202.48 387.626 202.028 389.647 202.001C391.669 201.974 393.673 202.373 395.53 203.172C397.387 203.971 399.053 205.152 400.422 206.637C401.79 208.122 402.829 209.879 403.47 211.792C404.112 213.705 404.342 215.732 404.146 217.739C403.949 219.747 403.33 221.691 402.329 223.444C401.329 225.197 399.969 226.72 398.338 227.913C398.29 228.079 398.246 228.246 398.209 228.408C397.173 232.542 397.858 235.05 398.629 236.433C398.84 236.482 406.241 238.15 407.217 239.124C408.193 240.099 414.229 241.493 414.229 241.493C415.147 241.736 415.981 242.222 416.645 242.9C417.308 243.577 417.777 244.421 418 245.341V245.341Z" fill="black"/>
<path d="M378.389 203.426C378.685 203.091 379.132 202.92 379.433 202.595C380.364 201.594 379.433 199.959 379.772 198.639C380.138 197.174 381.957 196.535 383.474 196.69C384.991 196.844 386.412 197.537 387.929 197.707C390.286 197.968 392.567 196.956 394.865 196.365C397.162 195.774 399.939 195.742 401.521 197.483C403.102 199.225 402.995 202.191 404.964 203.453C405.873 204.033 407.02 204.097 408.004 204.518C409.082 205.065 409.975 205.91 410.576 206.951C412.135 209.374 412.821 212.247 412.524 215.104C412.357 216.648 411.905 218.15 411.722 219.694C411.537 221.297 411.646 222.921 412.045 224.486C412.459 226.084 413.358 227.809 414.967 228.32C415.339 228.401 415.7 228.524 416.043 228.688C416.974 229.263 416.85 230.615 416.613 231.67L415.655 236.041C416.576 236.734 418.007 236.436 418.884 237.165C419.235 237.483 419.495 237.887 419.637 238.337C420.07 239.559 420.117 240.883 419.772 242.133C419.427 243.382 418.706 244.498 417.705 245.334C416.629 246.18 415.204 246.894 415.069 248.225C415.11 248.659 415.055 249.097 414.908 249.508C414.569 250.094 413.718 250.041 413.046 249.929C412.48 249.877 411.938 249.679 411.475 249.354C410.764 248.758 410.705 247.693 410.167 246.942C409.84 246.555 409.427 246.247 408.96 246.043C408.494 245.839 407.986 245.744 407.477 245.765C406.465 245.733 405.47 245.957 404.458 246.004C402.125 246.099 399.848 245.285 398.115 243.736C397.125 242.836 396.312 241.606 396.387 240.275C396.436 239.465 396.807 238.709 396.925 237.905C397.324 235.61 395.785 233.432 394.111 231.787C392.438 230.141 390.474 228.624 389.656 226.435C388.634 223.725 389.624 220.7 389.35 217.825C388.855 212.644 384.394 208.682 379.923 206.52C378.927 206.014 377.232 204.731 378.389 203.426Z" fill="#444053"/>
<path opacity="0.1" d="M413.499 248.158C412.791 247.548 412.732 246.474 412.196 245.712C411.87 245.32 411.458 245.008 410.994 244.8C410.529 244.592 410.023 244.494 409.515 244.514C408.507 244.482 407.509 244.708 406.507 244.757C404.173 244.86 401.893 244.032 400.163 242.452C399.177 241.545 398.372 240.293 398.447 238.948C398.495 238.122 398.865 237.356 398.983 236.546C399.386 234.214 397.847 232.006 396.179 230.338C394.511 228.67 392.56 227.132 391.739 224.913C390.726 222.171 391.739 219.104 391.439 216.184C390.94 210.932 386.495 206.915 382.044 204.724C381.004 204.211 379.315 202.91 380.468 201.587C380.757 201.247 381.202 201.074 381.503 200.745C382.43 199.736 381.503 198.073 381.846 196.74C381.912 196.474 382.026 196.223 382.184 196C381.063 196.211 380.039 196.848 379.765 197.927C379.438 199.266 380.355 200.923 379.428 201.938C379.127 202.267 378.682 202.44 378.387 202.775C377.234 204.097 378.923 205.404 379.964 205.911C384.42 208.103 388.865 212.125 389.358 217.372C389.632 220.292 388.645 223.358 389.664 226.106C390.479 228.319 392.436 229.885 394.104 231.531C395.772 233.178 397.321 235.402 396.908 237.734C396.682 238.523 396.503 239.325 396.372 240.136C396.297 241.48 397.107 242.733 398.093 243.639C399.821 245.22 402.099 246.049 404.431 245.945C405.44 245.896 406.432 245.675 407.44 245.702C407.948 245.682 408.453 245.78 408.918 245.988C409.383 246.196 409.794 246.508 410.121 246.9C410.657 247.661 410.716 248.741 411.424 249.345C411.886 249.673 412.426 249.872 412.99 249.923C413.66 250.047 414.507 250.09 414.845 249.502C414.965 249.262 415.017 248.993 414.995 248.725C414.455 248.671 413.939 248.476 413.499 248.158V248.158Z" fill="black"/>
<path d="M335.565 216H298.462V179.44H335.591L335.565 216ZM335.028 160.875H298.999C298.999 104.06 353.003 107.381 353.003 71.4369C353.003 51.6386 336.798 35.7775 317 35.7775C297.202 35.7775 281.003 52.8777 281.003 72.0001H245C244.984 62.5403 246.835 53.1704 250.448 44.4277C254.06 35.6849 259.363 27.7412 266.052 21.0522C272.741 14.3631 280.685 9.06026 289.428 5.44768C298.17 1.8351 307.54 -0.0161448 317 0.000106069C356.768 0.000106069 389 31.7277 389 71.4369C389 116.381 335.001 121.498 335.001 160.875H335.028Z" fill="#2F409C"/>
<path opacity="0.1" d="M150.245 205H140.707V195.63H150.245V205ZM150.1 190.907H140.852C140.852 176.389 154.725 177.235 154.725 168.04C154.72 166.837 154.477 165.647 154.009 164.537C153.542 163.428 152.859 162.421 152 161.574C151.141 160.727 150.123 160.056 149.003 159.601C147.884 159.145 146.685 158.914 145.476 158.92C143.034 158.976 140.708 159.971 138.987 161.696C137.267 163.422 136.285 165.743 136.249 168.173H127C127.061 163.345 129.028 158.734 132.475 155.334C135.923 151.935 140.575 150.019 145.429 150C150.283 149.981 154.95 151.861 158.424 155.233C161.898 158.606 163.901 163.202 164 168.029C163.973 179.516 150.1 180.824 150.1 190.886V190.907Z" fill="#2F409C"/>
<path opacity="0.1" d="M223.287 271H213.75V261.653H223.287V271ZM223.148 256.907H213.9C213.9 242.378 227.773 243.229 227.773 234.031C227.768 232.828 227.525 231.637 227.057 230.528C226.589 229.418 225.907 228.411 225.048 227.564C224.189 226.717 223.17 226.047 222.051 225.592C220.932 225.137 219.733 224.906 218.524 224.912C216.071 224.956 213.732 225.948 212.001 227.678C210.27 229.407 209.283 231.739 209.249 234.18H200C200.061 229.35 202.028 224.737 205.475 221.336C208.923 217.935 213.575 216.019 218.429 216C223.283 215.981 227.95 217.862 231.424 221.235C234.898 224.609 236.901 229.207 237 234.036C237.016 245.528 223.148 246.842 223.148 256.907Z" fill="#2F409C"/>
<path opacity="0.1" d="M266.977 155H260.017V148.083H266.977V155ZM266.875 144.546H260.125C260.125 133.782 270.25 134.408 270.25 127.594C270.246 126.702 270.068 125.82 269.726 124.998C269.385 124.175 268.886 123.429 268.26 122.801C267.633 122.174 266.89 121.677 266.073 121.34C265.257 121.002 264.382 120.831 263.5 120.835C261.714 120.872 260.011 121.608 258.752 122.89C257.493 124.171 256.775 125.897 256.75 127.703H250C249.986 124.083 251.394 120.606 253.916 118.036C256.438 115.466 259.866 114.015 263.446 114C267.027 113.986 270.466 115.41 273.008 117.959C275.55 120.509 276.986 123.974 277 127.594C276.989 136.111 266.875 137.085 266.875 144.546V144.546Z" fill="#2F409C"/>
<path opacity="0.1" d="M385.455 164H381.587V160.246H385.455V164ZM385.397 158.343H381.624C381.624 152.513 387.249 152.852 387.249 149.16C387.249 148.678 387.151 148.2 386.963 147.754C386.774 147.308 386.497 146.904 386.149 146.565C385.801 146.225 385.387 145.957 384.933 145.776C384.479 145.595 383.993 145.505 383.503 145.51C382.51 145.531 381.565 145.929 380.865 146.623C380.166 147.316 379.766 148.25 379.751 149.228H376C376.044 147.301 376.849 145.468 378.245 144.117C379.641 142.767 381.516 142.008 383.472 142C385.427 141.993 387.309 142.738 388.715 144.077C390.121 145.417 390.941 147.244 391 149.171C391.021 153.754 385.397 154.302 385.397 158.343V158.343Z" fill="#2F409C"/>
<path opacity="0.1" d="M445.434 340H441.566V336.075H445.434V340ZM445.376 334.085H441.624C441.624 327.986 447.254 328.345 447.254 324.486C447.247 323.468 446.848 322.494 446.145 321.778C445.441 321.063 444.491 320.664 443.503 320.67C442.51 320.69 441.564 321.106 440.864 321.831C440.164 322.557 439.765 323.534 439.751 324.557H436C436.044 322.542 436.849 320.625 438.245 319.214C439.641 317.802 441.516 317.008 443.472 317C445.427 316.992 447.309 317.771 448.715 319.172C450.121 320.572 450.941 322.483 451 324.497C451.021 329.31 445.397 329.861 445.397 334.085H445.376Z" fill="#2F409C"/>
<defs>
<linearGradient id="paint0_linear" x1="373.515" y1="446.045" x2="373.515" y2="194.942" gradientUnits="userSpaceOnUse">
<stop stop-color="#808080" stop-opacity="0.25"/>
<stop offset="0.54" stop-color="#808080" stop-opacity="0.12"/>
<stop offset="1" stop-color="#808080" stop-opacity="0.1"/>
</linearGradient>
</defs>
</svg>
