<svg width="129" height="129" viewBox="0 0 129 129" fill="none" xmlns="http://www.w3.org/2000/svg">
<path d="M65.3247 128.018C100.483 128.018 128.985 99.5181 128.985 64.3622C128.985 29.2062 100.483 0.70665 65.3247 0.70665C30.1659 0.70665 1.66403 29.2062 1.66403 64.3622C1.66403 99.5181 30.1659 128.018 65.3247 128.018Z" fill="#3F3D56"/>
<path d="M101.53 45.1305L82.469 64.5214C82.4355 64.5535 82.4088 64.592 82.3906 64.6347C82.3724 64.6774 82.363 64.7233 82.363 64.7697C82.363 64.8162 82.3724 64.862 82.3906 64.9047C82.4088 64.9474 82.4355 64.986 82.469 65.0181L95.8431 79.238C96.163 79.5604 96.3806 79.97 96.4686 80.4156C96.5565 80.8611 96.5109 81.3227 96.3374 81.7424C96.1639 82.1621 95.8704 82.5213 95.4935 82.7747C95.1166 83.0282 94.6733 83.1647 94.2191 83.1671C93.6079 83.1658 93.022 82.9232 92.5887 82.4921L79.2847 68.3231C79.2168 68.2562 79.1253 68.2187 79.0299 68.2187C78.9346 68.2187 78.8431 68.2562 78.7752 68.3231L75.5336 71.5963C74.2063 72.9535 72.6212 74.0318 70.8713 74.7677C69.1215 75.5037 67.2421 75.8825 65.3438 75.882C63.4095 75.8731 61.4963 75.4788 59.7162 74.7221C57.936 73.9655 56.3244 72.8617 54.9757 71.4753L51.8614 68.2913C51.7935 68.2244 51.702 68.1869 51.6067 68.1869C51.5113 68.1869 51.4199 68.2244 51.3519 68.2913L38.0797 82.4285C37.8662 82.6424 37.6125 82.8121 37.3333 82.9279C37.0541 83.0437 36.7548 83.1033 36.4525 83.1033C36.1503 83.1033 35.851 83.0437 35.5718 82.9279C35.2926 82.8121 35.0389 82.6424 34.8254 82.4285C34.6107 82.2154 34.4403 81.9619 34.324 81.6826C34.2077 81.4034 34.1479 81.1039 34.1479 80.8014C34.1479 80.4989 34.2077 80.1994 34.324 79.9202C34.4403 79.6409 34.6107 79.3875 34.8254 79.1744L48.1485 64.9862C48.2077 64.917 48.2402 64.8289 48.2402 64.7379C48.2402 64.6468 48.2077 64.5588 48.1485 64.4895L29.0872 45.0987C29.0382 45.0494 28.9757 45.0159 28.9076 45.0022C28.8394 44.9886 28.7688 44.9955 28.7046 45.0221C28.6405 45.0487 28.5856 45.0939 28.5472 45.1517C28.5087 45.2096 28.4883 45.2776 28.4886 45.3471V84.1478C28.4936 85.6477 29.0917 87.0848 30.1524 88.1454C31.2131 89.206 32.6503 89.804 34.1503 89.8091H96.48C97.98 89.804 99.4171 89.206 100.478 88.1454C101.539 87.0848 102.137 85.6477 102.142 84.1478V45.3789C102.145 45.3067 102.126 45.2352 102.087 45.1744C102.047 45.1136 101.991 45.0663 101.924 45.0391C101.857 45.0119 101.783 45.0061 101.712 45.0225C101.642 45.0388 101.578 45.0766 101.53 45.1305V45.1305Z" fill="#6C63FF"/>
<path d="M65.3247 71.2779C66.6168 71.2906 67.8982 71.0434 69.0929 70.5512C70.2876 70.0589 71.3712 69.3315 72.2792 68.4123L100.04 40.157C99.0545 39.3408 97.8169 38.8907 96.5373 38.8834H34.1631C32.8829 38.8876 31.6442 39.338 30.6603 40.157L58.4275 68.4123C59.3275 69.3263 60.4015 70.0508 61.5861 70.543C62.7707 71.0352 64.0419 71.2851 65.3247 71.2779V71.2779Z" fill="#6C63FF"/>
<path opacity="0.1" d="M64.5222 0.713036C51.9236 0.706739 39.6061 4.43702 29.1281 11.432C18.6501 18.4269 10.4824 28.3722 5.65817 40.0096C0.833969 51.6471 -0.42991 64.4539 2.02642 76.8097C4.48275 89.1656 10.5489 100.515 19.4575 109.423C28.3661 118.331 39.7168 124.397 52.0737 126.853C64.4305 129.309 77.2383 128.045 88.8767 123.221C100.515 118.398 110.461 110.231 117.457 99.7534C124.452 89.2762 128.183 76.9598 128.177 64.3622C128.168 47.484 121.459 31.2994 109.523 19.3647C97.5876 7.43005 81.4018 0.721473 64.5222 0.713036ZM64.5222 119.554C53.6053 119.554 42.9336 116.317 33.8565 110.253C24.7795 104.188 17.7048 95.5684 13.5271 85.4833C9.34935 75.3983 8.25628 64.3009 10.3861 53.5947C12.5158 42.8884 17.7728 33.0541 25.4922 25.3353C33.2116 17.6165 43.0467 12.36 53.7539 10.2304C64.461 8.10077 75.5592 9.19375 85.6451 13.3711C95.731 17.5485 104.352 24.6226 110.417 33.699C116.482 42.7753 119.719 53.4462 119.719 64.3622C119.719 79.0001 113.904 93.0384 103.552 103.389C93.2008 113.74 79.1613 119.554 64.5222 119.554Z" fill="black"/>
</svg>
