<svg width="129" height="128" viewBox="0 0 129 128" fill="none" xmlns="http://www.w3.org/2000/svg">
<path d="M64.5799 127.331C99.7387 127.331 128.241 98.8313 128.241 63.6753C128.241 28.5194 99.7387 0.0198364 64.5799 0.0198364C29.421 0.0198364 0.91922 28.5194 0.91922 63.6753C0.91922 98.8313 29.421 127.331 64.5799 127.331Z" fill="#3F3D56"/>
<path d="M91.9076 80.0923C89.6913 77.8762 84.3608 74.533 81.7178 73.2848C78.6672 71.8201 77.5464 71.8456 75.3874 73.4058C73.5915 74.6794 72.426 75.9085 70.3626 75.4563C68.2991 75.0042 64.2105 71.922 60.2556 67.9802C56.3007 64.0383 53.231 59.9755 52.7915 57.8804C52.3521 55.7853 53.5622 54.6454 54.8486 52.8496C56.4026 50.6908 56.4472 49.57 54.9696 46.5197C53.6959 43.8769 50.3906 38.5596 48.1552 36.3307C45.9198 34.1019 45.4358 34.5922 44.213 35.0571C42.9546 35.5846 41.7461 36.224 40.602 36.9675C38.3858 38.4513 37.1439 39.6867 36.2714 41.5462C35.3989 43.4057 34.4118 46.8572 39.4875 55.8935C43.2319 62.8063 47.9744 69.1298 53.5622 74.6603V74.6603C59.112 80.2604 65.4576 85.0112 72.3941 88.7593C81.4248 93.8538 84.883 92.8412 86.7427 91.9752C88.6023 91.1091 89.8378 89.8801 91.3153 87.6449C92.0604 86.5017 92.6999 85.2932 93.2259 84.0342C93.6462 82.8115 94.143 82.3148 91.9076 80.0923Z" fill="#6C63FF"/>
<path opacity="0.1" d="M64.5799 0.0261997C51.9813 0.0199024 39.6638 3.75018 29.1858 10.7451C18.7078 17.7401 10.54 27.6853 5.71582 39.3228C0.891616 50.9603 -0.372263 63.767 2.08407 76.1229C4.5404 88.4788 10.6066 99.8286 19.5152 108.736C28.4238 117.644 39.7744 123.71 52.1313 126.166C64.4882 128.622 77.296 127.358 88.9344 122.535C100.573 117.711 110.519 109.544 117.514 99.0666C124.51 88.5894 128.241 76.273 128.234 63.6753C128.226 46.7971 121.517 30.6126 109.581 18.6779C97.6453 6.74324 81.4595 0.0346367 64.5799 0.0261997V0.0261997ZM64.5799 118.868C53.663 118.868 42.9913 115.631 33.9142 109.566C24.8371 103.501 17.7624 94.8816 13.5847 84.7965C9.40698 74.7114 8.31391 63.6141 10.4437 52.9079C12.5735 42.2016 17.8305 32.3673 25.5499 24.6485C33.2693 16.9297 43.1044 11.6731 53.8116 9.54354C64.5187 7.41393 75.6169 8.50693 85.7028 12.6843C95.7887 16.8617 104.409 23.9358 110.474 33.0121C116.539 42.0885 119.777 52.7593 119.777 63.6753C119.777 70.9233 118.349 78.1003 115.575 84.7965C112.801 91.4928 108.735 97.5771 103.61 102.702C98.4845 107.827 92.3996 111.893 85.7028 114.666C79.006 117.44 71.8285 118.868 64.5799 118.868Z" fill="black"/>
</svg>
