<svg width="666" height="498" viewBox="0 0 666 498" fill="none" xmlns="http://www.w3.org/2000/svg">
<path opacity="0.1" d="M7.18896 248.244C17.7262 291.082 40.0359 328.113 75.2946 346.061C148.599 383.367 313.817 364.125 437.143 342.043C500.952 330.617 556.998 299.113 597.737 254.717L7.18896 248.244Z" fill="#6C63FF"/>
<path opacity="0.1" d="M653.923 46.6062H586.257C583.037 46.6062 580.403 44.1025 580.403 41.043C580.403 37.9836 583.031 35.4798 586.257 35.4798H597.965C594.745 35.4798 592.111 32.9761 592.111 29.9166C592.111 26.8571 594.739 24.3595 597.965 24.3595H589.611C586.391 24.3595 583.757 21.8557 583.757 18.7963C583.757 15.7368 586.385 13.2331 589.611 13.2331H624.928C617.09 9.76446 607.952 7.30346 597.379 6.01494C501.075 -5.75269 466.688 2.02726 454.541 10.0332C439.442 20.1149 422.647 27.1168 405.046 30.6677C345.627 42.3254 234.506 56.3525 133.788 26.1732C83.7302 11.1812 46.5279 36.5546 24.2241 78.8802H665.672C664.835 66.5691 662.33 55.1984 657.728 45.2505C656.642 46.1355 655.302 46.6131 653.923 46.6062V46.6062Z" fill="#6C63FF"/>
<path opacity="0.1" d="M1.44621 158.829C-1.15015 183.744 -0.264766 208.92 4.07466 233.569L598.187 254.234C614.557 236.394 628.451 216.25 639.464 194.389L1.44621 158.829ZM236.409 212.147H224.701C227.915 212.147 230.555 214.651 230.555 217.71C230.555 220.77 227.921 223.267 224.701 223.267H157.064C153.85 223.267 151.21 220.77 151.21 217.71C151.21 214.651 153.844 212.147 157.064 212.147H168.772C165.558 212.147 162.918 209.643 162.918 206.584C162.918 203.524 165.552 201.021 168.772 201.021H160.406C157.192 201.021 154.552 198.523 154.552 195.463C154.552 192.404 157.187 189.9 160.406 189.9H228.073C231.293 189.9 233.927 192.404 233.927 195.463C233.927 198.523 231.298 201.021 228.073 201.021H236.409C239.629 201.021 242.263 203.524 242.263 206.584C242.263 209.643 239.646 212.147 236.409 212.147Z" fill="#6C63FF"/>
<path opacity="0.1" d="M665.701 79.2651L17.0761 94.2693C9.17319 113.56 3.94555 135.367 1.53369 157.975H654.333C658.583 144.746 661.736 131.162 663.758 117.371C665.701 104.083 666.48 91.2343 665.701 79.2651ZM133.232 128.43H121.524C124.737 128.43 127.378 130.934 127.378 133.993C127.378 137.053 124.743 139.557 121.524 139.557H53.8628C50.6489 139.557 48.0087 137.053 48.0087 133.993C48.0087 130.934 50.6431 128.43 53.8628 128.43H65.5708C62.3569 128.43 59.7168 125.933 59.7168 122.873C59.7168 119.814 62.3511 117.31 65.5708 117.31H57.2054C53.9916 117.31 51.3514 114.806 51.3514 111.747C51.3514 108.687 53.9857 106.184 57.2054 106.184H124.872C128.092 106.184 130.726 108.687 130.726 111.747C130.726 114.806 128.098 117.31 124.872 117.31H133.232C136.445 117.31 139.086 119.814 139.086 122.873C139.086 125.933 136.445 128.43 133.232 128.43Z" fill="#6C63FF"/>
<path opacity="0.1" d="M388.906 468.281C413.228 468.281 432.946 463.663 432.946 457.967C432.946 452.27 413.228 447.652 388.906 447.652C364.584 447.652 344.866 452.27 344.866 457.967C344.866 463.663 364.584 468.281 388.906 468.281Z" fill="#6C63FF"/>
<path opacity="0.1" d="M491.24 497.526C535.119 497.526 570.691 494.48 570.691 490.723C570.691 486.966 535.119 483.92 491.24 483.92C447.36 483.92 411.789 486.966 411.789 490.723C411.789 494.48 447.36 497.526 491.24 497.526Z" fill="#6C63FF"/>
<path opacity="0.1" d="M172.237 490.723C216.116 490.723 251.688 486.105 251.688 480.409C251.688 474.712 216.116 470.094 172.237 470.094C128.357 470.094 92.7861 474.712 92.7861 480.409C92.7861 486.105 128.357 490.723 172.237 490.723Z" fill="#6C63FF"/>
<path opacity="0.1" d="M293.374 439.091C326.39 439.091 353.155 434.473 353.155 428.777C353.155 423.08 326.39 418.462 293.374 418.462C260.358 418.462 233.593 423.08 233.593 428.777C233.593 434.473 260.358 439.091 293.374 439.091Z" fill="#6C63FF"/>
<path d="M338.046 183.403C336.781 174.524 329.048 153.803 329.048 153.803C328.914 153.193 328.761 152.582 328.592 151.971C323.106 132.308 315.514 130.598 315.514 130.598L288.316 124.491C288.544 124.64 288.743 124.833 288.901 125.059C288.758 125.073 288.615 125.095 288.474 125.126C287.229 123.593 286.405 121.736 286.091 119.752C286.039 119.459 285.992 119.142 285.957 118.843C287.91 116.856 289.434 114.457 290.425 111.806C291.417 109.156 291.854 106.314 291.706 103.473C291.559 100.631 290.83 97.8557 289.57 95.332C288.31 92.8083 286.547 90.5949 284.4 88.8403C284.113 88.6082 283.814 88.3823 283.527 88.1686C284.809 86.7457 284.85 84.7671 283.89 82.7886C281.748 78.1475 277.088 75.2101 272.299 73.775C268.641 72.6819 264.689 72.3278 261.048 73.5247C258.981 74.2086 257.096 75.3567 255.159 76.3765C251.547 78.2574 247.548 79.7474 244.85 82.8435C244.218 83.5641 243.632 84.4862 243.819 85.4389C243.96 86.1472 244.499 86.6969 244.844 87.3258C245.623 88.7365 245.429 90.5135 244.897 92.0524C244.364 93.5913 243.585 95.0203 243.217 96.5958C242.848 98.1714 242.988 100.028 244.124 101.158C244.668 101.596 245.235 102.004 245.822 102.379C246.443 102.931 246.989 103.57 247.443 104.278C248.52 105.784 249.593 107.297 250.663 108.815C252.173 110.828 253.522 112.966 254.696 115.209C255.498 116.858 256.119 118.617 257.19 120.094C257.504 120.526 257.863 120.919 258.261 121.267L257.945 121.139C258.411 121.633 258.968 122.023 259.583 122.284C260.198 122.546 260.858 122.673 261.522 122.659C261.581 122.659 261.633 122.659 261.686 122.659C261.93 122.654 262.164 122.554 262.342 122.378C262.342 122.586 262.342 122.794 262.342 122.989C262.406 125.169 262.394 127.49 262.248 129.67L261.996 129.535C261.623 129.342 261.204 129.263 260.79 129.308C260.375 129.354 259.981 129.522 259.655 129.792L234.617 150.75C234.617 150.75 229.173 158.518 229.934 171.928L225.543 192.038C225.543 192.038 220.058 209.1 224.279 221.283C228.5 233.466 230.946 240.433 230.946 240.433C230.946 240.433 232.632 254.277 235.167 255.407C237.702 256.537 238.797 257.147 238.797 257.147L239.3 260.457C239.3 260.457 239.47 260.781 239.768 261.324C241.613 264.671 248.444 276.481 252.413 275.217C252.913 278.424 253.128 281.672 253.057 284.921L256.985 312.431C256.985 312.431 259.725 319.912 259.555 323.833C259.385 327.753 262.751 333.341 262.751 333.341C260.706 337.246 260.106 341.798 261.065 346.134C262.669 353.462 264.695 387.22 264.695 387.22L267.622 395.403L267.54 404.997C267.3 406.562 266.674 408.034 265.725 409.272C263.829 411.421 263.969 413.907 259.397 416.844C254.825 419.781 251.927 420.893 251.927 424.783C251.922 425.325 251.875 425.866 251.787 426.401C251.365 429.259 250.546 430.81 258.952 431.64C268.828 432.618 275.414 425.9 275.414 425.9C275.414 425.9 276.865 423.152 283.703 422.041C283.703 422.041 286.045 421.912 286.167 419.757C286.214 419.012 286.203 417.589 286.167 416.02C286.056 413.033 285.781 409.546 285.418 409.375C284.962 409.162 284.165 406.157 283.89 405.07H285.793C285.793 405.07 287.549 391.226 285.793 382.262C284.037 373.297 285.623 366.94 285.623 366.94L285.284 343.264C285.284 343.264 282.942 340.65 284.78 336.034C286.618 331.417 284.78 308.615 284.78 308.615C284.78 308.615 285.459 300.432 287.397 298.514C289.334 296.597 287.49 286.527 287.397 286.002L290.851 298.087C290.851 298.087 292.367 322.111 295.581 326.459L296.506 337.341C296.506 337.341 303.086 347.356 301.821 352.748C300.557 358.14 303.173 377.645 303.173 377.645V397.583C303.173 397.583 300.217 405.589 304.344 408.466L306.1 408.392C305.515 408.96 305.064 409.815 304.379 410.554C303.589 411.403 303.138 414.633 302.887 417.412C302.676 419.763 302.606 421.784 302.606 421.784C302.606 421.784 304.362 424.715 307.669 424.917C310.977 425.119 321.877 433.766 321.877 433.766C321.877 433.766 332.643 433.766 335.429 433.155L335.593 433.112C336.487 432.819 337.24 432.178 337.695 431.323C338.253 430.331 338.432 429.156 338.198 428.031C337.853 426.315 336.547 424.435 333.655 422.835C326.461 418.877 325.389 415.171 325.389 415.171L320.665 407.775H321.338C321.338 407.775 320.923 399.941 326.063 391.147L325.729 352.412C325.729 352.412 327.836 339.093 324.213 331.863C324.213 331.863 323.914 324.205 326.338 321.854C328.761 319.503 323.112 295.742 323.112 295.742C323.112 295.742 321.941 282.985 320.566 271.345C326.262 276.982 332.168 256.689 333.164 253.08H333.31L333.245 252.818C333.286 252.647 333.31 252.561 333.31 252.561C333.31 252.561 332.045 247.871 332.97 248.824C333.895 249.777 336.178 246.21 336.178 246.21C336.178 246.21 335.839 226.797 339.808 217.014C343.777 207.231 338.046 183.403 338.046 183.403ZM321.069 195.757L321.098 195.702C321.684 207.555 320.987 232.849 320.987 232.849C320.987 232.849 320.203 236.091 319.366 239.908L318.78 215.878L318.195 193.241L321.069 195.757ZM248.415 187.586C248.415 187.586 251.283 225.014 248.415 230.412C247.601 231.951 246.916 234.687 246.348 237.807C245.4 235.212 243.392 229.118 244.112 225.887C245.043 221.71 242.256 210.736 242.256 210.48C242.256 210.223 242.005 204.373 244.013 199.903C246.021 195.433 244.703 193.497 244.703 193.497C244.703 193.497 246.389 186.169 248.415 187.586Z" fill="url(#paint0_linear)"/>
<path d="M255.405 271.883C252.905 283.345 242.965 266.014 240.7 261.856C240.407 261.312 240.243 260.995 240.243 260.995L241.32 255.725L247.016 253.282C247.918 253.774 248.773 254.354 249.569 255.016C252.689 257.575 257.331 263.004 255.405 271.883Z" fill="#D38884"/>
<path d="M332.52 253.129C332.52 253.129 332.52 253.215 332.456 253.386C332.456 253.459 332.409 253.557 332.38 253.66C331.402 257.239 325.607 277.385 320.01 271.791C313.887 265.685 316.861 251.566 316.861 251.566H316.902L329.78 250.192L332.333 252.928L332.52 253.129Z" fill="#D38884"/>
<path d="M325.067 352.272L325.395 390.744C320.343 399.477 320.759 407.232 320.759 407.232L304.11 407.916C300.047 405.064 302.939 397.12 302.939 397.12V377.309C302.939 377.309 300.369 357.957 301.61 352.596C302.852 347.234 296.395 337.329 296.395 337.329L295.481 326.526C292.332 322.209 290.839 298.362 290.839 298.362L287.461 286.319C287.555 286.838 289.311 296.89 287.461 298.74C285.611 300.591 284.891 308.762 284.891 308.762C284.891 308.762 286.712 331.405 284.891 335.979C283.071 340.553 285.383 343.155 285.383 343.155L285.717 366.659C285.717 366.659 284.142 372.967 285.881 381.865C287.619 390.762 285.881 404.509 285.881 404.509H268.02L268.102 394.915L265.21 386.793C265.21 386.793 263.22 353.267 261.645 346.006C260.703 341.704 261.289 337.19 263.296 333.304C263.296 333.304 259.988 327.778 260.152 323.888C260.316 319.998 257.6 312.578 257.6 312.578L253.748 285.275C253.854 280.021 253.211 274.779 251.84 269.721C249.603 261.941 246.29 251.743 246.29 251.743L250.031 252.091L268.904 253.844C268.904 253.844 314.794 250.626 316.848 253.3C317.282 254.175 317.575 255.118 317.715 256.091C319.775 265.746 322.498 295.992 322.498 295.992C322.498 295.992 328.047 319.583 325.665 321.915C323.282 324.248 323.575 331.845 323.575 331.845C327.146 339.02 325.067 352.272 325.067 352.272Z" fill="#444053"/>
<path d="M286.273 419.097C286.145 421.241 283.856 421.369 283.856 421.369C277.147 422.468 275.719 425.192 275.719 425.192C275.719 425.192 269.279 431.867 259.567 430.896C251.313 430.065 252.115 428.532 252.542 425.693C252.625 425.164 252.671 424.629 252.677 424.093C252.677 420.203 255.534 419.097 260.006 416.154C264.479 413.211 264.356 410.774 266.217 408.637C268.079 406.499 268.272 402.353 268.272 402.353C270.38 398.524 275.724 402.963 275.724 402.963C275.976 404.319 283.92 404.13 283.92 404.13C283.92 404.13 284.974 408.539 285.518 408.795C285.875 408.966 286.145 412.423 286.25 415.391C286.308 416.948 286.32 418.358 286.273 419.097Z" fill="#B07473"/>
<path opacity="0.1" d="M286.273 419.097C286.145 421.241 283.856 421.369 283.856 421.369C277.147 422.468 275.719 425.192 275.719 425.192C275.719 425.192 269.279 431.866 259.567 430.895C251.313 430.065 252.115 428.532 252.542 425.693C256.231 426.645 263.279 427.976 267.394 425.644C273.114 422.407 277.217 420.148 277.217 420.148L286.256 415.403C286.308 416.948 286.32 418.358 286.273 419.097Z" fill="black"/>
<path d="M336.834 430.633C336.394 431.481 335.655 432.118 334.774 432.41L334.615 432.453C331.882 433.064 321.315 433.064 321.315 433.064C321.315 433.064 310.632 424.447 307.4 424.252C304.169 424.056 302.43 421.137 302.43 421.137C302.43 421.137 302.495 419.134 302.699 416.801C302.951 414.041 303.39 410.835 304.169 409.992C305.597 408.435 305.925 406.328 309.139 407.66C309.139 407.66 313.728 399.22 319.137 405.742L324.734 414.597C324.734 414.597 325.788 418.261 332.877 422.236C335.71 423.824 336.975 425.693 337.332 427.396C337.557 428.502 337.38 429.656 336.834 430.633Z" fill="#B07473"/>
<path opacity="0.1" d="M336.834 430.633C336.202 431.189 335.505 431.787 334.774 432.41L334.615 432.453C331.882 433.063 321.315 433.063 321.315 433.063C321.315 433.063 310.632 424.447 307.4 424.251C304.169 424.056 302.43 421.137 302.43 421.137C302.43 421.137 302.495 419.134 302.699 416.801C305.989 417.827 310.971 419.641 312.306 421.595C314.355 424.569 320.578 428.722 320.578 428.722C320.578 428.722 332.18 427.555 337.332 427.396C337.557 428.502 337.38 429.656 336.834 430.633Z" fill="black"/>
<path d="M291.682 129.09L276.403 145.938C276.403 145.938 257.887 144.515 261.118 138.812C262.763 135.905 263.021 129.823 262.875 124.534C262.74 119.435 262.236 115.093 262.236 115.093C262.236 115.093 288.205 101.61 286.238 114.183C285.814 116.553 285.79 118.981 286.168 121.359C287.274 127.71 291.682 129.09 291.682 129.09Z" fill="#D38884"/>
<path opacity="0.1" d="M286.214 114.183C285.791 116.553 285.767 118.981 286.144 121.359C284.368 123.236 282.251 124.727 279.918 125.742C277.584 126.758 275.08 127.28 272.551 127.276C269.039 127.276 265.239 124.266 262.4 122.525C262.266 117.42 262.236 115.093 262.236 115.093C262.236 115.093 288.205 101.61 286.214 114.183Z" fill="black"/>
<path d="M291.682 106.275C291.684 110.798 290.213 115.188 287.51 118.725C284.808 122.262 281.034 124.736 276.807 125.744C272.58 126.751 268.151 126.231 264.244 124.269C260.337 122.307 257.185 119.019 255.304 114.944C253.423 110.869 252.924 106.248 253.889 101.839C254.854 97.4292 257.226 93.4923 260.616 90.6727C264.006 87.8532 268.214 86.3183 272.55 86.3193C276.886 86.3204 281.093 87.8574 284.482 90.6786C286.727 92.5478 288.54 94.9203 289.787 97.6203C291.033 100.32 291.681 103.278 291.682 106.275V106.275Z" fill="#D38884"/>
<path opacity="0.1" d="M317.715 256.091C312.95 267.92 282.298 268.164 282.298 268.164V255.267L280.443 255.138C281.245 258.833 279.319 267.84 279.319 267.84C255.095 271.407 249.188 257.007 249.188 257.007L250.031 252.079L268.904 253.831C268.904 253.831 314.794 250.613 316.849 253.288C317.283 254.166 317.576 255.113 317.715 256.091V256.091Z" fill="black"/>
<path d="M282.298 266.607V253.709L280.443 253.587C281.245 257.251 279.319 266.289 279.319 266.289C261.089 268.97 253.233 261.483 250.464 257.612C249.966 256.945 249.538 256.224 249.188 255.462L256.587 212.043L258.344 148.143L260.996 136.931L261.61 131.551V131.49H261.675L263.56 132.333L274.84 137.419L287.655 127.325L287.842 127.185L288.48 126.678L289.54 127.563L292.174 129.768L300.621 186.676C300.621 186.676 315.256 230.492 317.996 248.177C318.107 248.885 318.195 249.545 318.265 250.161C320.074 266.308 282.298 266.607 282.298 266.607Z" fill="#6C63FF"/>
<path d="M276.21 139.813C276.811 139.813 277.299 139.305 277.299 138.677C277.299 138.05 276.811 137.542 276.21 137.542C275.609 137.542 275.121 138.05 275.121 138.677C275.121 139.305 275.609 139.813 276.21 139.813Z" fill="#67647E"/>
<path d="M276.713 150.182C277.315 150.182 277.802 149.674 277.802 149.047C277.802 148.419 277.315 147.911 276.713 147.911C276.112 147.911 275.625 148.419 275.625 149.047C275.625 149.674 276.112 150.182 276.713 150.182Z" fill="#67647E"/>
<path d="M277.802 166.97C278.404 166.97 278.891 166.461 278.891 165.834C278.891 165.207 278.404 164.698 277.802 164.698C277.201 164.698 276.713 165.207 276.713 165.834C276.713 166.461 277.201 166.97 277.802 166.97Z" fill="#67647E"/>
<path d="M279.6 185.052C280.201 185.052 280.689 184.543 280.689 183.916C280.689 183.289 280.201 182.78 279.6 182.78C278.999 182.78 278.511 183.289 278.511 183.916C278.511 184.543 278.999 185.052 279.6 185.052Z" fill="#67647E"/>
<path d="M280.688 202.028C281.29 202.028 281.777 201.52 281.777 200.892C281.777 200.265 281.29 199.757 280.688 199.757C280.087 199.757 279.6 200.265 279.6 200.892C279.6 201.52 280.087 202.028 280.688 202.028Z" fill="#67647E"/>
<path d="M281.777 220.11C282.379 220.11 282.866 219.602 282.866 218.974C282.866 218.347 282.379 217.839 281.777 217.839C281.176 217.839 280.688 218.347 280.688 218.974C280.688 219.602 281.176 220.11 281.777 220.11Z" fill="#67647E"/>
<path d="M281.344 237.997C281.945 237.997 282.433 237.488 282.433 236.861C282.433 236.234 281.945 235.725 281.344 235.725C280.742 235.725 280.255 236.234 280.255 236.861C280.255 237.488 280.742 237.997 281.344 237.997Z" fill="#67647E"/>
<path opacity="0.1" d="M262.336 218.358C262.336 218.358 261.119 234.986 258.882 239.823C256.646 244.659 255.651 258.228 255.651 258.228L250.458 257.618C249.96 256.951 249.533 256.23 249.182 255.468L256.582 212.049L258.338 148.149L260.996 136.931L261.61 131.551L261.681 131.52C261.971 131.377 262.288 131.306 262.609 131.311C262.93 131.316 263.245 131.398 263.53 131.551L263.776 131.685C263.702 131.905 263.632 132.131 263.566 132.363C261.54 138.977 260.785 151.166 260.785 151.166C260.785 151.166 263.712 173.461 264.016 183.83C264.321 194.2 262.336 218.358 262.336 218.358Z" fill="black"/>
<path opacity="0.1" d="M249.569 255.035C249.512 255.174 249.445 255.308 249.37 255.438C247.356 258.986 242.251 261.239 240.7 261.856C240.407 261.312 240.243 260.995 240.243 260.995L241.32 255.725L247.016 253.282C247.919 253.779 248.774 254.366 249.569 255.035V255.035Z" fill="black"/>
<path d="M235.77 170.176L231.046 173.113L226.743 193.076C226.743 193.076 221.358 210.01 225.496 222.107C229.635 234.205 232.041 241.13 232.041 241.13C232.041 241.13 233.698 254.87 236.186 255.993C238.674 257.117 239.745 257.722 239.745 257.722L240.243 261.007C240.243 261.007 246.987 258.619 249.369 254.412C251.752 250.204 247.613 239.756 247.613 239.756C247.613 239.756 244.054 230.852 244.967 226.706C245.88 222.559 243.14 211.671 243.14 211.439C243.14 211.207 242.895 205.387 244.897 200.935C246.899 196.483 245.564 194.584 245.564 194.584L244.317 181.882L235.77 170.176Z" fill="#67647E"/>
<path opacity="0.1" d="M318.108 252.354C318.108 252.354 305.598 257.276 301.623 252.964C297.648 248.653 298.058 228.421 298.058 228.421C298.058 228.421 294.252 191.091 291.846 184.96C289.44 178.829 290.676 134.58 290.676 134.58C290.676 134.58 289.06 128.858 287.649 127.361C287.56 127.265 287.46 127.181 287.351 127.111L287.836 127.221L289.534 127.6L292.168 129.804L300.616 186.713C300.616 186.713 315.251 230.528 317.99 248.213L318.108 252.354Z" fill="black"/>
<path opacity="0.1" d="M332.52 253.648H332.38C330.805 253.862 316.907 255.615 316.849 252.598C316.847 252.249 316.864 251.9 316.902 251.554L329.78 250.18L332.333 252.915C332.38 253.093 332.415 253.245 332.45 253.367L332.52 253.648Z" fill="black"/>
<path d="M319.185 150.182L328.317 155.153C328.317 155.153 335.927 175.708 337.145 184.52C337.145 184.52 342.782 208.129 338.901 217.839C335.02 227.548 335.342 246.821 335.342 246.821C335.342 246.821 333.106 250.363 332.192 249.416C331.279 248.47 332.526 253.129 332.526 253.129C332.526 253.129 316.913 255.291 316.849 252.091C316.785 248.891 320.432 233.6 320.432 233.6C320.432 233.6 321.427 197.222 320.016 191.519C318.605 185.815 319.185 150.182 319.185 150.182Z" fill="#67647E"/>
<path opacity="0.1" d="M291.934 188.929C291.934 188.929 286.794 202.059 285.138 202.926C283.481 203.793 285.471 207.243 285.471 207.243C285.471 207.243 294.832 193.595 291.934 188.929Z" fill="black"/>
<path opacity="0.1" d="M288.866 142.872C288.925 142.622 282.737 149.205 281.081 150.2C279.424 151.196 287.128 150.139 288.866 142.872Z" fill="black"/>
<path opacity="0.1" d="M271.638 187.891C271.638 187.891 262.196 194.26 263.443 196.782C264.689 199.305 271.638 187.891 271.638 187.891Z" fill="black"/>
<path opacity="0.1" d="M288.785 280.866C288.785 280.866 296.822 286.258 309.326 287.583L288.785 280.866Z" fill="black"/>
<path opacity="0.1" d="M269.484 293.831C269.484 293.831 276.936 303.601 280.337 303.852C283.738 304.102 269.484 293.831 269.484 293.831Z" fill="black"/>
<path opacity="0.1" d="M279.922 332.12C279.588 332.291 275.695 340.932 271.726 341.194C267.757 341.457 279.922 332.12 279.922 332.12Z" fill="black"/>
<path opacity="0.1" d="M314.46 351.05C314.46 351.05 321.848 349.322 323.493 354.849C323.493 354.83 322.996 353.102 314.46 351.05Z" fill="black"/>
<path opacity="0.1" d="M309.49 382.659C309.49 382.659 318.441 380.753 320.344 383.349C322.246 385.944 309.49 382.659 309.49 382.659Z" fill="black"/>
<path opacity="0.1" d="M284.172 387.08C284.172 387.166 275.063 388.985 275.391 390.194C275.719 391.404 285.109 391.233 285.442 389.327C285.502 389.093 285.517 388.848 285.485 388.608C285.453 388.367 285.376 388.136 285.258 387.927C285.14 387.717 284.983 387.535 284.796 387.39C284.61 387.244 284.398 387.139 284.172 387.08Z" fill="black"/>
<path opacity="0.1" d="M306.511 395.275C306.511 395.275 321.479 393.37 320.56 396.655C319.641 399.94 306.511 395.275 306.511 395.275Z" fill="black"/>
<path opacity="0.1" d="M228.149 202.926C228.231 203.183 238.007 204.569 239.33 207.854C239.33 207.854 229.724 203.182 228.207 203.182" fill="black"/>
<path opacity="0.1" d="M241.9 229.625C241.9 229.625 233.78 232.305 234.36 236.342C234.939 240.378 233.534 234.473 241.9 229.625Z" fill="black"/>
<path opacity="0.1" d="M238.118 250.192C238.118 250.192 241.074 245.96 243.89 246.736C246.706 247.511 238.118 250.192 238.118 250.192Z" fill="black"/>
<path opacity="0.1" d="M284.482 90.6785C284.197 90.9663 283.879 91.2146 283.533 91.4174C281.192 92.8402 280.548 95.0326 279.435 97.5607C278.399 99.8752 277.258 102.324 275.168 103.637C272.469 105.335 268.916 104.712 266.112 106.19C264.867 106.866 263.845 107.915 263.177 109.203C262.509 110.49 262.226 111.957 262.365 113.414C262.543 114.538 262.81 115.645 263.161 116.724C263.799 119.059 264.087 121.484 264.016 123.911C264.022 123.982 264.022 124.054 264.016 124.125C261.617 122.875 259.497 121.112 257.793 118.951C256.089 116.791 254.839 114.281 254.126 111.584C253.412 108.887 253.25 106.064 253.649 103.298C254.049 100.531 255.002 97.8836 256.446 95.5262C257.89 93.1687 259.793 91.1544 262.032 89.6139C264.271 88.0733 266.795 87.041 269.441 86.5839C272.086 86.1268 274.795 86.2551 277.39 86.9605C279.985 87.6659 282.409 88.9326 284.505 90.6785H284.482Z" fill="black"/>
<path d="M283.984 84.6695C281.883 80.0651 277.311 77.1461 272.61 75.7232C269.021 74.6423 265.123 74.2881 261.563 75.4789C259.532 76.1507 257.688 77.3109 255.785 78.3063C252.238 80.175 248.339 81.6528 245.67 84.7245C245.043 85.439 244.499 86.355 244.657 87.3015C244.792 88.0038 245.318 88.5229 245.658 89.1702C246.425 90.5747 246.243 92.3396 245.711 93.8662C245.178 95.3929 244.423 96.8097 244.06 98.3791C243.697 99.9485 243.837 101.787 244.95 102.904C245.447 103.399 246.085 103.71 246.624 104.126C247.233 104.674 247.766 105.307 248.21 106.006L251.371 110.513C252.856 112.51 254.18 114.633 255.329 116.858C256.113 118.495 256.722 120.241 257.776 121.701C258.83 123.16 260.469 124.333 262.213 124.174C262.348 124.177 262.482 124.148 262.604 124.087C262.726 124.027 262.833 123.937 262.916 123.826C262.98 123.683 263.011 123.526 263.003 123.368C263.081 120.949 262.798 118.533 262.166 116.205C261.814 115.126 261.548 114.019 261.37 112.895C261.235 111.438 261.52 109.973 262.187 108.687C262.855 107.4 263.875 106.35 265.117 105.671C267.927 104.193 271.48 104.816 274.173 103.124C276.269 101.805 277.41 99.3562 278.44 97.0173C279.57 94.4891 280.197 92.2968 282.538 90.874C284.88 89.4511 285.149 87.0939 283.984 84.6695Z" fill="#585268"/>
<path opacity="0.1" d="M275.414 410.933C275.414 410.933 278.341 414.823 277.58 417.04C276.819 419.256 275.414 410.933 275.414 410.933Z" fill="black"/>
<path opacity="0.1" d="M315.016 420.667C315.016 420.667 315.666 415.451 318.271 415.403C320.876 415.354 321.005 415.122 322.995 415.922C324.986 416.722 326.853 417.961 326.256 418.144C325.659 418.328 322.831 415.164 319.928 416.783C318.116 417.817 316.46 419.126 315.016 420.667V420.667Z" fill="black"/>
<path opacity="0.1" d="M266.68 143.96L274.876 137.969C274.876 137.969 262.887 130.58 261.458 131.618C260.03 132.656 259.046 141.999 259.046 141.999L266.68 143.96Z" fill="black"/>
<path d="M266.644 143.575L274.84 137.468C274.84 137.468 262.851 130.079 261.423 131.117C259.994 132.155 259.011 142.011 259.011 142.011L266.644 143.575Z" fill="#E1E7EF"/>
<path d="M266.644 143.575L274.84 137.468C274.84 137.468 262.851 130.079 261.423 131.117C259.994 132.155 259.011 142.011 259.011 142.011L266.644 143.575Z" fill="#6C63FF"/>
<path d="M262.781 131.166L262.535 131.038C262.17 130.843 261.758 130.763 261.349 130.808C260.941 130.852 260.554 131.019 260.235 131.288L235.648 152.094C235.648 152.094 230.303 159.807 231.047 173.113L245.547 194.542C245.547 194.542 247.204 187.287 249.188 188.667C249.188 188.667 252.004 225.826 249.188 231.182C246.372 236.537 245.131 256.586 245.131 256.586L254.656 257.709C254.656 257.709 255.651 244.14 257.887 239.304C260.123 234.467 261.341 217.839 261.341 217.839C261.341 217.839 263.355 193.68 263.021 183.311C262.687 172.942 259.79 150.646 259.79 150.646C259.79 150.646 260.603 137.578 262.781 131.166Z" fill="#67647E"/>
<path opacity="0.1" d="M287.274 140.174L277.059 136.229C277.059 136.229 290.067 121.365 291.694 129.609L287.274 140.174Z" fill="black"/>
<path d="M287.274 139.654L277.059 135.709C277.059 135.709 290.067 120.846 291.694 129.09L287.274 139.654Z" fill="#E1E7EF"/>
<path d="M287.274 139.654L277.059 135.709C277.059 135.709 290.067 120.846 291.694 129.09L287.274 139.654Z" fill="#6C63FF"/>
<path opacity="0.1" d="M286.94 127.007C287.088 126.983 287.238 127.018 287.362 127.105L286.94 127.007Z" fill="black"/>
<path d="M287.924 125.975L315.028 132.082C315.028 132.082 322.486 133.81 327.872 153.339C333.257 172.869 320.496 196.795 320.496 196.795L317.68 194.297L319.091 251.328C319.091 251.328 306.581 256.25 302.606 251.938C298.631 247.627 299.046 227.377 299.046 227.377C299.046 227.377 295.235 190.053 292.829 183.916C290.423 177.778 291.659 133.541 291.659 133.541C291.659 133.541 289.446 125.633 287.924 125.975Z" fill="#67647E"/>
<path opacity="0.1" d="M312.722 162.316C312.341 162.683 311.896 179.94 313.553 193.076C314.566 201.075 316.131 208.987 318.236 216.751L315.777 164.13C315.777 164.13 313.881 161.193 312.722 162.316Z" fill="black"/>
<path opacity="0.1" d="M309.409 147.453C310.07 147.886 312.974 155.055 311.645 157.993C310.316 160.93 309.409 147.453 309.409 147.453Z" fill="black"/>
<path opacity="0.1" d="M283.826 84.6694C282.496 81.9361 280.423 79.672 277.867 78.1597C279.768 79.5794 281.302 81.4675 282.334 83.6557C283.504 86.0984 283.159 88.5411 280.882 89.8784C278.605 91.2158 277.896 93.4936 276.784 96.0218C275.748 98.3362 274.606 100.785 272.511 102.129C269.818 103.826 266.264 103.197 263.454 104.675C262.213 105.357 261.194 106.408 260.526 107.695C259.859 108.983 259.574 110.448 259.708 111.905C259.888 113.028 260.156 114.133 260.51 115.209C261.147 117.545 261.436 119.969 261.365 122.397C261.37 122.555 261.338 122.712 261.271 122.855C261.19 122.967 261.085 123.057 260.963 123.118C260.842 123.178 260.709 123.207 260.574 123.203C259.872 123.259 259.167 123.122 258.531 122.806C258.992 123.282 259.541 123.656 260.145 123.902C260.749 124.149 261.395 124.264 262.044 124.241C262.149 124.257 262.257 124.247 262.358 124.213C262.46 124.178 262.552 124.119 262.628 124.041C262.704 123.963 262.761 123.868 262.796 123.763C262.831 123.657 262.842 123.545 262.828 123.435C262.904 121.008 262.618 118.583 261.979 116.247C261.622 115.17 261.354 114.062 261.177 112.937C261.043 111.481 261.327 110.016 261.994 108.729C262.662 107.442 263.682 106.392 264.924 105.713C267.734 104.235 271.287 104.858 273.98 103.167C276.076 101.848 277.217 99.3988 278.248 97.0599C279.377 94.5318 280.004 92.3394 282.345 90.9166C284.687 89.4937 284.997 87.0938 283.826 84.6694Z" fill="black"/>
<path d="M450.589 161.358C442.523 161.193 435.404 155.251 431.371 147.99C430.313 146.262 429.648 144.305 429.427 142.268C429.455 141.805 429.53 141.347 429.65 140.9C429.896 140.219 430.092 139.518 430.235 138.805C430.267 138.521 430.267 138.235 430.235 137.951C430.235 137.951 430.235 137.951 430.235 137.902C430.428 136.357 429.556 134.848 428.479 133.792C427.402 132.735 426.049 131.96 424.925 130.909C421.46 127.734 420.406 122.641 420.342 117.792V117.536C420.383 115.46 420.541 113.377 420.523 111.301C420.551 110.122 420.502 108.943 420.377 107.771C420.043 104.834 418.972 101.842 416.759 99.9668C410.987 95.0814 401.281 100.168 395.304 95.5516C393.852 94.4219 392.676 92.7548 390.914 92.3151C389.585 91.9792 388.203 92.4311 386.904 92.883C382.501 94.3975 377.59 96.3883 375.869 100.822C374.885 103.368 375.16 106.275 374.259 108.852C373.673 110.58 372.555 112.064 371.742 113.701C371.074 114.933 370.749 116.335 370.805 117.75C370.733 118.482 370.831 119.221 371.092 119.905C371.398 120.73 371.89 121.465 372.526 122.049C372.296 122.559 372.01 123.038 371.671 123.478C370.547 124.913 368.821 125.92 367.65 127.349C365.484 129.969 365.566 133.529 366.631 136.607C367.697 139.685 369.623 142.488 370.951 145.486C371.537 146.787 371.982 148.24 371.39 149.535C370.975 150.433 370.114 151.117 369.447 151.892C368.47 153.034 367.857 154.463 367.691 155.984C354.513 159.122 354.502 170.17 354.502 170.17L347.383 188.844C347.383 188.844 346.242 191.989 344.901 196.141L336.477 194.566L342.331 204.788C341.225 208.953 340.44 212.813 340.698 214.755C340.698 214.755 338.081 227.579 342.735 229.82L353.003 234.638C353.448 234.923 353.926 235.146 354.425 235.304L354.841 235.499C354.991 235.575 355.155 235.614 355.321 235.614C355.487 235.614 355.652 235.575 355.801 235.499H355.83H355.942C356.141 235.513 356.341 235.482 356.527 235.408C356.756 235.279 356.937 235.075 357.042 234.827C357.039 234.807 357.039 234.787 357.042 234.766L360.116 233.838L362.721 237.056C363.891 237.917 365.062 238.662 366.169 239.334L362.135 281.116C362.135 281.116 361.485 336.687 359.518 349.353C358.793 354.043 358.787 357.242 359.062 359.416L358.986 359.551C359.472 363.123 360.742 363.826 360.742 363.826V363.777C360.765 363.796 360.791 363.812 360.818 363.826C361.411 362.203 362.115 360.627 362.926 359.111C362.926 359.41 362.926 359.722 362.926 360.027C362.885 364.742 362.744 371.343 362.276 375.636C361.48 382.964 364.313 407.116 364.313 407.116L365.291 429.1C365.45 432.833 364.619 436.539 362.89 439.811C360.549 444.202 357.557 450.382 357.341 453.124C357.329 453.272 357.329 453.421 357.341 453.57V453.57L352.318 459.872C352.318 459.872 350.357 463.035 354.788 464.311C357.171 465.001 361.281 464.311 364.582 463.499C366.023 463.153 367.31 462.308 368.231 461.101C369.153 459.894 369.656 458.398 369.658 456.855C370.492 453.827 371.902 451.005 373.802 448.556L374.628 453.619L380.154 455.048L380.862 441.173C381.148 440.394 381.277 439.563 381.243 438.73V438.73C382.332 428.862 378.679 429.747 378.679 429.747C378.776 429.834 378.839 429.956 378.854 430.089L378.679 429.754C376.437 425.137 377.508 417.54 377.508 417.54C377.508 417.54 380.435 395.556 381.436 389.749C382.156 385.645 381.857 372.21 381.617 364.711C381.617 364.4 381.617 364.1 381.588 363.801C390.158 363.685 400.661 363.386 408.031 362.641V363.545L406.673 415.482C406.579 418.794 405.934 422.063 404.764 425.143C404.764 425.204 404.723 425.259 404.7 425.32C403.084 429.67 402.172 434.27 402.001 438.932L401.369 455.42V455.878C400.268 456.318 398.53 457.594 398.483 461.295C398.407 466.717 407.568 464.91 407.568 464.91C416.724 464.91 416.8 454.968 416.8 454.968C416.8 454.968 417.087 445.851 417.526 439.75C417.965 433.65 416.144 434.993 416.144 434.993L416.004 452.348C416.004 452.391 416.004 452.434 416.004 452.483V437.271L416.144 435.066V435.005V434.535L417.298 416.636C417.298 416.636 425.733 386.811 427.039 381.089C427.97 377.022 427.583 364.772 427.279 358C427.279 357.688 427.279 357.389 427.232 357.102C429.849 356.858 432.161 356.833 433.086 356.833H433.513C433.513 356.833 433.08 308.932 431.985 290.881C430.891 272.829 429.152 256.311 424.791 251.34C422.156 248.335 418.486 239.059 416.01 232.189C421.215 234.537 426.618 236.377 432.149 237.685C445.959 240.702 444.068 228.195 444.068 228.195L442.669 204.544H442.763C442.711 198.349 442.203 192.167 441.241 186.053C440.509 181.363 439.391 176.514 437.681 172.618C439.18 172.008 440.661 171.354 442.113 170.683C445.865 168.954 450.092 166.506 450.63 162.286H450.449C450.521 161.981 450.568 161.671 450.589 161.358V161.358ZM364.986 195.555C365.015 197.998 364.928 202.236 364.787 206.92L360.402 200.813L364.799 193.375L364.986 195.555ZM425.564 217.197L418.258 214.755C419.553 212.646 421.067 210.692 422.771 208.929L423.403 208.318L423.175 208.367L423.526 208.031L423.737 207.982L423.403 208.318L423.801 208.233C424.241 210.147 425.092 211.932 426.289 213.454C428.912 216.44 425.569 217.197 425.569 217.197H425.564Z" fill="url(#paint1_linear)"/>
<path d="M381.185 437.033L380.33 453.936L374.88 452.513L373.732 445.484L381.185 437.033Z" fill="#A27772"/>
<path opacity="0.1" d="M381.185 437.033L380.33 453.936L374.88 452.513L373.732 445.484L381.185 437.033Z" fill="black"/>
<path d="M401.188 456.177L409.5 457.973L415.664 452.293V436.288L415.805 434.101V434.034V433.57L416.952 415.781C416.952 415.781 425.271 386.17 426.565 380.485C427.478 376.454 427.097 364.29 426.793 357.566C426.67 354.812 426.565 352.968 426.565 352.968L408.212 348.333L407.826 363.05L406.485 414.615C406.393 417.902 405.757 421.147 404.606 424.209L404.542 424.386C402.946 428.704 402.046 433.269 401.878 437.894L401.258 454.29V454.742L401.188 456.177Z" fill="#CC818C"/>
<path opacity="0.1" d="M401.188 456.177L409.5 457.973L415.664 452.293V450.932C415.644 451.233 415.553 451.525 415.399 451.78C415.245 452.036 415.032 452.248 414.781 452.397L414.693 452.452C411.829 454.031 408.585 454.7 405.361 454.376L402.118 454.089C401.823 454.118 401.533 454.192 401.258 454.309V454.761L401.188 456.177Z" fill="black"/>
<path d="M414.693 452.898L414.781 452.849C415.051 452.691 415.277 452.46 415.434 452.182C415.591 451.903 415.675 451.585 415.676 451.262L415.811 434.035C415.811 434.035 417.603 432.697 417.169 438.755C416.736 444.813 416.455 453.863 416.455 453.863C416.455 453.863 416.385 463.732 407.352 463.732C407.352 463.732 398.319 465.527 398.39 460.141C398.46 454.755 402.119 454.535 402.119 454.535L405.362 454.828C408.586 455.153 411.831 454.482 414.693 452.898Z" fill="#B07473"/>
<path d="M357.891 452.513C358.102 456.403 369.072 454.156 369.072 454.156L376.454 439.207C376.454 439.207 382.619 434.266 379.533 429.931C379.368 429.695 379.218 429.448 379.083 429.192C379.083 429.192 379.083 429.192 379.053 429.155C378.989 429.045 378.931 428.929 378.872 428.807C376.659 424.227 377.748 416.716 377.748 416.716C377.748 416.716 380.611 394.878 381.618 389.12C382.326 385.052 382.033 371.709 381.799 364.247C381.705 361.145 381.618 359.062 381.618 359.062L363.406 353.975C363.406 353.975 363.406 356.345 363.406 359.642C363.365 364.326 363.224 370.879 362.762 375.141C361.977 382.39 364.77 406.395 364.77 406.395L365.736 428.239C365.903 431.94 365.093 435.617 363.394 438.871C361.111 443.231 358.125 449.374 357.92 452.092C357.9 452.231 357.89 452.372 357.891 452.513V452.513Z" fill="#CC818C"/>
<path opacity="0.1" d="M357.891 452.513C358.102 456.403 369.073 454.156 369.073 454.156L376.454 439.207C376.454 439.207 382.619 434.266 379.534 429.931C379.369 429.694 379.218 429.448 379.083 429.192C378.983 431.457 376.601 437.13 376.601 437.13C376.601 437.13 370.507 449.851 368.569 452.764C366.631 455.676 358.213 452.22 357.897 452.098C357.885 452.236 357.883 452.375 357.891 452.513V452.513Z" fill="black"/>
<path d="M378.872 428.789C378.872 428.789 382.478 427.915 381.401 437.71C381.442 438.823 381.199 439.928 380.699 440.911C380.198 441.895 379.456 442.723 378.55 443.31C375.968 445.002 371.987 448.641 369.974 455.719C369.975 457.246 369.482 458.729 368.573 459.927C367.664 461.124 366.394 461.966 364.968 462.314C361.714 463.108 357.657 463.804 355.309 463.12C350.936 461.85 352.874 458.711 352.874 458.711L357.891 452.501C357.891 452.501 366.637 456.092 368.569 453.173C370.5 450.254 376.6 437.546 376.6 437.546C376.6 437.546 379.943 429.613 378.872 428.789Z" fill="#B07473"/>
<path opacity="0.1" d="M408.212 350.147L407.826 364.864C412.714 364.369 416.214 363.679 416.812 362.708C418.105 360.62 422.8 359.74 426.793 359.38C426.67 356.626 426.564 354.782 426.564 354.782L408.212 350.147Z" fill="black"/>
<path opacity="0.1" d="M363.405 361.432C363.873 360.435 364.561 359.568 365.413 358.903C367.345 357.786 367.134 366.085 367.134 366.085C367.134 366.085 373.574 366.146 381.799 366.036C381.705 362.934 381.617 360.845 381.617 360.845L363.405 355.765C363.405 355.765 363.44 358.122 363.405 361.432Z" fill="black"/>
<path d="M361.328 363.398C361.328 363.398 363.482 357.291 365.425 356.204C367.369 355.117 367.147 363.38 367.147 363.38C367.147 363.38 414.459 363.832 416.824 360.015C419.189 356.198 432.952 356.424 432.952 356.424C432.952 356.424 432.524 308.865 431.447 290.924C430.37 272.982 428.655 256.598 424.352 251.664C421.571 248.47 417.614 238.137 415.167 231.249C413.838 227.487 412.954 224.745 412.954 224.745L367.796 227.432L367.427 231.249L362.633 281.275C362.633 281.275 361.989 336.461 360.051 349.023C358.114 361.584 361.328 363.398 361.328 363.398Z" fill="#444053"/>
<g opacity="0.1">
<path opacity="0.1" d="M413.147 360.015C415.489 356.205 429.275 356.424 429.275 356.424C429.275 356.424 428.848 308.865 427.771 290.924C426.694 272.982 424.978 256.598 420.676 251.664C417.883 248.458 413.938 238.137 411.491 231.249C410.373 228.086 409.571 225.649 409.348 224.953L412.861 224.745C412.861 224.745 413.745 227.487 415.079 231.249C417.526 238.137 421.478 248.47 424.258 251.664C428.561 256.598 430.282 272.976 431.353 290.924C432.425 308.871 432.864 356.424 432.864 356.424C432.864 356.424 419.101 356.205 416.73 360.015C414.71 363.27 379.897 363.423 369.792 363.392C382.759 363.362 411.321 362.959 413.147 360.015Z" fill="black"/>
<path opacity="0.1" d="M361.749 356.205C362.621 355.698 363.054 357.102 363.271 358.806C362.489 360.284 361.81 361.819 361.24 363.398C361.24 363.398 359.993 362.696 359.483 359.124C360.198 357.847 360.988 356.644 361.749 356.205Z" fill="black"/>
</g>
<path d="M375.284 109.676C372.158 114.122 375.319 120.443 371.964 124.766C370.858 126.195 369.154 127.209 368.001 128.613C365.864 131.215 365.946 134.751 366.994 137.804C368.042 140.857 369.921 143.642 371.256 146.622C371.841 147.91 372.275 149.358 371.689 150.64C371.279 151.532 370.431 152.21 369.769 152.979C367.615 155.489 367.556 158.976 368.715 161.931C369.874 164.887 372.087 167.428 374.271 169.931C375.131 170.914 376.22 172.001 377.655 171.971C378.409 171.911 379.138 171.662 379.779 171.244C384.746 168.598 388.543 164.055 390.379 158.562C392.215 153.069 391.95 147.049 389.638 141.755C387.823 137.218 384.796 132.87 384.767 128.076C384.767 124.271 386.64 120.638 386.974 116.852C387.378 112.247 384.767 104.938 379.44 102.928C379.791 105.884 376.87 107.392 375.284 109.676Z" fill="#585268"/>
<path opacity="0.1" d="M375.284 109.676C372.158 114.122 375.319 120.443 371.964 124.766C370.858 126.195 369.154 127.209 368.001 128.613C365.864 131.215 365.946 134.751 366.994 137.804C368.042 140.857 369.921 143.642 371.256 146.622C371.841 147.91 372.275 149.358 371.689 150.64C371.279 151.532 370.431 152.21 369.769 152.979C367.615 155.489 367.556 158.976 368.715 161.931C369.874 164.887 372.087 167.428 374.271 169.931C375.131 170.914 376.22 172.001 377.655 171.971C378.409 171.911 379.138 171.662 379.779 171.244C384.746 168.598 388.543 164.055 390.379 158.562C392.215 153.069 391.95 147.049 389.638 141.755C387.823 137.218 384.796 132.87 384.767 128.076C384.767 124.271 386.64 120.638 386.974 116.852C387.378 112.247 384.767 104.938 379.44 102.928C379.791 105.884 376.87 107.392 375.284 109.676Z" fill="black"/>
<path opacity="0.1" d="M409.951 271.388C403.693 271.73 397.804 274.539 392.325 277.715C386.845 280.89 381.541 284.487 375.646 286.741" fill="black"/>
<path opacity="0.1" d="M406.064 286.771C399.873 287.387 394.105 290.314 389.819 295.015C388.297 296.694 386.986 298.575 385.399 300.187C382.971 302.66 379.97 304.433 376.688 305.335" fill="black"/>
<path opacity="0.1" d="M407.346 298.478C402.353 299.923 397.835 302.765 394.28 306.697C393.32 307.778 392.448 308.932 391.487 310.013C386.307 315.815 378.989 318.892 371.923 321.805" fill="black"/>
<path d="M406.813 136.131C406.951 141.347 407.381 146.551 408.101 151.715C408.686 155.379 409.506 158.677 410.683 160.136C414.125 164.411 393.911 170.121 393.911 170.121L381.975 160.472C381.975 160.472 391.435 151.385 387.027 142.525C382.619 133.664 406.813 136.131 406.813 136.131Z" fill="#CC818C"/>
<path opacity="0.1" d="M367.416 231.249H415.156C413.827 227.487 412.943 224.745 412.943 224.745L367.785 227.432L367.416 231.249Z" fill="black"/>
<path d="M364.343 230.351H415.384C413.95 224.995 415.384 220.043 417.427 216.232C418.859 213.562 420.66 211.126 422.772 209.002L423.123 208.666L440.942 204.55L441.903 204.33C441.903 204.33 442.049 170.53 430.575 165.889C419.101 161.247 412.223 154.976 412.223 154.976L396.458 160.057L384.843 153.95C381.114 158.133 371.221 156.49 371.221 156.49C355.023 158.432 355.023 171.146 355.023 171.146C355.023 171.146 364.483 194.175 365.203 194.175C365.923 194.175 364.343 230.351 364.343 230.351Z" fill="#6C63FF"/>
<path opacity="0.1" d="M381.963 208.862C381.963 208.862 371.555 206.456 368.013 202.248Z" fill="black"/>
<path opacity="0.1" d="M434.445 196.251L422.374 206.572C422.461 207.393 422.594 208.209 422.772 209.014L423.123 208.678L440.943 204.562L434.445 196.251Z" fill="black"/>
<path opacity="0.1" d="M401.762 226.76C401.762 226.76 404.402 228.311 408.447 230.351H415.384C413.95 224.996 415.384 220.043 417.427 216.232L405.198 212.104C409.36 216.141 401.762 226.76 401.762 226.76Z" fill="black"/>
<path d="M362.188 167.092L355.023 171.128L347.998 189.674C347.998 189.674 340.686 210.009 341.4 215.396C341.4 215.396 338.825 228.11 343.408 230.351L355.351 235.994C355.562 236.091 355.796 236.117 356.022 236.069C356.248 236.021 356.454 235.9 356.612 235.724C356.769 235.549 356.871 235.326 356.902 235.088C356.933 234.849 356.892 234.607 356.785 234.394C355.081 231.029 353.208 225.765 356.199 222.87L352.757 215.396L365.197 194.156L369.353 186.828L362.188 167.092Z" fill="#6C63FF"/>
<path opacity="0.1" d="M378.128 204.618C378.749 207.256 380.845 211.335 387.782 212.856L395.392 219.359L403.488 223.188L406.79 224.745L408.189 214.199L405.01 212.367L401.304 210.254C401.304 210.254 392.945 194.456 379.709 201.094C379.094 201.398 378.6 201.916 378.311 202.559C378.023 203.202 377.958 203.93 378.128 204.618Z" fill="black"/>
<path d="M378.562 203.72C379.182 206.364 381.272 210.437 388.209 211.958L395.819 218.461L403.921 222.29L407.217 223.847L408.616 213.301L405.438 211.469L401.761 209.375C401.761 209.375 393.396 193.576 380.16 200.245C379.551 200.544 379.06 201.053 378.769 201.686C378.478 202.319 378.405 203.037 378.562 203.72V203.72Z" fill="#CC818C"/>
<path opacity="0.1" d="M393.478 149.81C403.691 149.81 411.971 141.173 411.971 130.519C411.971 119.865 403.691 111.228 393.478 111.228C383.264 111.228 374.985 119.865 374.985 130.519C374.985 141.173 383.264 149.81 393.478 149.81Z" fill="black"/>
<path d="M393.478 149.364C403.691 149.364 411.971 140.727 411.971 130.073C411.971 119.419 403.691 110.782 393.478 110.782C383.264 110.782 374.985 119.419 374.985 130.073C374.985 140.727 383.264 149.364 393.478 149.364Z" fill="#CC818C"/>
<path opacity="0.1" d="M404.934 171.293L399.373 160.02C399.373 160.02 407.51 156.588 408.101 152.613C408.692 148.637 415.898 157.272 414.341 160.136C412.784 163 404.934 171.293 404.934 171.293Z" fill="black"/>
<path d="M404.934 170.395L399.373 159.123C399.373 159.123 407.51 155.691 408.101 151.715C408.692 147.74 415.898 156.381 414.341 159.239C412.784 162.096 404.934 170.395 404.934 170.395Z" fill="#6C63FF"/>
<path d="M359.419 199.519L390.147 242.614C390.147 242.614 378.819 249.044 363.218 237.533L356.48 229.154L337.244 195.329L359.419 199.519Z" fill="#F6F8FB"/>
<path d="M353.372 222.95L356.17 222.87C356.17 222.87 373.264 205.564 377.461 214.321C381.659 223.078 366.813 231.261 366.813 231.261L362.299 233.801L356.416 235.633L352.652 230.363L353.372 222.95Z" fill="#CC818C"/>
<path opacity="0.1" d="M357.499 232.299C357.757 233.295 358.002 234.394 357.569 235.316C357.465 235.563 357.286 235.767 357.06 235.896C356.874 235.971 356.673 236 356.475 235.982C354.994 235.85 353.615 235.139 352.617 233.991C351.636 232.847 350.796 231.579 350.117 230.217C349.356 228.831 348.566 227.298 348.835 225.722C349.139 224.006 350.591 222.815 352.014 221.851C354.847 219.896 354.941 222.174 355.561 224.69C356.182 227.206 356.849 229.759 357.499 232.299Z" fill="black"/>
<path d="M357.072 232.299C357.324 233.295 357.575 234.394 357.142 235.316C357.038 235.563 356.859 235.767 356.633 235.896C356.446 235.97 356.246 236 356.047 235.982C354.566 235.853 353.187 235.141 352.19 233.991C351.205 232.848 350.363 231.58 349.684 230.217C348.923 228.831 348.133 227.298 348.408 225.722C348.707 224.006 350.164 222.815 351.581 221.851C354.42 219.896 354.508 222.174 355.134 224.69C355.761 227.206 356.416 229.759 357.072 232.299Z" fill="#6C63FF"/>
<path opacity="0.1" d="M365.203 194.157L366.631 191.635L365.384 196.318L365.203 194.157Z" fill="black"/>
<path opacity="0.1" d="M403.944 222.29L407.24 223.848L408.639 213.301L405.461 211.469C407.656 214.095 405.736 218.95 403.944 222.29Z" fill="black"/>
<path opacity="0.1" d="M417.175 210.046C417.175 210.046 406.532 210.724 402.013 207.695Z" fill="black"/>
<g opacity="0.1">
<path opacity="0.1" d="M415.852 217.13C417.284 214.458 419.085 212.02 421.197 209.894C421.703 209.562 422.229 209.265 422.772 209.002L439.362 205.448L440.322 205.228C440.322 205.228 440.468 171.428 429 166.786C422.567 164.235 416.537 160.692 411.11 156.277L412.369 155.874C412.369 155.874 419.247 162.151 430.721 166.786C442.195 171.421 442.043 205.228 442.043 205.228H440.322L423.345 208.617C423.345 208.617 422.614 209.356 422.391 209.57C420.262 211.795 418.436 214.314 416.964 217.057C414.718 221.408 414.207 226.507 415.542 231.249H413.786C412.369 225.893 413.832 220.941 415.852 217.13Z" fill="black"/>
<path opacity="0.1" d="M370.542 157.468C370.817 157.425 371.08 157.382 371.367 157.352C372.531 157.524 373.704 157.624 374.879 157.651C373.431 157.693 371.982 157.632 370.542 157.468V157.468Z" fill="black"/>
<path opacity="0.1" d="M394.877 160.955L384.375 155.41C384.583 155.231 384.779 155.038 384.96 154.83L395.919 160.613L394.877 160.955Z" fill="black"/>
</g>
<path d="M434.86 195.329L441.885 204.306L443.319 228.684C443.319 228.684 445.18 241.093 431.564 238.101C417.947 235.108 402.188 225.863 402.188 225.863C402.188 225.863 409.799 215.243 405.631 211.207L425.13 217.79C425.13 217.79 428.426 217.039 425.845 214.053C423.263 211.066 422.806 205.674 422.806 205.674L434.86 195.329Z" fill="#6C63FF"/>
<path opacity="0.1" d="M438.033 221.081L441.903 225.716C440.907 225.397 440.017 224.794 439.334 223.975C438.65 223.156 438.199 222.153 438.033 221.081V221.081Z" fill="black"/>
<path opacity="0.1" d="M431.435 220.33L437.459 228.403L434.45 229.154L431.435 220.33Z" fill="black"/>
<path opacity="0.1" d="M371.39 121.218C370.729 119.527 371.238 117.554 372.034 115.96C372.83 114.367 373.925 112.858 374.522 111.142C375.406 108.59 375.137 105.701 376.103 103.204C377.806 98.7762 382.648 96.7976 386.985 95.2648C388.267 94.819 389.631 94.3732 390.943 94.703C392.699 95.1366 393.84 96.7976 395.275 97.9151C401.164 102.495 410.741 97.451 416.437 102.3C418.615 104.132 419.674 107.13 420.002 110.043C420.33 112.956 420.002 115.912 419.967 118.849C419.873 123.991 420.798 129.615 424.486 133.023C425.599 134.049 426.91 134.818 427.999 135.881C429.088 136.943 429.942 138.427 429.755 139.966C429.611 140.673 429.415 141.367 429.17 142.042C428.438 144.723 429.532 147.538 430.867 149.981C434.848 157.169 441.867 163.092 449.823 163.257C449.29 167.446 445.139 169.877 441.422 171.593C436.739 173.785 431.751 175.934 426.594 175.66C421.436 175.385 416.057 171.941 415.155 166.64C414.845 164.808 414.886 162.604 413.399 161.651C412.486 161.071 411.303 161.217 410.32 160.784C408.897 160.173 408.195 158.506 407.726 156.973C406.767 153.81 406.252 150.519 406.198 147.202C406.134 143.27 406.632 138.977 404.495 135.74C402.516 132.742 399.004 131.221 396.721 128.467C394.613 125.914 392.324 122.837 388.87 122.36C384.094 121.658 374.212 128.43 371.39 121.218Z" fill="black"/>
<path d="M371.39 120.32C370.729 118.629 371.238 116.656 372.034 115.063C372.83 113.469 373.925 111.96 374.522 110.244C375.406 107.692 375.137 104.803 376.103 102.306C377.806 97.8721 382.648 95.8936 386.985 94.3669C388.267 93.9211 389.631 93.4753 390.943 93.8051C392.699 94.2386 393.84 95.8997 395.275 97.0172C401.164 101.597 410.741 96.5531 416.437 101.402C418.615 103.234 419.674 106.232 420.002 109.151C420.33 112.07 420.002 115.014 419.967 117.951C419.873 123.093 420.798 128.717 424.486 132.125C425.599 133.151 426.91 133.92 427.999 134.983C429.088 136.045 429.942 137.529 429.755 139.068C429.611 139.775 429.415 140.469 429.17 141.144C428.438 143.825 429.532 146.64 430.867 149.083C434.86 156.246 441.849 162.188 449.805 162.353C449.272 166.542 445.122 168.973 441.404 170.695C436.721 172.881 431.734 175.03 426.576 174.756C421.419 174.481 416.039 171.037 415.137 165.736C414.827 163.904 414.868 161.699 413.381 160.747C412.468 160.167 411.285 160.313 410.302 159.88C408.879 159.269 408.177 157.602 407.709 156.069C406.749 152.906 406.234 149.615 406.181 146.298C406.116 142.366 406.614 138.073 404.477 134.836C402.499 131.838 398.986 130.317 396.703 127.563C394.596 125.01 392.307 121.933 388.853 121.456C384.093 120.76 374.212 127.545 371.39 120.32Z" fill="#585268"/>
<path opacity="0.1" d="M384.515 169.895L395.117 160.918C395.117 160.918 387.858 156.814 386.992 153.315C386.125 149.816 380.318 154.976 380.909 158.115C381.501 161.254 384.515 169.895 384.515 169.895Z" fill="black"/>
<path d="M384.931 168.545L395.533 159.574C395.533 159.574 388.274 155.471 387.443 151.971C386.611 148.472 380.769 153.632 381.36 156.771C381.952 159.91 384.931 168.545 384.931 168.545Z" fill="#6C63FF"/>
<path opacity="0.1" d="M395.948 167.965C396.414 167.965 396.791 167.571 396.791 167.086C396.791 166.6 396.414 166.206 395.948 166.206C395.482 166.206 395.105 166.6 395.105 167.086C395.105 167.571 395.482 167.965 395.948 167.965Z" fill="black"/>
<path opacity="0.1" d="M395.948 172.851C396.414 172.851 396.791 172.457 396.791 171.971C396.791 171.485 396.414 171.092 395.948 171.092C395.482 171.092 395.105 171.485 395.105 171.971C395.105 172.457 395.482 172.851 395.948 172.851Z" fill="black"/>
<path opacity="0.1" d="M395.948 177.73C396.414 177.73 396.791 177.336 396.791 176.85C396.791 176.365 396.414 175.971 395.948 175.971C395.482 175.971 395.105 176.365 395.105 176.85C395.105 177.336 395.482 177.73 395.948 177.73Z" fill="black"/>
<g opacity="0.1">
<path opacity="0.1" d="M375.67 107.851C376.507 105.451 376.326 102.758 377.11 100.339C376.747 100.874 376.446 101.452 376.214 102.061C375.243 104.584 375.518 107.472 374.628 110L374.569 110.147C375.003 109.418 375.371 108.65 375.67 107.851V107.851Z" fill="black"/>
<path opacity="0.1" d="M442.552 168.301C437.869 170.487 432.881 172.637 427.724 172.362C422.566 172.087 417.186 168.643 416.285 163.348C415.975 161.516 416.016 159.306 414.529 158.353C413.615 157.773 412.433 157.92 411.449 157.486C410.027 156.875 409.324 155.208 408.856 153.675C407.896 150.513 407.381 147.222 407.328 143.905C407.264 139.978 407.767 135.685 405.631 132.442C403.646 129.444 400.134 127.93 397.851 125.169C395.743 122.623 393.454 119.539 390 119.063C385.264 118.391 375.365 125.169 372.567 117.951C372.118 116.587 372.183 115.096 372.749 113.78C372.544 114.141 372.345 114.501 372.163 114.867C371.367 116.492 370.864 118.44 371.525 120.131C374.341 127.337 384.222 120.565 388.958 121.243C392.412 121.731 394.701 124.815 396.809 127.349C399.092 130.11 402.604 131.624 404.583 134.629C406.725 137.865 406.222 142.158 406.286 146.085C406.339 149.402 406.854 152.693 407.814 155.855C408.282 157.394 408.985 159.043 410.407 159.666C411.391 160.1 412.573 159.959 413.487 160.533C414.997 161.486 414.956 163.715 415.243 165.529C416.156 170.823 421.53 174.267 426.682 174.542C431.833 174.817 436.797 172.673 441.51 170.481C444.905 168.906 448.687 166.725 449.705 163.153C448.078 165.474 445.198 167.073 442.552 168.301Z" fill="black"/>
</g>
<path d="M546.01 202.767C533.617 195.329 528.934 193.497 528.91 193.497L528.653 193.308C527.303 192.226 526.231 190.812 525.533 189.192C525.518 188.897 525.518 188.602 525.533 188.307C525.529 188.335 525.529 188.364 525.533 188.392C525.726 184.453 528.413 180.869 530.959 177.742L537.475 169.748C538.215 168.957 538.788 168.013 539.155 166.976C539.286 166.419 539.346 165.846 539.331 165.272C539.331 165.04 539.331 164.808 539.331 164.576C539.295 162.591 539.243 160.6 539.172 158.616C539.114 156.881 538.687 154.695 537.024 154.341C536.158 154.158 535.01 154.482 534.554 153.73C534.399 153.412 534.359 153.045 534.442 152.698C534.439 152.727 534.439 152.755 534.442 152.784V152.686C534.764 151.346 534.97 149.979 535.057 148.601C535.093 147.899 535.002 147.197 534.788 146.531C533.828 143.654 530.509 142.47 527.576 141.926C524.643 141.383 521.353 140.919 519.515 138.525C519.023 137.726 518.487 136.957 517.911 136.222C517.062 135.436 516.027 134.903 514.913 134.677C511.273 133.742 507.438 134.09 504.007 135.667C502.591 136.326 501.168 137.218 499.611 137.12C498.054 137.022 496.614 135.85 495.021 135.569C492.446 135.111 489.981 137.084 488.711 139.422C487.959 140.809 487.556 142.372 487.54 143.966V144.234C487.503 145.949 488.103 147.612 489.214 148.876C490.327 150.097 491.977 150.903 492.44 152.485C492.627 153.126 492.58 153.822 492.75 154.475C492.768 154.556 492.792 154.636 492.82 154.714L492.738 154.83C490.081 158.376 488.638 162.749 488.641 167.251C488.67 171.623 490.03 175.873 492.526 179.385C495.022 182.898 498.524 185.492 502.526 186.792C502.526 186.994 502.526 187.195 502.526 187.403C502.526 189.845 501.853 192.392 499.833 194.242L482.277 201.558C482.277 201.558 471.693 200.245 467.876 216.379C467.267 219.057 467.046 221.816 467.221 224.562C467.361 227.005 467.039 231.28 464.294 236.818C459.956 245.685 460.945 266.039 469.82 268.054C478.197 269.959 481.475 269.166 481.821 269.074V269.428C481.68 273.251 480.351 306.191 475.522 310.172C474.187 311.277 474.433 312.004 475.522 312.523C475.522 312.523 475.522 312.737 475.492 313.134C475.346 315.577 474.603 324.737 471.395 329.94C467.642 335.985 468.034 370.855 468.034 370.855L465.476 391.41C465.476 391.41 467.051 404.106 465.476 406.322C464.065 408.295 462.192 455.262 461.8 465.448H461.636C460.86 465.5 460.109 465.75 459.448 466.176C458.786 466.602 458.235 467.191 457.843 467.89C455.77 471.402 448.511 477.893 448.511 477.893C446.937 480.226 441.112 482.461 438.033 483.511C437.626 483.65 437.234 483.83 436.862 484.049C435.709 484.703 434.783 485.72 434.216 486.955C434.013 487.321 433.883 487.727 433.835 488.147C433.786 488.566 433.821 488.992 433.935 489.398C434.719 491.407 451.093 492.824 455.238 490.803C458.492 489.221 471.395 487.139 476.751 486.32C477.724 486.193 478.628 485.731 479.321 485.008C480.015 484.284 480.457 483.341 480.58 482.326C480.631 481.976 480.613 481.619 480.529 481.276C480.444 480.933 480.294 480.611 480.088 480.33C479.063 479.004 478.542 475.383 478.332 473.002C478.767 472.817 479.173 472.566 479.538 472.256C479.09 464.936 480.086 457.597 482.465 450.694C486.41 439.812 487.593 419.659 486.609 406.56C486.609 406.56 498.639 352.553 508.111 347.515C508.257 347.71 512.853 353.86 513.438 372.906C514.024 392.252 520.732 404.948 520.732 404.948C520.732 404.948 517.77 437.796 520.732 450.089L516.863 469.478C516.576 469.228 516.395 469.032 516.395 469.032C516.395 469.032 516.512 469.57 516.67 470.431L516.588 470.846L516.757 470.882C517.197 473.325 517.846 477.533 517.577 480.043C517.425 481.453 517.044 483.389 516.787 485.288C516.377 488.274 516.266 491.169 517.77 491.804C520.241 492.842 534.747 494.247 537.206 490.925C537.759 490.248 538.119 489.423 538.245 488.543C538.371 487.663 538.259 486.764 537.92 485.948C537.743 485.49 537.502 485.062 537.206 484.678C537.206 484.678 533.354 478.113 534.442 473.484C534.543 473.032 534.554 472.563 534.474 472.106C534.395 471.649 534.226 471.214 533.98 470.828C534.15 468.556 535.028 458.04 537.299 449.112C539.77 439.415 544.974 418.151 541.145 404.173C541.001 403.623 540.837 403.086 540.654 402.561C538.444 394.928 537.706 386.914 538.482 378.983C537.06 372.211 537.06 365.199 538.482 358.427C540.853 347.142 542.509 336.058 542.509 336.058C542.509 336.058 543.815 321.146 542.673 312.004C542.673 311.809 542.62 311.613 542.597 311.393L543.218 311.247C543.218 311.247 539.863 295.73 538.681 285.855C538.4 283.522 538.037 280.573 537.639 277.422C538.73 277.233 539.805 276.953 540.853 276.585C551.501 272.756 554.855 238.113 554.855 238.113V227.121C554.855 227.121 558.438 210.224 546.01 202.767ZM466.653 470.388C466.325 470.217 466.132 470.101 466.132 470.101L466.653 470.388Z" fill="url(#paint2_linear)"/>
<path d="M539.582 402.781C544.201 416.637 538.81 439.128 536.304 449.192C533.799 459.255 533.032 471.286 533.032 471.286C523.214 472.892 516.09 470.883 516.09 470.883L520.135 450.199C517.243 437.949 520.135 405.211 520.135 405.211C520.135 405.211 513.59 392.558 513.011 373.279C512.426 354.305 507.959 348.168 507.818 347.979C498.581 352.999 486.838 406.823 486.838 406.823C487.798 419.873 486.639 439.958 482.793 450.791C480.456 457.678 479.475 464.984 479.906 472.275C478.56 473.496 476.687 473.667 474.638 473.325C469.141 472.397 462.549 467.457 462.549 467.457C462.549 467.457 464.663 408.832 466.208 406.609C467.754 404.387 466.208 391.746 466.208 391.746L468.708 371.264C468.708 371.264 468.321 336.517 471.98 330.495C475.141 325.292 475.867 316.145 476.008 313.745C476.008 313.366 476.008 313.134 476.008 313.134L481.581 306.172C481.581 306.172 535.485 301.953 539.535 306.172C540.525 307.204 541.139 309.562 541.502 312.523C542.615 321.634 541.339 336.492 541.339 336.492C541.339 336.492 539.723 347.539 537.41 358.782C536.024 365.534 536.024 372.517 537.41 379.27C536.667 387.179 537.405 395.164 539.582 402.781V402.781Z" fill="#65617D"/>
<path d="M536.21 490.839C533.804 494.155 519.655 492.75 517.243 491.718C515.774 491.108 515.885 488.195 516.283 485.221C516.535 483.334 516.904 481.404 517.056 480C517.437 476.385 515.885 469.05 515.885 469.05C515.885 469.05 519.058 472.568 519.825 469.05C520.165 467.512 521.347 466.724 522.576 466.327C524.226 465.806 526 465.921 527.576 466.65C530.075 467.786 534.244 470.199 533.5 473.459C532.44 478.07 536.193 484.616 536.193 484.616C536.484 484.998 536.72 485.422 536.895 485.874C537.229 486.688 537.342 487.581 537.221 488.457C537.1 489.333 536.751 490.157 536.21 490.839V490.839Z" fill="#A27772"/>
<path opacity="0.1" d="M536.211 490.839C533.805 494.155 519.655 492.75 517.244 491.718C515.774 491.108 515.885 488.195 516.284 485.221C517.806 485.966 520.381 486.583 524.696 486.167C525.702 486.068 526.712 486.035 527.722 486.07C530.787 486.214 533.857 486.148 536.913 485.874C537.245 486.689 537.354 487.584 537.23 488.46C537.106 489.335 536.754 490.159 536.211 490.839V490.839Z" fill="black"/>
<path opacity="0.1" d="M486.832 406.799C487.792 419.849 486.633 439.934 482.786 450.767C480.45 457.653 479.469 464.96 479.9 472.25C478.554 473.472 476.681 473.643 474.632 473.301C475.803 464.831 480.743 428.337 483.91 399.501C487.522 366.665 504.399 344.077 504.399 344.077L507.766 347.942C498.575 352.974 486.832 406.799 486.832 406.799Z" fill="black"/>
<path d="M530.433 195.726L528.091 207.775L516.576 227.957L502.38 221.631C502.38 221.631 483.062 200.544 495.209 197.534C496.661 197.208 498.032 196.571 499.237 195.665C501.619 193.79 502.369 191.067 502.38 188.398C502.29 185.412 501.625 182.475 500.425 179.763L525.258 171.629C524.244 175.033 523.653 178.559 523.502 182.12C523.308 189.18 525.843 192.654 527.886 194.334C528.64 194.966 529.505 195.439 530.433 195.726V195.726Z" fill="#FBBEBE"/>
<path opacity="0.1" d="M525.234 171.629C524.22 175.033 523.63 178.559 523.478 182.12C523.025 182.683 522.542 183.22 522.032 183.726C519.468 186.281 516.289 188.064 512.832 188.886C509.376 189.709 505.77 189.54 502.398 188.398C502.302 185.411 501.631 182.474 500.425 179.763L525.234 171.629Z" fill="black"/>
<path d="M528.085 168.313C528.086 172.366 526.935 176.327 524.778 179.697C522.621 183.067 519.554 185.694 515.965 187.246C512.376 188.798 508.427 189.204 504.617 188.414C500.807 187.625 497.307 185.674 494.559 182.809C491.812 179.944 489.941 176.293 489.183 172.319C488.424 168.344 488.813 164.224 490.299 160.48C491.786 156.736 494.303 153.536 497.533 151.285C500.763 149.033 504.56 147.831 508.445 147.831C511.027 147.818 513.586 148.339 515.974 149.364C518.362 150.389 520.532 151.897 522.358 153.801C524.184 155.706 525.631 157.969 526.614 160.459C527.597 162.95 528.097 165.62 528.085 168.313V168.313Z" fill="#FBBEBE"/>
<path opacity="0.1" d="M530.433 195.726L528.091 207.775L516.576 227.958L502.38 221.631C502.38 221.631 483.062 200.545 495.209 197.534C496.661 197.208 498.032 196.572 499.237 195.665C497.047 201.943 506.086 215.005 506.086 215.005C507.14 216.623 509.551 215.616 509.551 215.616C515.376 214.694 526.095 197.222 527.845 194.316C528.61 194.959 529.49 195.439 530.433 195.726Z" fill="black"/>
<path opacity="0.1" d="M541.549 312.535C538.131 313.348 519.216 317.714 512.045 316.621C504.154 315.4 488.811 314.618 488.811 314.618C488.811 314.618 479.04 315.167 476.031 313.732C476.031 313.354 476.031 313.122 476.031 313.122L481.604 306.16C481.604 306.16 535.508 301.94 539.559 306.16C540.572 307.217 541.187 309.574 541.549 312.535Z" fill="black"/>
<path d="M506.08 215.61C506.08 215.61 495.923 200.954 499.752 195.213L482.593 202.541C482.593 202.541 472.267 201.234 468.544 217.313C467.949 219.986 467.734 222.735 467.906 225.472C468.046 227.915 467.73 232.189 465.078 237.685C460.846 246.522 461.806 266.808 470.47 268.83C479.134 270.851 482.207 269.831 482.207 269.831C482.207 269.831 481.036 306.581 476.049 310.801C471.061 315.021 488.81 314.013 488.81 314.013C488.81 314.013 504.154 314.819 512.051 316.022C519.948 317.225 542.082 311.803 542.082 311.803C542.082 311.803 538.81 296.34 537.65 286.502C536.491 276.665 533.793 255.706 533.793 255.706L553.427 227.957C553.427 227.957 556.893 211.188 544.763 203.757C532.634 196.325 528.073 194.505 528.073 194.505C528.073 194.505 515.885 215.207 509.534 216.208C509.545 216.208 507.133 217.222 506.08 215.61Z" fill="#6C63FF"/>
<path opacity="0.1" d="M483.554 221.429C483.554 221.429 483.366 228.061 484.52 230.669C485.673 233.276 489.911 247.767 489.911 247.767H480.281C480.281 247.767 485.48 241.942 485.099 239.126C484.719 236.311 483.554 221.429 483.554 221.429Z" fill="black"/>
<path d="M512.051 271.437C512.051 271.437 490.789 266.014 488.811 261.398C486.832 256.781 481.37 246.442 481.37 246.442L483.612 243.291L493.95 251.755C493.95 251.755 506.244 261.996 512.051 263.004C517.858 264.011 512.051 271.437 512.051 271.437Z" fill="#FBBEBE"/>
<path opacity="0.05" d="M512.051 271.437C512.051 271.437 490.789 266.014 488.811 261.398C486.832 256.781 481.37 246.442 481.37 246.442L483.612 243.291L493.95 251.755C493.95 251.755 506.244 261.996 512.051 263.004C517.858 264.011 512.051 271.437 512.051 271.437Z" fill="black"/>
<path d="M530.433 245.331V257.361H528.583C519.422 257.359 510.412 259.793 502.404 264.433L498.926 266.442L497.995 266.985L492.024 252.94L497.609 247.719H497.896C499.26 247.859 505.167 248.372 507.672 247.493C510.049 246.65 512.999 243.981 520.001 245.844C523.449 246.766 526.399 250.796 529.742 249.538L530.433 245.331Z" fill="#FBBEBE"/>
<path opacity="0.1" d="M549.013 223.42L552.859 227.939V238.888C552.859 238.888 549.587 273.428 539.196 277.245C528.805 281.061 510.242 275.034 510.242 275.034C510.242 275.034 505.448 261.783 507.69 260.989C509.932 260.195 527.506 255.346 527.506 255.346C527.506 255.346 527.26 235.084 531.106 229.057C531.106 229.057 528.606 210.181 537.27 209.778C545.934 209.375 549.013 223.42 549.013 223.42Z" fill="black"/>
<path d="M549.599 223.42L553.451 227.939V238.888C553.451 238.888 550.178 273.428 539.781 277.245C529.385 281.061 510.827 275.034 510.827 275.034C510.827 275.034 506.033 261.783 508.281 260.989C510.529 260.195 528.097 255.346 528.097 255.346C528.097 255.346 527.845 235.084 531.697 229.057C531.697 229.057 529.192 210.181 537.855 209.778C546.519 209.375 549.599 223.42 549.599 223.42Z" fill="#6C63FF"/>
<path opacity="0.1" d="M522.699 177.009C522.865 175.687 522.714 174.342 522.26 173.095C521.716 171.873 520.445 170.951 519.204 171.263C517.559 171.666 516.863 173.901 515.235 174.438C513.871 174.89 512.384 173.882 511.723 172.557C511.061 171.232 511.056 169.675 511.056 168.185C511.056 166.512 511.056 164.832 511.056 163.153C511.056 161.321 510.997 159.355 509.92 157.92C508.579 156.136 505.424 155.355 503.317 155.428C501.914 155.444 500.569 156.009 499.547 157.01C498.423 158.011 497.117 158.744 495.583 158.481C494.944 158.382 494.345 158.095 493.855 157.654C493.366 157.213 493.007 156.636 492.82 155.99V155.929C494.454 153.663 496.52 151.776 498.888 150.387C501.257 148.998 503.876 148.137 506.58 147.858C509.284 147.579 512.015 147.889 514.598 148.767C517.181 149.646 519.562 151.075 521.589 152.963C523.616 154.85 525.245 157.157 526.373 159.735C527.501 162.314 528.104 165.109 528.144 167.943C528.183 170.777 527.658 173.589 526.602 176.201C525.546 178.813 523.982 181.167 522.008 183.116C522.347 181.095 522.578 179.056 522.699 177.009V177.009Z" fill="black"/>
<path d="M495.584 157.889C494.944 157.786 494.345 157.498 493.855 157.056C493.365 156.614 493.005 156.037 492.815 155.391C492.657 154.744 492.698 154.054 492.516 153.413C492.066 151.831 490.45 151.013 489.367 149.81C487.201 147.41 487.341 143.465 488.875 140.576C490.116 138.25 492.516 136.302 495.034 136.741C496.591 137.022 497.961 138.176 499.518 138.286C501.075 138.396 502.445 137.499 503.809 136.839C507.153 135.255 510.915 134.906 514.475 135.85C515.567 136.079 516.578 136.613 517.402 137.395C517.961 138.129 518.483 138.893 518.965 139.685C520.756 142.066 523.97 142.537 526.833 143.074C529.695 143.611 532.932 144.796 533.857 147.666C534.484 149.572 533.857 151.636 533.518 153.614C533.405 154.018 533.432 154.45 533.594 154.836C534.045 155.605 535.163 155.281 536.006 155.446C537.627 155.807 538.043 157.987 538.107 159.721C538.174 161.699 538.225 163.68 538.26 165.663C538.306 166.4 538.249 167.141 538.09 167.861C537.739 168.893 537.182 169.836 536.457 170.628L530.099 178.597C527.278 182.126 524.286 186.242 524.831 190.81C523.496 191.421 521.904 190.23 521.47 188.771C521.037 187.311 521.383 185.717 521.681 184.245C522.199 181.658 522.54 179.036 522.7 176.398C522.866 175.078 522.715 173.735 522.261 172.49C521.716 171.269 520.446 170.347 519.205 170.658C517.554 171.061 516.863 173.296 515.236 173.834C513.872 174.285 512.385 173.278 511.723 171.953C511.062 170.628 511.056 169.076 511.056 167.586V162.548C511.056 160.716 510.997 158.75 509.92 157.315C508.58 155.532 505.424 154.75 503.317 154.823C501.917 154.841 500.574 155.406 499.553 156.405C498.423 157.413 497.118 158.151 495.584 157.889Z" fill="#7C5C5C"/>
<path opacity="0.1" d="M500.015 220.929L506.045 246.766C506.045 246.766 510.798 246.736 500.015 220.929Z" fill="black"/>
<path opacity="0.1" d="M520.615 216.611C520.615 216.611 512.724 230.095 515.803 244.042L517.273 244.152C517.273 244.152 514.65 237.698 520.615 216.611Z" fill="black"/>
<path opacity="0.1" d="M525.597 292.926C525.597 292.926 535.291 289.58 535.994 297.342C536.017 297.342 534.191 292.023 525.597 292.926Z" fill="black"/>
<path opacity="0.1" d="M497.609 248.342C497.609 248.342 495.683 262.387 499.149 268.024C499.149 268.024 492.124 271.034 482.207 270.436L481.037 248.342H497.609Z" fill="black"/>
<path opacity="0.1" d="M498.926 266.442L497.996 266.985L492.024 252.94L497.609 247.719H497.896C497.808 248.415 496.251 260.488 498.926 266.442Z" fill="black"/>
<path d="M497.609 247.743C497.609 247.743 495.683 261.789 499.149 267.419C499.149 267.419 492.124 270.436 482.207 269.831L475.469 247.743H497.609Z" fill="#6C63FF"/>
<path d="M480.96 482.289C480.848 483.292 480.42 484.227 479.743 484.948C479.066 485.669 478.178 486.134 477.22 486.271C471.992 487.083 459.4 489.159 456.221 490.741C452.176 492.75 436.201 491.352 435.428 489.337C435.316 488.931 435.283 488.506 435.33 488.086C435.378 487.667 435.504 487.262 435.703 486.894C436.251 485.67 437.154 484.658 438.285 483.999C438.658 483.782 439.05 483.603 439.455 483.462C442.464 482.418 448.149 480.195 449.682 477.862C449.682 477.862 456.772 471.395 458.791 467.902C459.171 467.215 459.707 466.635 460.352 466.216C460.997 465.796 461.732 465.549 462.491 465.496C464.177 465.417 466.056 466.302 466.829 470.155C466.829 470.155 476.06 475.651 478.537 470.833C478.537 470.833 478.923 478.235 480.457 480.262C480.667 480.548 480.819 480.874 480.906 481.222C480.992 481.571 481.011 481.933 480.96 482.289V482.289Z" fill="#A27772"/>
<path opacity="0.1" d="M480.96 482.29C480.849 483.292 480.42 484.227 479.743 484.948C479.066 485.669 478.178 486.134 477.22 486.271C471.992 487.083 459.4 489.16 456.221 490.741C452.176 492.75 436.201 491.352 435.428 489.337C435.316 488.931 435.283 488.506 435.33 488.087C435.378 487.667 435.504 487.262 435.703 486.894C436.251 485.671 437.154 484.658 438.285 484C440.89 485.832 446.673 487.566 459.394 485.496C471.53 483.517 477.542 481.581 480.469 480.262C480.676 480.549 480.827 480.876 480.911 481.224C480.996 481.572 481.012 481.935 480.96 482.29V482.29Z" fill="black"/>
<g opacity="0.1">
<path opacity="0.1" d="M533.488 153.895V153.798C533.763 152.295 534.179 150.744 534.074 149.236C533.951 150.469 533.755 151.692 533.488 152.9C533.416 153.227 533.416 153.568 533.488 153.895V153.895Z" fill="black"/>
<path opacity="0.1" d="M522.254 172.692C522.561 173.415 522.722 174.197 522.729 174.988C522.815 173.897 522.653 172.8 522.254 171.788C521.716 170.566 520.446 169.644 519.205 169.956C517.554 170.359 516.863 172.594 515.23 173.131C513.871 173.583 512.385 172.576 511.717 171.25C511.05 169.925 511.05 168.368 511.05 166.878C511.05 165.199 511.05 163.525 511.05 161.846C511.05 160.014 510.991 158.048 509.914 156.613C508.568 154.823 505.418 154.048 503.311 154.115C501.908 154.134 500.563 154.7 499.541 155.703C498.411 156.704 497.111 157.437 495.572 157.174C494.933 157.073 494.335 156.785 493.846 156.344C493.357 155.903 492.998 155.328 492.809 154.683C492.651 154.036 492.692 153.339 492.51 152.698C492.059 151.123 490.444 150.298 489.361 149.101C488.345 147.926 487.769 146.409 487.739 144.827C487.659 145.755 487.762 146.69 488.041 147.575C488.32 148.46 488.769 149.277 489.361 149.975C490.444 151.196 492.059 151.996 492.51 153.571C492.692 154.182 492.651 154.909 492.809 155.556C492.998 156.201 493.357 156.777 493.846 157.217C494.335 157.658 494.933 157.946 495.572 158.048C497.111 158.31 498.411 157.577 499.541 156.576C500.563 155.573 501.908 155.007 503.311 154.988C505.418 154.921 508.579 155.697 509.914 157.486C510.991 158.921 511.044 160.893 511.05 162.719C511.05 164.399 511.05 166.072 511.05 167.751C511.05 169.241 511.05 170.805 511.717 172.118C512.385 173.431 513.854 174.456 515.23 174.005C516.845 173.467 517.571 171.232 519.205 170.829C520.446 170.548 521.716 171.513 522.254 172.692Z" fill="black"/>
<path opacity="0.1" d="M538.078 167.165C537.725 168.196 537.166 169.137 536.439 169.925L530.081 177.895C527.406 181.247 524.578 185.131 524.812 189.412C525.006 185.485 527.628 181.913 530.081 178.799L536.439 170.829C537.166 170.041 537.725 169.1 538.078 168.069C538.237 167.347 538.294 166.604 538.248 165.865C538.238 166.303 538.181 166.74 538.078 167.165V167.165Z" fill="black"/>
<path opacity="0.1" d="M521.499 188.068C521.395 187.719 521.33 187.359 521.306 186.994C521.253 187.66 521.318 188.331 521.499 188.972C521.932 190.426 523.519 191.629 524.859 191.006C524.822 190.714 524.798 190.421 524.789 190.126C523.455 190.682 521.909 189.497 521.499 188.068Z" fill="black"/>
</g>
<path opacity="0.1" d="M457.509 469.74C457.509 469.74 459.523 473.404 466.817 470.18Z" fill="black"/>
<path opacity="0.1" d="M519.158 470.632C519.158 470.632 525.445 478.357 533.371 473.166Z" fill="black"/>
<path opacity="0.1" d="M537.457 379.282C537.457 379.282 533.014 382.176 532.874 383.831C532.733 385.486 535.168 382.61 535.168 382.61L537.457 379.282Z" fill="black"/>
<path opacity="0.1" d="M539.213 401.486C537.668 402.827 535.747 403.609 533.74 403.715C530.415 403.867 530.696 408.386 532.868 407.031C535.039 405.675 539.213 401.486 539.213 401.486Z" fill="black"/>
<path opacity="0.1" d="M540.057 404.386C540.057 404.386 537.926 415.311 536.193 413.205Z" fill="black"/>
<path d="M128.39 486.265C128.39 486.265 141.767 490.094 148.206 485.001C154.646 479.908 157.438 481.545 157.438 481.545C157.438 481.545 172.793 480.659 174.057 476.873C175.322 473.087 168.168 459.334 168.168 459.334C167.659 458.113 166.916 456.562 166.582 456.562L166.652 450.761L168.877 426.486C174.011 412.752 168.97 395.006 168.97 395.006L168.051 390.603C167.535 388.128 167.842 385.544 168.923 383.275L178.249 363.734C178.748 362.442 179.335 361.189 180.005 359.984C180.591 358.867 181.369 357.487 182.347 355.832C182.634 355.356 182.932 354.861 183.26 354.342C184.39 352.51 185.76 350.433 187.416 348.04C191.543 342.073 193.715 334.605 194.839 329.109L195.337 330.831H195.366H195.448L195.583 330.861H195.77H195.805L196.045 330.904H196.133L199.001 368.986C199.177 383.837 204.405 392.057 204.405 392.057L203.685 424.844C204.668 432.74 202.514 443.268 201.525 447.469L199.265 452.788C198.375 453.252 197.607 453.934 197.027 454.777C196.446 455.62 196.071 456.597 195.934 457.625C195.489 461.551 191.526 470.015 191.526 470.015C189.992 472.042 186.661 477.52 186.661 477.52C186.661 477.52 185.092 482.809 186.064 484.787C187.036 486.766 195.161 486.564 195.161 486.564C204.44 488.708 211.552 483.511 211.102 479.932C210.651 476.354 212.548 475.444 212.548 475.444C216.236 474.223 215.879 471.615 215.879 471.615C216.673 466.236 215.688 460.736 213.086 456.018L212.501 457.429C212.342 454.605 212.72 451.777 213.613 449.106L213.274 449.35L213.168 449.417H213.133C213.718 444.062 219.11 434.15 219.11 434.15C229.015 416.026 225.415 391.464 225.415 391.464L223.881 383.807L223.793 380.918C223.583 374.022 224.084 367.123 225.286 360.339C225.819 357.334 226.369 353.707 226.79 349.707C227.68 341.255 230.549 332.535 231.872 328.84L232.264 328.767H232.311C232.849 328.669 233.394 328.571 233.944 328.462H234.049C234.049 328.462 234.366 326.678 234.635 323.643C234.793 321.708 234.922 319.253 234.922 316.431C234.961 307.913 233.715 299.441 231.228 291.327L231.526 290.881C231.526 290.881 232.235 289.879 233.528 288.145C235.905 284.994 239.605 280.206 244.165 274.808C252.332 265.092 249.931 255.267 249.931 255.267C249.931 255.267 244.019 232.666 241.385 219.096C239.88 211.365 237.058 206.108 234.898 203.005C235.385 200.866 235.66 198.681 235.718 196.483C235.893 192.465 235.759 188.276 234.026 184.667C232.293 181.058 228.605 178.206 224.753 178.688C224.207 178.826 223.637 178.826 223.091 178.688C222.64 178.475 222.26 178.129 221.996 177.693C219.742 174.45 219.596 170.09 220.298 166.157C221.001 162.225 222.441 158.463 223.085 154.518C223.729 150.573 223.436 146.195 221.03 143.068C218.203 139.404 213.274 138.372 209.597 135.618C207.016 133.682 205.078 130.903 202.356 129.187C199.634 127.471 197.087 128.125 194.131 128.772C189.161 129.865 184.437 130.366 179.736 132.595C174.976 134.843 170.707 138.083 167.191 142.115C165.943 143.415 164.987 144.988 164.392 146.72C163.222 150.756 165.511 155.055 165.031 159.232C164.691 162.194 163.017 164.771 161.688 167.415C160.359 170.06 159.346 173.198 160.388 175.965C162.027 180.288 167.372 181.204 171.259 183.507C171.779 183.772 172.223 184.174 172.547 184.673C173.507 186.419 171.546 188.233 170.311 189.784C169.604 190.689 169.103 191.75 168.847 192.886C167.238 193.575 165.816 194.666 164.707 196.064C163.597 197.461 162.834 199.121 162.484 200.898C161.167 207.048 163.192 214.81 164.978 219.939C163.028 231.365 165.563 235.872 167.431 237.6C169.321 239.289 170.492 241.692 170.686 244.281V244.494C170.808 246.571 171.019 248.641 171.3 250.705C171.236 250.222 171.171 249.709 171.136 249.483C169.608 252.433 166.699 259.969 165.06 272.646C164.719 275.363 164.224 278.057 163.579 280.713C162.406 285.417 161.987 290.291 162.338 295.137L162.63 299.247C162.342 299.255 162.061 299.157 161.834 298.972L163.889 302.899V309.525C163.887 312.512 163.359 315.474 162.332 318.263C162.185 318.666 162.027 319.069 161.858 319.485C161.33 320.6 161.092 321.84 161.167 323.082C156.747 330.147 146.614 369.743 146.614 369.743C141.117 382.726 147.065 391.116 147.065 391.116C147.065 391.116 149.945 427.262 150.483 429.131C151.022 430.999 152.216 453.032 152.216 453.032C152.216 453.612 152.216 454.217 152.216 454.785C151.897 454.639 151.56 454.539 151.215 454.486C146.397 454.205 145.092 462.144 145.092 462.144L135.234 471.963C135.234 471.963 130.732 471.169 124.111 476.354C117.49 481.538 128.39 486.265 128.39 486.265ZM226.826 277.361L226.796 277.251L226.527 277.416L226.416 277.483L226.363 277.519L221.82 260.793C220.604 256.309 220.49 251.577 221.487 247.035L224.999 230.986V227.127L236.163 258.161C236.877 262.344 230.244 272.475 226.826 277.361Z" fill="url(#paint3_linear)"/>
<path d="M231.725 327.845C231.725 327.845 227.217 339.283 226.07 350.257C225.654 354.214 225.116 357.792 224.589 360.76C223.419 367.46 222.937 374.271 223.149 381.077L223.237 383.929L224.7 391.483C224.7 391.483 228.213 415.745 218.512 433.619C218.512 433.619 212.764 444.324 212.588 449.393L208.695 450.962L200.827 448.66C200.827 448.66 204.627 434.45 203.392 424.49L204.1 392.124C204.1 392.124 198.989 384.027 198.814 369.371L195.811 329.152L231.725 327.845Z" fill="#FDC2CC"/>
<path d="M195.811 322.117C195.811 322.117 194.845 337.799 187.411 348.608C179.976 359.417 178.395 364.106 178.395 364.106L169.24 383.416C168.18 385.654 167.876 388.2 168.379 390.64L169.281 394.988C169.281 394.988 174.233 412.514 169.193 426.077L166.804 452.275H152.837C152.837 452.275 151.666 430.505 151.157 428.661C150.647 426.816 147.796 391.116 147.796 391.116C147.796 391.116 141.942 382.811 147.352 369.993C147.352 369.993 159.557 322.025 162.824 322.856C166.09 323.686 195.811 322.117 195.811 322.117Z" fill="#FDC2CC"/>
<g opacity="0.1">
<path opacity="0.1" d="M167.864 395.019L166.968 390.671C166.452 388.222 166.753 385.662 167.823 383.416L176.979 364.088C176.979 364.088 178.565 359.386 185.994 348.589C193.13 338.208 194.307 323.332 194.388 322.19L195.811 322.117C195.811 322.117 194.845 337.799 187.41 348.608C179.976 359.417 178.395 364.106 178.395 364.106L169.24 383.416C168.179 385.654 167.876 388.2 168.379 390.64L169.281 394.988C169.281 394.988 174.233 412.514 169.193 426.077L166.804 452.275H165.388L167.776 426.077C172.816 412.514 167.864 395.019 167.864 395.019Z" fill="black"/>
</g>
<path opacity="0.1" d="M211.195 449.411C211.371 444.343 217.119 433.638 217.119 433.638C226.849 415.745 223.307 391.501 223.307 391.501L221.809 383.941L221.721 381.089C221.508 374.283 221.991 367.472 223.161 360.772C223.682 357.804 224.22 354.226 224.636 350.269C225.742 339.704 229.963 328.712 230.273 327.906L231.725 327.845C231.725 327.845 227.218 339.283 226.07 350.257C225.655 354.214 225.116 357.792 224.589 360.76C223.42 367.46 222.937 374.271 223.149 381.077L223.237 383.929L224.7 391.483C224.7 391.483 228.213 415.745 218.513 433.619C218.513 433.619 212.764 444.324 212.588 449.393L208.696 450.962L207.876 450.724L211.195 449.411Z" fill="black"/>
<path d="M206.688 449.228C207.742 449.663 208.884 449.815 210.009 449.67C211.134 449.525 212.206 449.088 213.127 448.398C211.839 452.32 211.656 456.546 212.6 460.574C214.192 467.218 197.743 455.225 197.743 455.225L201.255 446.853C201.255 446.853 202.619 449.503 206.688 449.228Z" fill="#D39999"/>
<path opacity="0.1" d="M207.911 449.6C208.816 449.791 209.749 449.781 210.65 449.57C211.55 449.36 212.398 448.954 213.139 448.379C211.85 452.302 211.668 456.528 212.612 460.556C214.204 467.2 197.754 455.206 197.754 455.206L201.267 446.834C201.267 446.834 202.285 448.874 205.277 449.191C206.184 449.301 207.051 449.429 207.911 449.6Z" fill="black"/>
<path d="M169.369 294.038H176.241V253.361L171.084 252.396L169.369 294.038Z" fill="#FDC2CC"/>
<path opacity="0.05" d="M169.369 294.038H176.241V253.361L171.084 252.396L169.369 294.038Z" fill="black"/>
<path d="M202.795 452.367C202.795 452.367 207.127 452.086 209.071 456.147L211.459 458.083L212.63 455.225C215.171 459.895 216.124 465.325 215.334 470.632C215.334 470.632 215.686 473.209 212.062 474.412C212.062 474.412 210.206 475.334 210.645 478.839C211.084 482.344 204.106 487.511 194.997 485.386C194.997 485.386 187.036 485.575 186.064 483.633C185.092 481.691 186.685 476.531 186.685 476.531C186.685 476.531 189.957 471.12 191.456 469.123C191.456 469.123 195.349 460.757 195.794 456.91C196.239 453.063 200.494 450.241 202.795 452.367Z" fill="#7E5659"/>
<path d="M166.939 455.78L167.009 450.046C167.009 450.046 159.1 452.422 152.696 449.735C152.696 449.735 153.235 455.5 152.345 456.287C151.455 457.075 155.307 464.495 155.307 464.495L159.61 469.197L167.009 466.388L169.017 459.793C169.017 459.793 167.466 455.78 166.939 455.78Z" fill="#D39999"/>
<path opacity="0.1" d="M166.939 455.78L167.009 450.046C167.009 450.046 159.1 452.422 152.696 449.735C152.696 449.735 153.235 455.5 152.345 456.287C151.455 457.075 155.307 464.495 155.307 464.495L159.61 469.197L167.009 466.388L169.017 459.793C169.017 459.793 167.466 455.78 166.939 455.78Z" fill="black"/>
<path d="M151.859 453.704C151.859 453.704 156.062 454.211 155.529 459.811C154.997 465.411 155.752 459.811 155.752 459.811C155.752 459.811 160.218 461.698 161.811 464.33C163.403 466.962 166.277 461.979 166.494 460.55C166.71 459.121 168.502 458.528 168.502 458.528C168.502 458.528 175.527 472.116 174.286 475.853C173.044 479.591 157.965 480.452 157.965 480.452C157.965 480.452 155.219 478.839 148.897 483.865C142.574 488.891 129.444 485.087 129.444 485.087C129.444 485.087 118.743 480.427 125.246 475.316C131.75 470.205 136.164 470.98 136.164 470.98L145.847 461.246C145.847 461.246 147.129 453.423 151.859 453.704Z" fill="#7E5659"/>
<path d="M202.057 132.485C204.732 134.176 206.635 136.924 209.17 138.836C212.776 141.553 217.617 142.567 220.392 146.194C222.733 149.284 223.038 153.602 222.405 157.498C221.773 161.394 220.357 165.113 219.672 168.997C218.987 172.881 219.127 177.186 221.34 180.386C221.597 180.816 221.97 181.158 222.411 181.369C222.948 181.503 223.508 181.503 224.045 181.369C227.826 180.893 231.456 183.714 233.153 187.274C234.851 190.835 234.986 194.975 234.81 198.944C234.664 202.199 234.313 205.521 232.943 208.452C230.601 213.435 225.731 216.513 220.924 218.87C217.801 220.403 214.597 221.752 211.33 222.913C209.082 223.707 206.711 224.421 204.375 224.006C200.377 223.286 197.543 219.493 193.75 218.009C190.642 216.788 187.194 217.228 183.886 217.533C181.064 217.79 177.839 217.783 175.895 215.634C173.402 212.874 174.525 208.422 175.802 204.868C174.45 204.778 173.148 204.301 172.041 203.488C170.933 202.676 170.062 201.56 169.524 200.263C168.986 198.966 168.802 197.54 168.993 196.141C169.183 194.742 169.741 193.426 170.603 192.337C171.809 190.804 173.735 189.015 172.793 187.286C172.476 186.794 172.04 186.397 171.528 186.138C167.717 183.867 162.466 182.957 160.862 178.694C159.832 175.952 160.827 172.85 162.133 170.243C163.438 167.635 165.06 165.083 165.417 162.163C165.885 158.035 163.66 153.791 164.79 149.81C165.374 148.1 166.312 146.544 167.536 145.254C170.977 141.28 175.16 138.082 179.829 135.856C184.448 133.651 189.079 133.157 193.961 132.082C196.888 131.435 199.311 130.751 202.057 132.485Z" fill="#865A61"/>
<path d="M176.235 193.961C176.235 193.961 165.036 193.351 162.917 203.311C160.798 213.271 167.512 227.536 167.512 227.536L176.235 193.961Z" fill="#FDC2CC"/>
<path opacity="0.05" d="M176.235 193.961C176.235 193.961 165.036 193.351 162.917 203.311C160.798 213.271 167.512 227.536 167.512 227.536L176.235 193.961Z" fill="black"/>
<path d="M169.088 223.603L173.332 227.109L193.136 228.031L205.5 219.176L218.074 196.667C210.388 194.621 207.28 189.082 206.12 183.904C205.383 180.399 205.3 176.779 205.875 173.241C205.875 173.241 185.713 162.353 188.19 179.348C188.529 181.434 188.592 183.559 188.377 185.662C187.206 195.616 177.945 193.742 177.945 193.742L174.392 199.457L170.323 213.503L169.088 223.603Z" fill="#FDC2CC"/>
<path opacity="0.1" d="M188.207 179.323C188.546 181.409 188.609 183.534 188.394 185.638C191.239 186.993 194.374 187.547 197.488 187.242C200.602 186.938 203.584 185.787 206.138 183.904C205.4 180.399 205.317 176.779 205.892 173.241C205.892 173.241 185.731 162.353 188.207 179.323Z" fill="black"/>
<path d="M195.823 186.584C205.687 186.584 213.683 178.243 213.683 167.953C213.683 157.663 205.687 149.321 195.823 149.321C185.958 149.321 177.962 157.663 177.962 167.953C177.962 178.243 185.958 186.584 195.823 186.584Z" fill="#FDC2CC"/>
<path d="M183.19 220.049C183.623 220.049 184.05 220.117 184.478 220.159C186.819 220.404 196.601 220.953 202.174 214.01C208.409 206.242 216.71 196.648 217.05 196.258L225.497 198.92C225.497 198.92 218.812 196.441 214.374 209.411C213.401 212.132 213.298 215.109 214.082 217.895C214.866 220.681 216.495 223.128 218.724 224.868C220.365 226.108 222.254 226.943 224.25 227.31C224.253 227.315 224.254 227.32 224.254 227.325C224.254 227.331 224.253 227.336 224.25 227.341V233.032L220.796 248.91C219.815 253.396 219.927 258.068 221.124 262.497L226.393 281.923C225.596 282.497 192.908 305.69 171.072 289.672C171.154 288.976 173.853 266.179 171.979 255.022C171.498 252.17 171.172 249.291 171.002 246.4C171.002 246.327 171.002 246.259 171.002 246.186C170.809 243.634 169.658 241.264 167.8 239.591C165.833 237.759 163.169 232.873 165.803 219.964C166.469 216.767 167.45 213.65 168.73 210.663L176.054 193.4L182.804 193.54V193.589C182.218 194.346 174.391 204.544 173.542 211.115C172.711 217.362 171.687 219.28 183.19 220.049Z" fill="#6C63FF"/>
<path d="M231.181 201.955C231.181 201.955 237.784 207.86 240.378 221.265C242.971 234.669 248.749 256.934 248.749 256.934C248.749 256.934 251.091 266.65 243.088 276.243C235.086 285.837 229.764 293.342 229.764 293.342L224.496 301.44C223.597 302.82 222.25 303.814 220.702 304.236C218.302 304.896 214.614 305.372 211.418 303.546C210.255 302.868 209.372 301.766 208.94 300.45C208.508 299.135 208.556 297.7 209.076 296.42L210.247 293.592C210.247 293.592 199.4 300.725 198.457 296.786C197.515 292.847 211.073 288.915 211.073 288.915C211.073 288.915 222.271 286.948 224.537 281.416C224.537 281.416 236.561 265.3 235.618 259.767L224.004 227.298C224.004 227.298 209.48 225.295 214.433 208.276C219.385 191.256 231.181 201.955 231.181 201.955Z" fill="#FDC2CC"/>
<path d="M161.735 324.456C161.735 324.456 188.265 329.988 194.517 329.249L195.191 331.588C195.191 331.588 205.26 333.939 228.026 330.171C229.513 329.927 231.056 329.652 232.656 329.347L233.189 329.249C233.189 329.249 233.499 327.491 233.745 324.492C234.29 317.683 234.483 304.499 229.887 291.003L226.059 278.704C226.059 278.704 202.397 293.501 186.732 292.139C185.332 292.017 183.945 291.901 182.546 291.852C179.332 291.724 174.35 291.852 171.113 289.147L164.322 290.368V310.52C164.32 313.468 163.8 316.39 162.789 319.143C162.642 319.546 162.49 319.943 162.32 320.364C161.697 321.623 161.491 323.062 161.735 324.456Z" fill="#65617D"/>
<path opacity="0.1" d="M195.185 325.317V331.588C195.185 331.588 206.776 334.293 233.184 329.249C233.184 329.249 233.494 327.491 233.74 324.492C225.638 325.848 203.293 329.109 195.185 325.317Z" fill="black"/>
<path opacity="0.1" d="M161.735 324.456C161.735 324.456 188.265 329.988 194.517 329.249L195.19 331.588V325.317C192.17 326.624 170.604 321.201 162.788 319.167C162.642 319.57 162.49 319.967 162.32 320.389C161.702 321.64 161.496 323.07 161.735 324.456V324.456Z" fill="black"/>
<path d="M226.053 317.463L228.02 330.19C229.507 329.946 231.051 329.671 232.651 329.366C232.036 325.647 230.695 317.152 231.064 315.741L228.588 313.531L226.053 317.463Z" fill="#65617D"/>
<path opacity="0.1" d="M226.328 317.189L228.295 329.921C229.782 329.673 231.325 329.398 232.925 329.097C232.31 325.378 230.97 316.883 231.339 315.473L228.862 313.256L226.328 317.189Z" fill="black"/>
<g opacity="0.05">
<path opacity="0.05" d="M185.309 292.133C183.915 292.011 182.522 291.895 181.123 291.846C177.997 291.724 173.226 291.846 169.971 289.348L171.107 289.141C174.362 291.834 179.302 291.718 182.54 291.846C183.939 291.895 185.326 292.011 186.725 292.133C187.182 292.176 187.65 292.2 188.124 292.212C187.185 292.238 186.245 292.212 185.309 292.133V292.133Z" fill="black"/>
<path opacity="0.05" d="M226.603 330.172C228.09 329.927 229.633 329.655 231.234 329.353L231.772 329.25C231.772 329.25 232.082 327.491 232.322 324.492C232.873 317.683 233.066 304.499 228.465 291.003L224.858 279.401C225.625 278.949 226.029 278.686 226.029 278.686L229.858 290.985C234.453 304.481 234.26 317.665 233.716 324.474C233.47 327.472 233.16 329.231 233.16 329.231L232.627 329.335C231.031 329.636 229.487 329.909 227.996 330.153C217.359 331.912 209.503 332.34 204.141 332.291C211.669 332.172 219.177 331.463 226.603 330.172V330.172Z" fill="black"/>
<path opacity="0.05" d="M193.089 329.25V329.317H192.328C192.616 329.296 192.87 329.274 193.089 329.25Z" fill="black"/>
</g>
<path d="M229.349 319.839C229.902 319.839 230.35 318.877 230.35 317.69C230.35 316.502 229.902 315.54 229.349 315.54C228.796 315.54 228.348 316.502 228.348 317.69C228.348 318.877 228.796 319.839 229.349 319.839Z" fill="#D39999"/>
<path d="M165.458 274.161C167.074 261.642 169.925 254.204 171.429 251.291C171.488 251.688 171.64 252.977 171.71 253.374C172.014 255.206 171.745 257.514 171.839 259.841L170.34 288.151L172.348 297.006C174.233 304.017 167.249 298.478 167.249 298.478C165.803 301.8 163.151 301.433 163.151 301.433L162.788 296.353C162.445 291.566 162.856 286.753 164.006 282.106C164.641 279.49 165.126 276.837 165.458 274.161V274.161Z" fill="#FDC2CC"/>
<path opacity="0.05" d="M165.458 274.161C167.074 261.642 169.925 254.204 171.429 251.291C171.488 251.688 171.64 252.977 171.71 253.374C172.014 255.206 171.745 257.514 171.839 259.841L170.34 288.151L172.348 297.006C174.233 304.017 167.249 298.478 167.249 298.478C165.803 301.8 163.151 301.433 163.151 301.433L162.788 296.353C162.445 291.566 162.856 286.753 164.006 282.106C164.641 279.49 165.126 276.837 165.458 274.161V274.161Z" fill="black"/>
<path d="M232.65 289.434C231.38 291.15 230.683 292.133 230.683 292.133L225.415 300.224C224.518 301.607 223.17 302.601 221.621 303.021C219.221 303.681 215.533 304.163 212.337 302.331C211.173 301.655 210.29 300.553 209.858 299.239C209.425 297.924 209.474 296.49 209.995 295.211L211.166 292.377C211.166 292.377 200.319 299.51 199.376 295.577C198.434 291.644 211.991 287.705 211.991 287.705C211.991 287.705 223.19 285.739 225.456 280.2C225.456 280.2 226.433 278.893 227.797 276.89" fill="#FDC2CC"/>
<path d="M226.053 302.997C226.053 302.997 213.227 301.696 209.164 294.044L207.302 300.365C207.302 300.365 220.766 310.062 223.84 308.804L226.053 302.997Z" fill="#65617D"/>
<path opacity="0.1" d="M225.596 302.936C225.596 302.936 212.776 301.635 208.707 293.977L206.852 300.279C206.852 300.279 220.316 309.977 223.383 308.719L225.596 302.936Z" fill="black"/>
<path d="M167.67 299.424C167.67 299.424 163.18 301.085 162.296 300.163L164.316 304.041L168.133 300.987L167.67 299.424Z" fill="#65617D"/>
<path opacity="0.1" d="M167.67 299.424C167.67 299.424 163.18 301.085 162.296 300.163L164.316 304.041L168.133 300.987L167.67 299.424Z" fill="black"/>
<path opacity="0.1" d="M195.184 325.317V317.225L193.34 325.512L195.184 325.317Z" fill="black"/>
<path opacity="0.1" d="M213.373 158.115C212.29 159.703 210.411 160.509 208.561 160.759C206.711 161.01 204.838 160.796 202.971 160.759C200.044 160.71 196.929 161.181 194.535 162.976C193.007 164.118 191.86 165.724 190.665 167.251C187.048 171.861 182.025 176.179 176.323 175.696C175.827 175.696 175.335 175.593 174.878 175.391C174.42 175.19 174.006 174.895 173.66 174.524C173.195 173.771 172.958 172.89 172.98 171.996C172.735 168.195 172.851 164.378 173.326 160.6C173.555 158.263 174.111 155.973 174.977 153.804C175.996 151.629 177.335 149.635 178.946 147.892C180.894 145.535 183.241 143.573 185.871 142.103C188.528 140.633 191.607 140.219 194.535 140.937C197.948 141.908 200.606 144.692 203.86 146.128C207.578 147.758 217.448 152.112 213.373 158.115Z" fill="black"/>
<path d="M213.373 157.376C212.29 158.964 210.411 159.77 208.561 160.02C206.711 160.271 204.838 160.057 202.971 160.02C200.044 159.965 196.929 160.435 194.535 162.231C193.007 163.373 191.86 164.979 190.665 166.506C187.048 171.116 182.025 175.434 176.323 174.951C175.826 174.953 175.334 174.849 174.877 174.648C174.419 174.447 174.005 174.151 173.66 173.779C173.194 173.027 172.957 172.145 172.98 171.25C172.735 167.449 172.851 163.633 173.326 159.855C173.555 157.518 174.111 155.228 174.977 153.059C175.994 150.885 177.334 148.892 178.946 147.153C180.892 144.793 183.24 142.828 185.871 141.358C188.528 139.888 191.607 139.473 194.535 140.192C197.948 141.163 200.606 143.947 203.86 145.382C207.578 147.019 217.448 151.361 213.373 157.376Z" fill="#865A61"/>
<path d="M171.113 289.135L171.066 291.363L170.586 289.232L171.113 289.135Z" fill="#FDC2CC"/>
<path opacity="0.05" d="M171.113 289.135L171.066 291.363L170.586 289.232L171.113 289.135Z" fill="black"/>
<g opacity="0.05">
<path opacity="0.05" d="M216.259 207.109C211.301 224.129 225.754 226.125 225.754 226.125L237.369 258.595C238.311 264.127 226.281 280.243 226.281 280.243C225.444 282.307 223.354 283.877 221.071 285.037C222.405 284.189 223.478 282.96 224.162 281.495C224.162 281.495 236.186 265.385 235.244 259.853L223.629 227.377C223.629 227.377 209.182 225.38 214.134 208.361C215.791 202.676 218.232 200.086 220.702 199.158C218.999 200.587 217.436 203.06 216.259 207.109Z" fill="black"/>
</g>
<g opacity="0.1">
<path opacity="0.1" d="M216.505 222.572C217.184 223.448 217.971 224.226 218.846 224.886C220.486 226.129 222.376 226.964 224.373 227.329C224.373 227.329 224.373 227.329 224.373 227.359V227.97C222.566 227.571 220.859 226.782 219.362 225.655C218.248 224.804 217.282 223.761 216.505 222.572V222.572Z" fill="black"/>
<path opacity="0.1" d="M171.593 246.919C171.593 246.986 171.593 247.06 171.593 247.133C171.775 250.034 172.111 252.923 172.6 255.786C174.356 266.314 172.055 287.217 171.727 290.106C171.54 289.978 171.353 289.855 171.142 289.715C171.23 289.019 173.929 266.222 172.055 255.072C171.575 252.219 171.249 249.34 171.078 246.449C171.078 246.376 171.078 246.302 171.078 246.235C170.961 244.559 170.418 242.946 169.503 241.563C170.716 243.079 171.447 244.951 171.593 246.919V246.919Z" fill="black"/>
<path opacity="0.1" d="M182.37 194.23L176.645 194.114C176.64 194.111 176.635 194.11 176.63 194.11C176.625 194.11 176.62 194.111 176.616 194.114L169.298 211.372C168.019 214.359 167.038 217.475 166.371 220.672C164.24 231.115 165.581 236.318 167.208 238.889C165.376 236.635 163.485 231.499 165.844 219.958C166.498 216.759 167.469 213.64 168.742 210.651L176.112 193.394L182.862 193.534V193.577C182.809 193.65 182.628 193.882 182.37 194.23Z" fill="black"/>
<path opacity="0.1" d="M225.515 198.914L225.614 198.945L225.515 198.914Z" fill="black"/>
<path opacity="0.1" d="M223.413 198.816L217.676 197.015H217.647C217.307 197.406 209.012 206.999 202.777 214.767C197.204 221.71 187.434 221.167 185.081 220.923C184.653 220.874 184.22 220.837 183.793 220.807C177.394 220.379 174.877 219.585 174.034 217.9C175.234 219.121 177.874 219.732 183.26 220.074C183.693 220.074 184.121 220.141 184.548 220.184C186.89 220.428 196.672 220.971 202.245 214.034C208.479 206.26 216.78 196.667 217.12 196.276L225.468 198.914C224.796 198.739 224.097 198.706 223.413 198.816V198.816Z" fill="black"/>
</g>
<path opacity="0.1" d="M155.488 462.577C155.488 462.577 147.41 464.88 145.847 461.264Z" fill="black"/>
<path opacity="0.1" d="M206.776 460.849C206.776 460.849 197.409 463.371 195.243 459.469Z" fill="black"/>
<defs>
<linearGradient id="paint0_linear" x1="281.947" y1="433.766" x2="281.947" y2="72.8041" gradientUnits="userSpaceOnUse">
<stop stop-color="#808080" stop-opacity="0.25"/>
<stop offset="0.54" stop-color="#808080" stop-opacity="0.12"/>
<stop offset="1" stop-color="#808080" stop-opacity="0.1"/>
</linearGradient>
<linearGradient id="paint1_linear" x1="80630.8" y1="291753" x2="80630.8" y2="63920.1" gradientUnits="userSpaceOnUse">
<stop stop-color="#808080" stop-opacity="0.25"/>
<stop offset="0.54" stop-color="#808080" stop-opacity="0.12"/>
<stop offset="1" stop-color="#808080" stop-opacity="0.1"/>
</linearGradient>
<linearGradient id="paint2_linear" x1="106892" y1="297008" x2="106892" y2="86162.9" gradientUnits="userSpaceOnUse">
<stop stop-color="#808080" stop-opacity="0.25"/>
<stop offset="0.54" stop-color="#808080" stop-opacity="0.12"/>
<stop offset="1" stop-color="#808080" stop-opacity="0.1"/>
</linearGradient>
<linearGradient id="paint3_linear" x1="-61223.5" y1="294488" x2="-61223.5" y2="82782.5" gradientUnits="userSpaceOnUse">
<stop stop-color="#808080" stop-opacity="0.25"/>
<stop offset="0.54" stop-color="#808080" stop-opacity="0.12"/>
<stop offset="1" stop-color="#808080" stop-opacity="0.1"/>
</linearGradient>
</defs>
</svg>
